SplineFontDB: 3.0
FontName: LinBiolinumOB
FullName: Linux Biolinum O Bold
FamilyName: Linux Biolinum O
Weight: Bold
Copyright: Linux Libertine by Philipp H. Poll,\nOpen Font under Terms of following Free Software Licenses:\nGPL (General Public License) with font-exception and OFL (Open Font License).\nCreated with FontForge (http://fontforge.sf.net)\nSept 2003, 2004, 2005, 2006, 2007, 2008, 2009, 2010, 2011
UComments: "2003-08-29: Created.+AAoA-2004-07-25: v(1.0) release candidate+AAoA-2005-12-28: v(1.1.0) stable+AAoA-2006-01-01: v(2.0.0) stable+AAoA-2006-09-05: v(2.2.0) stable+AAoA-2006-12-04: v(2.3.0) stable+AAoA-2007-03-11: v(2.4.0) stable+AAoA-2007-12-00: v(2.7.0) stable+AAoA-2008-06-00: v(2.8.14) stable+AAoA" 
Version: 0.9.2
ItalicAngle: 0
UnderlinePosition: -98
UnderlineWidth: 40
Ascent: 754
Descent: 246
LayerCount: 2
Layer: 0 0 "Back"  1
Layer: 1 0 "Fore"  0
NeedsXUIDChange: 1
XUID: [1021 993 1524925707 2876416]
FSType: 0
OS2Version: 0
OS2_WeightWidthSlopeOnly: 0
OS2_UseTypoMetrics: 0
CreationTime: 1156455862
ModificationTime: 1304017660
PfmFamily: 33
TTFWeight: 700
TTFWidth: 5
LineGap: 0
VLineGap: 0
OS2TypoAscent: 894
OS2TypoAOffset: 0
OS2TypoDescent: -246
OS2TypoDOffset: 0
OS2TypoLinegap: 0
OS2WinAscent: 894
OS2WinAOffset: 0
OS2WinDescent: 246
OS2WinDOffset: 0
HheadAscent: 894
HheadAOffset: 0
HheadDescent: -246
HheadDOffset: 0
OS2FamilyClass: 2050
OS2Vendor: 'PfEd'
Lookup: 3 0 0 "'aalt' Alle Alternativen zeigen"  {"'aalt' Alle Alternativen zeigen 1"  } ['aalt' ('DFLT' <'dflt' > 'cyrl' <'dflt' > 'grek' <'dflt' > 'latn' <'AZE ' 'CRT ' 'DEU ' 'MOL ' 'ROM ' 'TRK ' 'dflt' > ) ]
Lookup: 1 0 0 "'locl' Localized Forms Romaenisch"  {"'locl' Localized Forms Romaenisch 1"  } ['locl' ('latn' <'MOL ' 'ROM ' > ) ]
Lookup: 1 0 0 "'smcp' Gemeine nach Kapitaelchen i > i.sc"  {"'smcp' Gemeine nach Kapitaelchen i > i.sc 1"  } ['smcp' ('DFLT' <'dflt' > 'cyrl' <'dflt' > 'grek' <'dflt' > 'latn' <'DEU ' 'MOL ' 'ROM ' 'dflt' > ) ]

StartChar: exclam
Encoding: 33 33 0
Width: 270
VWidth: 999
Flags: HW
HStem: -20 141<93.5841 174.231> 638 20G<120 147>
VStem: 62 142<7.33871 89.5176> 63 141<439.802 636.71>
LayerCount: 2
Fore
SplineSet
132 658 m 0
 162 658 204 635 204 585 c 0
 204 520 186.1 478 175 392 c 0
 161.1 284 160 224 158 210 c 0
 157 199 143 190 132 190 c 0
 120 190 108 197 107 203 c 0
 105 224 98.9 314 90 392 c 0
 79.9 480 63 515 63 585 c 0
 63 639 108 658 132 658 c 0
62 48 m 1
 62 53 l 1
 75 86 93 106 131 121 c 1
 135 121 l 1
 172 108 191 89 204 53 c 1
 204 48 l 1
 190 7 171 -11 135 -20 c 1
 131 -20 l 1
 90 -11 73 6 62 48 c 1
EndSplineSet
Colour: ff80cc
EndChar

StartChar: quotedbl
Encoding: 34 34 1
Width: 375
VWidth: 999
Flags: HW
HStem: 421 223<94 126 108 126> 422 223<237 269 251 269>
LayerCount: 2
Fore
SplineSet
251 422 m 1
 236 426 l 1
 236 426 204 586 204 592 c 0
 204 615 226 646 269 646 c 0
 311 646 314 627 314 609 c 0
 314 594 277 428 277 428 c 1
 251 422 l 1
108 421 m 1
 93 425 l 1
 93 425 61 585 61 591 c 0
 61 614 83 645 126 645 c 0
 168 645 171 626 171 608 c 0
 171 593 134 427 134 427 c 1
 108 421 l 1
EndSplineSet
Colour: ff00ff
EndChar

StartChar: numbersign
Encoding: 35 35 2
Width: 514
Flags: HW
HStem: 187 66<37.5 127.5 192.5 280.5 341.5 451.5> 360 66<63.5 154.5 218.5 305.5 368.5 476.5> 579 20G<187.5 248.5 338.5 395.5>
DStem2: 99.5 14 154.5 14 0.158649 0.987335<8.72568 175.251 250.727 350.344 425.661 592.345> 251.5 14 304.5 14 0.155356 0.987859<8.23384 175.405 250.08 350.188 425.174 592.19>
LayerCount: 2
Fore
SplineSet
288.5 253 m 1
 305.5 360 l 1
 211.5 360 l 1
 205.5 323 198.5 290 192.5 253 c 1
 288.5 253 l 1
358.5 360 m 1
 341.5 253 l 1
 459.5 253 l 1
 451.5 187 l 1
 332.5 187 l 1
 322.5 127 314.5 72 304.5 14 c 1
 251.5 14 l 1
 280.5 187 l 1
 184.5 187 l 1
 173.5 127 165.5 72 154.5 14 c 1
 99.5 14 l 1
 127.5 187 l 1
 28.5 187 l 1
 37.5 253 l 1
 137.5 253 l 1
 143.5 290 149.5 323 154.5 360 c 1
 54.5 360 l 1
 63.5 426 l 1
 163.5 426 l 1
 173.5 484 182.5 541 192.5 599 c 1
 248.5 599 l 1
 218.5 426 l 1
 315.5 426 l 1
 325.5 484 333.5 541 343.5 599 c 1
 395.5 599 l 1
 368.5 426 l 1
 485.5 426 l 1
 476.5 360 l 1
 358.5 360 l 1
EndSplineSet
EndChar

StartChar: dollar
Encoding: 36 36 3
Width: 514
VWidth: 999
Flags: HMW
HStem: -9.5 48.2<265.254 316.267> 563.7 46.3<212.171 263.503>
VStem: 60 117<411.835 524.114> 349 127<90.6723 213.211>
DStem2: 214.555 -98.2666 255.5 -93.25 0.0737434 0.997277<7.80138 89.0172 140.296 354.51 472.331 660.578 710.162 793.883>
LayerCount: 2
Fore
SplineSet
249.4 372.8 m 1
 263.5 563.7 l 1
 215.9 559.8 177 518.7 177 474 c 0
 177 416.1 214.3 388.8 249.4 372.8 c 1
281.1 252.3 m 1
 265.3 38.7 l 1
 314.4 43.7 349 77.3 349 138 c 0
 349 188.6 328.7 228.9 281.1 252.3 c 1
261.7 -9.5 m 1
 255.5 -93.2 l 1
 248.2 -97.4 224.6 -98.3 214.6 -98.3 c 1
 221.1 -9.5 l 1
 119.4 -4.8 47 31 47 31 c 1
 45 33 l 1
 52 61 60 109 64 142 c 1
 82 143 l 1
 110 101.4 172 54.7 224.9 41.6 c 1
 241.7 268.5 l 1
 159.8 302.2 60 355.3 60 449 c 0
 60 550.1 158 610 266.9 610 c 1
 272.8 689.5 l 1
 282 693 301 694.5 313.8 694.5 c 1
 307.3 607.7 l 1
 394.5 598.9 451 568 451 568 c 1
 453 565 l 1
 445 537 438 491 434 458 c 1
 406 457 l 1
 386.7 494 347.4 540.6 303.6 557.5 c 1
 288.8 357.5 l 1
 366.6 328.9 476 275.9 476 171 c 0
 476 80 399.9 -2.7 261.7 -9.5 c 1
EndSplineSet
EndChar

StartChar: percent
Encoding: 37 37 4
Width: 637
VWidth: 999
Flags: HW
HStem: -19 39<464.6 519.99> 214 36<494.292 553.315> 297 39<145.6 200.99> 474 45<285.497 457.718> 530 36<175.292 234.315>
VStem: 51 93<336.471 492.517> 243 42<385.167 510.902> 370 93<20.4706 176.517> 562 42<69.1669 208.803>
DStem2: 96 -4 150 -16 0.588938 0.808178<22.1045 620.449 651.051 709.262>
LayerCount: 2
Fore
SplineSet
463 53 m 0
 463 39.7 466 20 483 20 c 0
 503.7 20 523.4 36.7 537 60 c 0
 553.6 88.4 562 126.8 562 157 c 0
 562 209 537 214 523 214 c 0
 503.1 214 484.7 191.7 475 162 c 0
 463.8 127.7 463 83.6 463 53 c 0
370 91 m 0
 370 171 423 250 512 250 c 0
 560 250 604 231 604 159 c 0
 604 60 550 -19 471 -19 c 0
 438.7 -19 409.7 -10.5 393 11 c 0
 379 29 370 54 370 91 c 0
144 369 m 0
 144 355.7 147 336 164 336 c 0
 184.7 336 204.4 352.7 218 376 c 0
 234.6 404.4 243 442.8 243 473 c 0
 243 525 218 530 204 530 c 0
 184.1 530 165.7 507.7 156 478 c 0
 144.8 443.7 144 399.6 144 369 c 0
51 407 m 0
 51 487 104 566 193 566 c 0
 219 566 243.8 560.4 261.1 543.9 c 1
 302.9 542.4 346.6 519 364 519 c 0
 406 519 473 525 514 569 c 1
 561 548 l 1
 150 -16 l 1
 96 -4 l 1
 462 497 l 1
 423 481 384 474 354 474 c 0
 332.5 474 303.3 482.7 284 492.8 c 1
 284.7 487.3 285 481.3 285 475 c 0
 285 376 231 297 152 297 c 0
 119.7 297 90.7 305.5 74 327 c 0
 60 345 51 370 51 407 c 0
EndSplineSet
EndChar

StartChar: parenleft
Encoding: 40 40 5
Width: 338
VWidth: 999
Flags: HW
VStem: 44 131<111.849 388.582>
LayerCount: 2
Fore
SplineSet
44 252 m 0
 44 422 156 605 275 707 c 1
 307 679 l 1
 275 643 175 518 175 255 c 0
 175 -8 274 -139 307 -177 c 1
 275 -204 l 1
 102 -40 44 117.9 44 252 c 0
EndSplineSet
Substitution2: "'c2sc' Versale nach Kapitaelchen 1" parenleft.sc
AlternateSubs2: "'aalt' Alle Alternativen zeigen 1" parenleft.sc
Substitution2: "'sinf' Wissenschaftliche Indices 1" parenleft.inferior
Substitution2: "'sups' Hochgestellte 1" parenleft.superior
Substitution2: "'case' Versalformen 1" parenleft.sc
EndChar

StartChar: parenright
Encoding: 41 41 6
Width: 338
VWidth: 999
Flags: HW
VStem: 163 131<115.418 392.151>
LayerCount: 2
Fore
SplineSet
294 252 m 0
 294 82 182 -101 63 -203 c 1
 31 -175 l 1
 63 -139 163 -14 163 249 c 0
 163 512 64 643 31 681 c 1
 63 708 l 1
 236 544 294 386.1 294 252 c 0
EndSplineSet
Substitution2: "'c2sc' Versale nach Kapitaelchen 1" parenright.sc
AlternateSubs2: "'aalt' Alle Alternativen zeigen 1" parenright.sc
Substitution2: "'sinf' Wissenschaftliche Indices 1" parenright.inferior
Substitution2: "'sups' Hochgestellte 1" parenright.superior
Substitution2: "'case' Versalformen 1" parenright.sc
Colour: ff00ff
EndChar

StartChar: asterisk
Encoding: 42 42 7
Width: 433
VWidth: 999
Flags: HMW
HStem: 571 69<91 156 274 348>
VStem: 173 78<622 713>
LayerCount: 2
Fore
SplineSet
197 566 m 1
 184 568 171 573 156 571 c 0
 111 563 75 563 75 608 c 0
 75 622 84 640 108 640 c 0
 142 640 159 607 203 588 c 1
 199 628 173 653 173 679 c 0
 173 700 193 718 211 718 c 0
 229 718 251 707 251 683 c 0
 251 656 228 618 226 588 c 1
 271 607 282 642 315 642 c 0
 346 642 354 618 354 608 c 0
 354 578 320 568 285 568 c 0
 266 568 249 568 231 565 c 1
 265 529 316 531 316 480 c 0
 316 462 298 451 284 451 c 0
 235 451 238 513 213 552 c 1
 188 507 202 451 143 451 c 0
 126 451 114 464 114 479 c 0
 114 533 164 528 197 566 c 1
EndSplineSet
EndChar

StartChar: plus
Encoding: 43 43 8
Width: 520
Flags: HW
HStem: 202 60<60 230 290 460> 413 20G<230 290>
VStem: 230 60<32 202 262 433>
LayerCount: 2
Fore
SplineSet
290 262 m 1
 460 262 l 1
 460 202 l 1
 290 202 l 1
 290 32 l 1
 230 32 l 1
 230 202 l 1
 60 202 l 1
 60 262 l 1
 230 262 l 1
 230 433 l 1
 290 433 l 1
 290 262 l 1
EndSplineSet
AlternateSubs2: "'aalt' Alle Alternativen zeigen 1" plus.superior plus.inferior uni2098
Substitution2: "'sinf' Wissenschaftliche Indices 1" plus.inferior
Substitution2: "'sups' Hochgestellte 1" plus.superior
EndChar

StartChar: slash
Encoding: 47 47 9
Width: 342
VWidth: 999
Flags: HW
HStem: 626 20G<245.277 312>
VStem: 15 297
DStem2: 15 -59 75 -59 0.318647 0.947874<19.1188 743.77>
LayerCount: 2
Fore
SplineSet
312 646 m 1
 75 -59 l 1
 15 -59 l 1
 252 646 l 1
 312 646 l 1
EndSplineSet
Ligature2: "'frac' Brueche 1" uni2215
AlternateSubs2: "'aalt' Alle Alternativen zeigen 1" uni2215
EndChar

StartChar: one
Encoding: 49 49 10
Width: 514
VWidth: 999
Flags: HW
HStem: -3 21G<220 298 298 379> 492 43<104 187.913>
VStem: 231 136<2.80533 495.947>
LayerCount: 2
Fore
SplineSet
367 189 m 2
 367 110 370 60 379 0 c 1
 377 -3 l 1
 377 -3 334 0 298 0 c 0
 261 0 221 -3 221 -3 c 1
 220 0 l 1
 229 56 231 111 231 189 c 2
 231 433 l 2
 231 469 230 498 213 498 c 0
 193 498 148 498 104 492 c 1
 102 535 l 1
 195 556 306 589 371 610 c 1
 375 610 378 610 378 605 c 0
 376 591 367 550 367 442 c 2
 367 189 l 2
EndSplineSet
AlternateSubs2: "'aalt' Alle Alternativen zeigen 1" one.oldstyle one.superior one.fitted
Substitution2: "'sups' Hochgestellte 1" one.superior
Substitution2: "'sinf' Wissenschaftliche Indices 1" one.inferior
Substitution2: "'pnum' Proportionalziffern 1" one.fitted
Substitution2: "'onum' Minuskelziffern 1" one.taboldstyle
EndChar

StartChar: two
Encoding: 50 50 11
Width: 514
VWidth: 487
Flags: HW
HStem: 0 100<194 454.031> 471 21G<66 126.5> 556 54<160.372 269.431>
VStem: 302 155<375.178 523.963>
LayerCount: 2
Fore
SplineSet
226 556 m 0
 177 556 143 530 110 471 c 1
 66 472 l 1
 45 551 l 1
 48 555 l 1
 73 577 162 610 234 610 c 0
 353 610 457 561 457 453 c 0
 457 377 407.9 338.1 351 283 c 2
 251 186 l 2
 230.2 165.8 194 116 194 100 c 1
 276 100 l 2
 376 100 404 105 462 109 c 1
 459 96 456 56 456 43 c 0
 456 30 459 9 462 -4 c 1
 387 -1 363 0 288 0 c 0
 212 0 136.1 -2.4 39 -4 c 1
 38 0 l 1
 38 59 68 105 166 205 c 1
 240 278 l 1
 299 338 302 390 302 454 c 0
 302 516 262 556 226 556 c 0
EndSplineSet
AlternateSubs2: "'aalt' Alle Alternativen zeigen 1" two.oldstyle two.superior two.fitted
Substitution2: "'sups' Hochgestellte 1" two.superior
Substitution2: "'sinf' Wissenschaftliche Indices 1" two.inferior
Substitution2: "'pnum' Proportionalziffern 1" two.fitted
Substitution2: "'onum' Minuskelziffern 1" two.taboldstyle
EndChar

StartChar: three
Encoding: 51 51 12
Width: 514
VWidth: 487
Flags: HW
HStem: -11 42<148.621 265.088> 292 40<153 238.195> 568 42<163.612 272.43>
VStem: 311 127<402.012 529.108> 315 152<96.8234 254.248>
LayerCount: 2
Fore
SplineSet
213 31 m 0
 248 31 315 61 315 177 c 0
 315 272 259 294 202 294 c 0
 193 294 165 294 153 292 c 1
 153 332 l 1
 255 339 311 383 311 466 c 0
 311 519 268 568 229 568 c 0
 158 568 146 529 113 470 c 1
 69 471 l 1
 48 550 l 1
 51 554 l 1
 76 576 150 610 238 610 c 0
 360 610 438 576 438 482 c 0
 438 398 382 348 309 329 c 1
 309 326 l 1
 383 319 467 276 467 180 c 0
 467 58 354.6 -11 211 -11 c 0
 117.6 -11 65 23 40 45 c 1
 36 50 l 1
 58 129 l 1
 102 130 l 1
 135 71 138 31 213 31 c 0
EndSplineSet
AlternateSubs2: "'aalt' Alle Alternativen zeigen 1" three.oldstyle three.superior three.fitted
Substitution2: "'sups' Hochgestellte 1" three.superior
Substitution2: "'sinf' Wissenschaftliche Indices 1" three.inferior
Substitution2: "'pnum' Proportionalziffern 1" three.fitted
Substitution2: "'onum' Minuskelziffern 1" three.taboldstyle
EndChar

StartChar: four
Encoding: 52 52 13
Width: 514
Flags: HW
HStem: -3 21G<251 322 322 396> 162 47<76.8153 261 385 495.734> 590 20G<249.33 387>
VStem: 261 124<2.47862 162 209 498>
LayerCount: 2
Fore
SplineSet
261 498 m 1
 208 426 126 293 76 209 c 1
 261 209 l 1
 261 498 l 1
261 162 m 1
 84 162 l 2
 60 162 56 164 51 169 c 2
 36 187 l 1
 30 198 17 206 17 210 c 0
 17 213 22 219 24 223 c 0
 106 347 216.7 513 282 610 c 1
 302 608.2 348.2 607.8 385 610 c 1
 387 608 l 1
 385.8 593.2 385 209 385 209 c 1
 483 209 l 2
 494 209 498 203 498 193 c 0
 498 181 483 162 469 162 c 2
 385 162 l 1
 386 98 389 53 396 0 c 1
 394 -3 l 1
 394 -3 354 0 322 0 c 0
 289 0 252 -3 252 -3 c 1
 251 0 l 1
 258 49 261 98 261 162 c 1
EndSplineSet
AlternateSubs2: "'aalt' Alle Alternativen zeigen 1" four.oldstyle four.superior four.fitted
Substitution2: "'sups' Hochgestellte 1" four.superior
Substitution2: "'sinf' Wissenschaftliche Indices 1" four.inferior
Substitution2: "'pnum' Proportionalziffern 1" four.fitted
Substitution2: "'onum' Minuskelziffern 1" four.taboldstyle
EndChar

StartChar: five
Encoding: 53 53 14
Width: 514
VWidth: 487
Flags: HW
HStem: -10 49<150.017 277.346> 327 53<155.543 282.882> 505 94<163.244 434.427> 511 99<162 245.242 249.509 295.837 299.432 435>
VStem: 324 142<112.507 282.815>
LayerCount: 2
Fore
SplineSet
242 -10 m 0
 147 -10 91 0 50 35 c 1
 47 40 l 1
 68 119 l 1
 102 120 l 1
 135 61 165 39 224 39 c 0
 269 39 324 80 324 178 c 0
 324 239.3 313.9 283.8 280 307.5 c 0
 264.7 318.2 243.2 327 218 327 c 0
 169.1 327 146.1 313.7 112.5 286 c 1
 88.5 293.5 l 1
 103.6 329.5 115 563.5 103 606 c 1
 105 609 l 1
 140 606 210 599 247 599 c 0
 300 599 387 604 444 610 c 1
 450 607 l 1
 435 511 l 1
 394 507 328 505 298 505 c 0
 252 505 196 509 162 513 c 1
 155 366 l 1
 177 374 219.5 380 274 380 c 0
 320 380 369.3 363.9 402.5 337.5 c 0
 439 308.5 466 258.9 466 206 c 0
 466 76 362 -10 242 -10 c 0
EndSplineSet
AlternateSubs2: "'aalt' Alle Alternativen zeigen 1" five.oldstyle five.superior five.fitted
Substitution2: "'sups' Hochgestellte 1" five.superior
Substitution2: "'sinf' Wissenschaftliche Indices 1" five.inferior
Substitution2: "'pnum' Proportionalziffern 1" five.fitted
Substitution2: "'onum' Minuskelziffern 1" five.taboldstyle
EndChar

StartChar: six
Encoding: 54 54 15
Width: 514
Flags: HW
HStem: -10 39<224.347 310.848> 315 50<204.23 295.75> 569 41<339.203 447.96>
VStem: 44 126<115.719 300.126> 343 134<109.662 262.764>
LayerCount: 2
Fore
SplineSet
171 289 m 1
 170 278 170 253 170 242 c 0
 170 68 225 29 275 29 c 0
 311 29 343 78 343 186 c 0
 343 245.5 303 315 245 315 c 0
 227 315 209.5 312.5 171 289 c 1
450 569 m 1
 393 566 324 557 265 509 c 0
 217.9 470.7 184 402.5 176.5 330.5 c 1
 212.5 349.5 255 362 279 365 c 1
 442.5 361.5 477 253 477 204 c 0
 477 115.5 419 -10 263 -10 c 0
 162 -10 44 32 44 246 c 0
 44 342 75.7 447.2 152 513 c 0
 228 578.5 303 605.5 444 610 c 1
 451.8 600.4 453.1 581.2 450 569 c 1
EndSplineSet
AlternateSubs2: "'aalt' Alle Alternativen zeigen 1" six.oldstyle six.superior six.fitted
Substitution2: "'sups' Hochgestellte 1" six.superior
Substitution2: "'sinf' Wissenschaftliche Indices 1" six.inferior
Substitution2: "'pnum' Proportionalziffern 1" six.fitted
Substitution2: "'onum' Minuskelziffern 1" six.taboldstyle
EndChar

StartChar: seven
Encoding: 55 55 16
Width: 514
VWidth: 487
Flags: HMW
HStem: -13 22G<144 235> 511 89<120 359>
LayerCount: 2
Fore
SplineSet
375 496 m 1
 316 496 207 488 79 481 c 1
 81 496 84 540 84 555 c 0
 84 570 81 594 79 609 c 1
 121 603 250 599 399 599 c 0
 430 599 448 603 463 607 c 1
 477 587 l 1
 365 315 308 161 251 -9 c 1
 133 -13 l 1
 130 -6 l 1
 194 139 300 310 375 496 c 1
EndSplineSet
AlternateSubs2: "'aalt' Alle Alternativen zeigen 1" seven.oldstyle seven.superior seven.fitted
Substitution2: "'sups' Hochgestellte 1" seven.superior
Substitution2: "'sinf' Wissenschaftliche Indices 1" seven.inferior
Substitution2: "'pnum' Proportionalziffern 1" seven.fitted
Substitution2: "'onum' Minuskelziffern 1" seven.taboldstyle
EndChar

StartChar: nine
Encoding: 57 57 17
Width: 514
VWidth: 487
Flags: HW
HStem: -10 41<74.0399 182.797> 235 50<226.25 317.77> 571 39<211.152 297.653>
VStem: 45 134<337.236 490.338> 352 126<299.874 484.281>
LayerCount: 2
Fore
SplineSet
351 311 m 1
 352 322 352 347 352 358 c 0
 352 532 297 571 247 571 c 0
 211 571 179 522 179 414 c 0
 179 354.5 219 285 277 285 c 0
 295 285 312.5 287.5 351 311 c 1
72 31 m 1
 129 34 198 43 257 91 c 0
 304.1 129.3 338 197.5 345.5 269.5 c 1
 309.5 250.5 267 238 243 235 c 1
 79.5 238.5 45 347 45 396 c 0
 45 484.5 103 610 259 610 c 0
 360 610 478 568 478 354 c 0
 478 258 446.3 152.8 370 87 c 0
 294 21.5 219 -5.5 78 -10 c 1
 70.2 -0.4 68.9 18.8 72 31 c 1
EndSplineSet
AlternateSubs2: "'aalt' Alle Alternativen zeigen 1" nine.oldstyle nine.superior nine.fitted
Substitution2: "'sups' Hochgestellte 1" nine.superior
Substitution2: "'sinf' Wissenschaftliche Indices 1" nine.inferior
Substitution2: "'pnum' Proportionalziffern 1" nine.fitted
Substitution2: "'onum' Minuskelziffern 1" nine.taboldstyle
Colour: ff00ff
EndChar

StartChar: colon
Encoding: 58 58 18
Width: 253
VWidth: 999
Flags: HW
HStem: 0 141<92.5841 173.231> 291 141<92.5841 173.231>
VStem: 61 142<27.3387 109.518 318.339 400.518>
LayerCount: 2
Fore
SplineSet
61 359 m 1
 61 364 l 1
 74 397 92 417 130 432 c 1
 134 432 l 1
 171 419 190 400 203 364 c 1
 203 359 l 1
 189 318 170 300 134 291 c 1
 130 291 l 1
 89 300 72 317 61 359 c 1
61 68 m 1
 61 73 l 1
 74 106 92 126 130 141 c 1
 134 141 l 1
 171 128 190 109 203 73 c 1
 203 68 l 1
 189 27 170 9 134 0 c 1
 130 0 l 1
 89 9 72 26 61 68 c 1
EndSplineSet
Colour: ff00ff
EndChar

StartChar: less
Encoding: 60 60 19
Width: 512
Flags: HW
HStem: 408 20G<416 471>
DStem2: 42 272 153 240 0.939793 0.341743<93.3813 428.46> 153 240 42 208 0.939793 -0.341743<0 335.079>
LayerCount: 2
Fore
SplineSet
153 240 m 1
 471 134 l 1
 471 52 l 1
 42 208 l 1
 42 272 l 1
 471 428 l 1
 471 346 l 1
 153 240 l 1
EndSplineSet
EndChar

StartChar: equal
Encoding: 61 61 20
Width: 551
Flags: HW
HStem: 123 70<59 493> 271 70<59 493>
LayerCount: 2
Fore
SplineSet
493 193 m 1
 493 123 l 1
 59 123 l 1
 59 193 l 1
 493 193 l 1
493 341 m 1
 493 271 l 1
 59 271 l 1
 59 341 l 1
 493 341 l 1
EndSplineSet
AlternateSubs2: "'aalt' Alle Alternativen zeigen 1" equal.superior
Substitution2: "'sinf' Wissenschaftliche Indices 1" equal.inferior
Substitution2: "'sups' Hochgestellte 1" equal.superior
EndChar

StartChar: greater
Encoding: 62 62 21
Width: 512
Flags: HW
HStem: 408 20G<42 97>
LayerCount: 2
Fore
SplineSet
360 240 m 1
 42 346 l 1
 42 428 l 1
 471 272 l 1
 471 208 l 1
 42 52 l 1
 42 134 l 1
 360 240 l 1
EndSplineSet
Colour: ff00ff
EndChar

StartChar: question
Encoding: 63 63 22
Width: 464
VWidth: 487
Flags: HW
HStem: -20 141<164.584 245.231> 610 49<154.851 257.81>
VStem: 133 142<7.33871 89.5176> 177 66<176.069 309.679> 295 128<436.782 568.365>
LayerCount: 2
Fore
SplineSet
215 610 m 0
 159 610 118 561 92 516 c 1
 59 517 l 1
 43 593 l 1
 46 597 l 1
 70.5 617.5 151.5 659 224 659 c 0
 268.1 659 318.2 655.1 354 635 c 0
 401.1 608.6 423 559.7 423 508 c 0
 423 429 350 380 303 346 c 0
 274.1 324.6 243 302 243 228 c 2
 243 189 l 2
 243 182 218 174 210 174 c 0
 202 174 177 182 177 189 c 2
 177 230 l 2
 177 273 189.6 331.4 254 391 c 0
 294 428 295 467.7 295 504 c 0
 295 540 262 610 215 610 c 0
133 48 m 1
 133 53 l 1
 146 86 164 106 202 121 c 1
 206 121 l 1
 243 108 262 89 275 53 c 1
 275 48 l 1
 261 7 242 -11 206 -20 c 1
 202 -20 l 1
 161 -11 144 6 133 48 c 1
EndSplineSet
Colour: ff80cc
EndChar

StartChar: at
Encoding: 64 64 23
Width: 1068
Flags: HMW
HStem: -170 49<435.509 699.945> 19 42<663 767.608> 30 47<467.725 559.656> 377 38<534.462 633.144> 584 47<435.721 652.987>
VStem: 92 114<110.363 336.661> 337 117<88.8325 253.701> 865 105<193.312 386.348>
DStem2: 617 193 713 141 0.222927 0.974835<-83.5955 129.137>
LayerCount: 2
Fore
SplineSet
646 320 m 0
 646 355 622 377 597 377 c 0
 500.7 377 454 265.6 454 164 c 0
 454 117 463 77 510 77 c 0
 540 77 590 107 617 193 c 0
 627 226 646 296 646 320 c 0
700 75 m 0
 700 62 707 61 718 61 c 0
 755 61 865 129 865 273 c 0
 865 494 661 584 544 584 c 0
 389 584 206 459 206 228 c 0
 206 80 317 -121 561 -121 c 0
 638 -121 749 -97 811 -46 c 1
 823 -50 830 -72 832 -85 c 1
 768 -134 665 -170 542 -170 c 0
 305 -170 92 -7 92 221 c 0
 92 428 300 631 553 631 c 0
 779 631 970 476 970 287 c 0
 970 147 832 19 698 19 c 0
 628 19 610 55 610 76 c 1
 569 38 498 30 474 30 c 0
 358 30 337 117 337 158 c 0
 337 303 469 415 584 415 c 0
 632 415 691 398 708 377 c 1
 745 410 l 1
 772 399 l 1
 713 141 l 2
 707.1 115 700 86 700 75 c 0
EndSplineSet
EndChar

StartChar: A
Encoding: 65 65 24
Width: 701
Flags: HMW
HStem: -3 21G<26 70.5 115 128.893 503.999 515.5 654 670.5> 221 53<223.642 411.509> 638 20G<267 451>
DStem2: 20 -3 200.278 219.172 0.407548 0.913184<44.0152 286.317 337.696 574.92> 405 658 323.043 494 0.382928 -0.923778<120.116 356.239>
AnchorPoint: "unten_punkt" 272 -108 basechar 0
AnchorPoint: "unten_anhang" 60 8 basechar 0
AnchorPoint: "top_akzent" 344 798 basechar 0
AnchorPoint: "top_punkt" 344 700 basechar 0
LayerCount: 2
Fore
SplineSet
411.5 275.1 m 1
 387.3 338 358.7 411 323 494 c 1
 317.1 494 l 1
 223.6 275.9 l 1
 255.3 275.5 299.1 274 328 274 c 0
 351.7 274 383.1 274.5 411.5 275.1 c 1
200.3 219.2 m 1
 166.2 135.1 136.8 56.2 121 -3 c 1
 109 0 87 0 76 0 c 0
 65 0 32 0 20 -3 c 1
 121 218 219 436 315 658 c 1
 405 658 l 1
 491 439 629 98 679 -3 c 1
 662 0 605 0 588 0 c 0
 571 0 524 0 507 -3 c 1
 501 18.7 479.3 93.7 432.5 219.7 c 1
 399.8 220.4 365.1 221 333 221 c 0
 297.3 221 238.3 220.1 200.3 219.2 c 1
EndSplineSet
Position2: "'cpsp' Versalabstaende 1" dx=2 dy=0 dh=5 dv=0
Substitution2: "'c2sc' Versale nach Kapitaelchen 1" a.sc
EndChar

StartChar: B
Encoding: 66 66 25
Width: 675
VWidth: 999
Flags: HW
HStem: -3 53<215.709 439.082> 322 53<245 401.023> 595 53<214.342 397.138>
VStem: 103 142<61.1856 322 375 585.479> 426 149<431.082 565.301> 473 161<105.896 265.022>
AnchorPoint: "unten_punkt" 288 -108 basechar 0
AnchorPoint: "unten_anhang" 270 0 basechar 0
AnchorPoint: "top_punkt" 302 700 basechar 0
AnchorPoint: "top_akzent" 301 798 basechar 0
LayerCount: 2
Fore
SplineSet
245 550 m 2
 245 375 l 1
 323 375 l 2
 406 375 426 408 426 481 c 0
 426 568.3 392 595 336 595 c 0
 255 595 245 583 245 550 c 2
245 322 m 1
 245 97 l 2
 245 64 262 50 332 50 c 0
 466 50 473 96 473 165 c 0
 473 236.2 455 322 338 322 c 2
 245 322 l 1
177 645 m 0
 240 645 304 648 339 648 c 0
 525 648 575 560 575 493 c 0
 575 438 523 385 472 360 c 1
 559 335 634 280 634 184 c 0
 634 98 560 -3 361 -3 c 0
 272 -3 249 0 177 0 c 0
 142 0 92 -3 92 -3 c 1
 91 0 l 1
 99 54 103 125 103 200 c 2
 103 445 l 2
 103 520 99 588 91 645 c 1
 93 648 l 1
 93 648 143 645 177 645 c 0
EndSplineSet
Position2: "'cpsp' Versalabstaende 1" dx=2 dy=0 dh=5 dv=0
Substitution2: "'c2sc' Versale nach Kapitaelchen 1" b.sc
EndChar

StartChar: C
Encoding: 67 67 26
Width: 691
VWidth: 999
Flags: HW
HStem: -10 60<329.73 503.017> 602 56<312.155 487.312>
VStem: 37 163<216.639 441.231>
AnchorPoint: "unten_punkt" 389 -110 basechar 0
AnchorPoint: "unten_anhang" 382 -7 basechar 0
AnchorPoint: "top_punkt" 386 700 basechar 0
AnchorPoint: "top_akzent" 386 798 basechar 0
LayerCount: 2
Fore
SplineSet
406 658 m 0
 528 658 624 613 624 613 c 1
 626 610 l 1
 614.2 560.7 609.6 531 606 480 c 1
 576 479 l 1
 535 561 482 602 392 602 c 0
 310 602 200 537 200 334 c 0
 200 193 292 50 401 50 c 0
 494 50 539 67 614 139 c 1
 638 105 l 1
 554 18 471.2 -10 382 -10 c 0
 297.2 -10 219.6 15.2 164 56 c 0
 78.7 118.6 37 217.5 37 315 c 0
 37 424.9 82.1 522.3 161 584 c 0
 223.5 632.8 315 658 406 658 c 0
EndSplineSet
Position2: "'cpsp' Versalabstaende 1" dx=2 dy=0 dh=5 dv=0
Substitution2: "'c2sc' Versale nach Kapitaelchen 1" c.sc
EndChar

StartChar: D
Encoding: 68 68 27
Width: 771
VWidth: 999
Flags: HW
HStem: -2 53<216.409 485.935> 595 53<217.556 448.867>
VStem: 101 144<64.2018 579.471> 563 165<184.471 417.062>
LayerCount: 2
Fore
SplineSet
245 101 m 2
 245 69 260 51 358 51 c 0
 499 51 563 82 563 284 c 0
 563 438 549 595 333 595 c 0
 284 595 245 580 245 545 c 2
 245 101 l 2
175 645 m 0
 251 645 295 648 371 648 c 0
 563 648 728 494 728 308 c 0
 728 62 530 -2 389 -2 c 0
 286 -2 258 0 175 0 c 0
 140 0 90 -3 90 -3 c 1
 89 0 l 1
 97 54 101 125 101 200 c 2
 101 445 l 2
 101 520 97 588 89 645 c 1
 91 648 l 1
 91 648 141 645 175 645 c 0
EndSplineSet
Position2: "'cpsp' Versalabstaende 1" dx=2 dy=0 dh=5 dv=0
Substitution2: "'c2sc' Versale nach Kapitaelchen 1" d.sc
EndChar

StartChar: E
Encoding: 69 69 28
Width: 584
VWidth: 999
Flags: HW
HStem: 0 73<244.435 487.022> 311 61<240 463.736> 577 68<244.435 479.755>
VStem: 96 144<74.1699 311 372 575.826>
AnchorPoint: "unten_anhang" 299 4 basechar 0
AnchorPoint: "unten_punkt" 299 -107 basechar 0
AnchorPoint: "top_punkt" 300 700 basechar 0
AnchorPoint: "top_akzent" 303 805 basechar 0
LayerCount: 2
Fore
SplineSet
240 200 m 2
 240 183 241 97 248 73 c 1
 382 73 534 95 534 95 c 1
 536 91 l 1
 535 83 534 46 534 36 c 0
 534 26 535 14 536 0 c 1
 534 -3 l 1
 518 -1 495 0 474 0 c 2
 170 0 l 2
 135 0 85 -3 85 -3 c 1
 84 0 l 1
 92 54 96 125 96 200 c 2
 96 445 l 2
 96 520 92 588 84 645 c 1
 86 648 l 1
 86 648 136 645 170 645 c 2
 464 645 l 2
 485 645 508 646 524 648 c 1
 526 645 l 1
 525 631 524 618 524 610 c 0
 524 601 525 577 526 569 c 1
 524 565 l 1
 524 565 382 577 248 577 c 1
 241 553 240 462 240 445 c 2
 240 372 l 1
 358 372 408 377 467 382 c 1
 470 379 l 1
 468 370 467 351 467 342 c 0
 467 333 468 313 470 304 c 1
 467 301 l 1
 398 308 288 311 240 311 c 1
 240 200 l 2
EndSplineSet
Position2: "'cpsp' Versalabstaende 1" dx=2 dy=0 dh=5 dv=0
Substitution2: "'c2sc' Versale nach Kapitaelchen 1" e.sc
EndChar

StartChar: F
Encoding: 70 70 29
Width: 539
VWidth: 999
Flags: HW
HStem: -3 21G<86 172 172 252> 311 61<242 465.736> 577 68<246.435 481.755>
VStem: 98 144<2.67992 311 372 575.826>
AnchorPoint: "unten_anhang" 155 -1 basechar 0
AnchorPoint: "unten_punkt" 221 -111 basechar 0
AnchorPoint: "top_punkt" 307 700 basechar 0
AnchorPoint: "top_akzent" 306 798 basechar 0
LayerCount: 2
Fore
SplineSet
463 645 m 2
 487 645 510 646 526 648 c 1
 528 645 l 1
 527 631 526 618 526 610 c 0
 526 601 527 577 528 569 c 1
 526 565 l 1
 526 565 384 577 250 577 c 1
 243 553 242 462 242 445 c 2
 242 372 l 1
 360 372 410 377 469 382 c 1
 472 379 l 1
 470 370 469 351 469 342 c 0
 469 333 470 313 472 304 c 1
 469 301 l 1
 400 308 290 311 242 311 c 1
 242 200 l 2
 242 125 244 57 252 0 c 1
 250 -3 l 1
 250 -3 206 0 172 0 c 0
 137 0 87 -3 87 -3 c 1
 86 0 l 1
 94 54 98 125 98 200 c 2
 98 445 l 2
 98 520 94 588 86 645 c 1
 88 648 l 1
 88 648 138 645 172 645 c 2
 463 645 l 2
EndSplineSet
Position2: "'cpsp' Versalabstaende 1" dx=2 dy=0 dh=5 dv=0
Substitution2: "'c2sc' Versale nach Kapitaelchen 1" f.sc
EndChar

StartChar: G
Encoding: 71 71 30
Width: 760
VWidth: 999
Flags: HW
HStem: -10 55<337.32 524.526> 602 56<309.401 496.285>
VStem: 39 158<214.24 438.594> 546 138<83.3557 304.327>
AnchorPoint: "unten_anhang" 381 2 basechar 0
AnchorPoint: "unten_punkt" 381 -111 basechar 0
AnchorPoint: "top_punkt" 379 700 basechar 0
AnchorPoint: "top_akzent" 379 798 basechar 0
LayerCount: 2
Fore
SplineSet
546 117 m 2
 546 192 544 250 536 307 c 1
 538 310 l 1
 538 310 586 307 620 307 c 0
 655 307 693 310 693 310 c 1
 694 307 l 1
 686 254 684 212 684 137 c 0
 684 104.6 687.9 90.5 694 83 c 1
 694 80 l 1
 626.5 23.4 513.5 -10 397 -10 c 0
 314.7 -10 237.8 7.6 178 48 c 0
 91.8 106.3 39 204.8 39 307 c 0
 39 420 80.4 515.5 155 575 c 0
 224 630 312 658 412 658 c 0
 534 658 651 613 651 613 c 1
 653 610 l 1
 641.2 560.7 636.6 531 633 480 c 1
 603 479 l 1
 562 561 476.1 602 398 602 c 0
 263 602 197 488 197 327 c 0
 197 195 284 45 420 45 c 0
 474 45 512 51 546 83 c 1
 546 117 l 2
EndSplineSet
Position2: "'cpsp' Versalabstaende 1" dx=2 dy=0 dh=5 dv=0
Substitution2: "'c2sc' Versale nach Kapitaelchen 1" g.sc
EndChar

StartChar: grave
Encoding: 96 96 31
Width: 392
VWidth: 999
Flags: HW
LayerCount: 2
Fore
SplineSet
198 702 m 1
 267 578 l 2
 271 571 276 560 276 552 c 0
 276 543 261 536 252 536 c 0
 244 536 231.1 541.1 214 556 c 2
 93 661 l 1
 95 672 l 1
 103 681 142 704 178 704 c 0
 183 704 194 703 198 702 c 1
EndSplineSet
Substitution2: "'case' Versalformen 1" grave.cap
Colour: ff00ff
EndChar

StartChar: ograve
Encoding: 242 242 32
Width: 566
VWidth: 999
Flags: HW
HStem: -10 50<234.308 349.488> 389 50<221.27 336.971>
VStem: 41 142<105.349 313.203> 383 142<109.544 320.837>
LayerCount: 2
Fore
SplineSet
256 674 m 1
 325 550 l 2
 329 543 334 532 334 524 c 0
 334 515 319 508 310 508 c 0
 302 508 289.1 513.1 272 528 c 2
 151 633 l 1
 153 644 l 1
 161 653 200 676 236 676 c 0
 241 676 252 675 256 674 c 1
41 205 m 0
 41 360 142 439 285 439 c 0
 454 439 525 340 525 214 c 0
 525 75.8 436 -10 283 -10 c 0
 134 -10 41 72 41 205 c 0
278 389 m 0
 192 389 183 315 183 228 c 0
 183 151 193 40 297 40 c 0
 342 40 383 72 383 187 c 0
 383 326 363 389 278 389 c 0
EndSplineSet
Substitution2: "'smcp' Gemeine nach Kapitaelchen 1" ograve.sc
AlternateSubs2: "'aalt' Alle Alternativen zeigen 1" ograve.sc
Colour: ff00ff
EndChar

StartChar: oacute
Encoding: 243 243 33
Width: 566
VWidth: 999
Flags: HW
HStem: -10 50<234.308 349.488> 389 50<221.27 336.971> 507 171
VStem: 41 142<105.349 313.203> 213 184 383 142<109.544 320.837>
LayerCount: 2
Fore
SplineSet
304 676 m 1
 307 677 315 678 320 678 c 0
 350 678 379 664 387 654 c 1
 397 631 l 1
 277 523 l 2
 263 511 244 507 234 507 c 0
 226 507 213 515 213 521 c 0
 213 527 215 536 221 545 c 2
 304 676 l 1
41 205 m 0
 41 360 142 439 285 439 c 0
 454 439 525 340 525 214 c 0
 525 75.8 436 -10 283 -10 c 0
 134 -10 41 72 41 205 c 0
278 389 m 0
 192 389 183 315 183 228 c 0
 183 151 193 40 297 40 c 0
 342 40 383 72 383 187 c 0
 383 326 363 389 278 389 c 0
EndSplineSet
Substitution2: "'smcp' Gemeine nach Kapitaelchen 1" oacute.sc
AlternateSubs2: "'aalt' Alle Alternativen zeigen 1" oacute.sc
Colour: ff00ff
EndChar

StartChar: ocircumflex
Encoding: 244 244 34
Width: 566
VWidth: 999
Flags: HW
HStem: -10 50<234.308 349.488> 389 50<221.27 336.971>
VStem: 41 142<105.349 313.203> 383 142<109.544 320.837>
LayerCount: 2
Fore
SplineSet
433 522 m 1
 406 498 l 1
 358 521 326 538 288 575 c 1
 246 536 215 521 171 498 c 1
 144 522 l 1
 227 608 235 620 269 668 c 1
 309 668 l 1
 347 614 359 596 433 522 c 1
41 205 m 0
 41 360 142 439 285 439 c 0
 454 439 525 340 525 214 c 0
 525 75.8 436 -10 283 -10 c 0
 134 -10 41 72 41 205 c 0
278 389 m 0
 192 389 183 315 183 228 c 0
 183 151 193 40 297 40 c 0
 342 40 383 72 383 187 c 0
 383 326 363 389 278 389 c 0
EndSplineSet
Substitution2: "'smcp' Gemeine nach Kapitaelchen 1" ocircumflex.sc
AlternateSubs2: "'aalt' Alle Alternativen zeigen 1" ocircumflex.sc
Colour: ff00ff
EndChar

StartChar: otilde
Encoding: 245 245 35
Width: 566
VWidth: 999
Flags: HW
HStem: -10 50<234.308 349.488> 389 50<221.27 336.971> 513 66<298.778 385.61> 565 67<176.161 268.179>
VStem: 41 142<105.349 313.203> 130 36<521.639 551.509> 383 142<109.544 320.837> 401 36<598.092 625.75>
LayerCount: 2
Fore
SplineSet
352 579 m 0
 373 579 388 597 401 633 c 1
 437 624 l 1
 423 560 391 513 340 513 c 0
 302 513 288 525 271 541 c 0
 254 557 233 565 215 565 c 0
 186 565 174 547 166 516 c 1
 130 523 l 1
 145 587 170 632 218 632 c 0
 254 632 276 618 297 602 c 0
 318 587 333 579 352 579 c 0
41 205 m 0
 41 360 142 439 285 439 c 0
 454 439 525 340 525 214 c 0
 525 75.8 436 -10 283 -10 c 0
 134 -10 41 72 41 205 c 0
278 389 m 0
 192 389 183 315 183 228 c 0
 183 151 193 40 297 40 c 0
 342 40 383 72 383 187 c 0
 383 326 363 389 278 389 c 0
EndSplineSet
Substitution2: "'smcp' Gemeine nach Kapitaelchen 1" otilde.sc
AlternateSubs2: "'aalt' Alle Alternativen zeigen 1" otilde.sc
Colour: ff00ff
EndChar

StartChar: odieresis
Encoding: 246 246 36
Width: 566
VWidth: 999
Flags: HW
HStem: -10 50<234.308 349.488> 389 50<221.27 336.971> 509 125<135.107 228.707 344.293 437.893>
VStem: 41 142<105.349 313.203> 120 124<524.537 618.707> 329 124<524.537 618.707> 383 142<109.544 320.837>
LayerCount: 2
Fore
SplineSet
329 571 m 0
 329 606 357 634 392 634 c 0
 425 634 453 606 453 571 c 0
 453 538 425 509 392 509 c 0
 357 509 329 538 329 571 c 0
120 571 m 0
 120 606 148 634 181 634 c 0
 216 634 244 606 244 571 c 0
 244 538 216 509 181 509 c 0
 148 509 120 538 120 571 c 0
41 205 m 0
 41 360 142 439 285 439 c 0
 454 439 525 340 525 214 c 0
 525 75.8 436 -10 283 -10 c 0
 134 -10 41 72 41 205 c 0
278 389 m 0
 192 389 183 315 183 228 c 0
 183 151 193 40 297 40 c 0
 342 40 383 72 383 187 c 0
 383 326 363 389 278 389 c 0
EndSplineSet
Substitution2: "'smcp' Gemeine nach Kapitaelchen 1" odieresis.sc
AlternateSubs2: "'aalt' Alle Alternativen zeigen 1" odieresis.sc
Colour: ff00ff
EndChar

StartChar: divide
Encoding: 247 247 37
Width: 545
VWidth: 999
Flags: HW
HStem: 15.2 118.2<234.731 302.325> 198 70<72 472> 333.2 118.2<234.731 302.325>
VStem: 208.3 119<38.1509 107.028> 208.3 119<356.151 425.028>
LayerCount: 2
Fore
SplineSet
208.3 390.2 m 1
 208.3 394.4 l 1
 219.2 422.1 234.3 438.8 266.1 451.4 c 1
 269.4 451.4 l 1
 300.4 440.5 316.4 424.6 327.3 394.4 c 1
 327.3 390.2 l 1
 315.6 355.8 299.6 340.7 269.4 333.2 c 1
 266.1 333.2 l 1
 231.7 340.7 217.5 355 208.3 390.2 c 1
208.3 72.2 m 1
 208.3 76.4 l 1
 219.2 104.1 234.3 120.8 266.1 133.4 c 1
 269.4 133.4 l 1
 300.4 122.5 316.4 106.6 327.3 76.4 c 1
 327.3 72.2 l 1
 315.6 37.8 299.6 22.7 269.4 15.2 c 1
 266.1 15.2 l 1
 231.7 22.7 217.5 37 208.3 72.2 c 1
472 268 m 1
 472 198 l 1
 72 198 l 1
 72 268 l 1
 472 268 l 1
EndSplineSet
Colour: ff00ff
EndChar

StartChar: ugrave
Encoding: 249 249 38
Width: 591
VWidth: 999
Flags: HW
HStem: -10 77<154.5 299.051> -3 21<385 394.667 512.5 521> 412 20<65 137 137 213 365 435 435 513>
VStem: 71 132<78.6508 426.332> 372 132<116.229 426.381>
LayerCount: 2
Fore
SplineSet
248 674 m 1
 317 550 l 2
 321 543 326 532 326 524 c 0
 326 515 311 508 302 508 c 0
 294 508 281.1 513.1 264 528 c 2
 143 633 l 1
 145 644 l 1
 153 653 192 676 228 676 c 0
 233 676 244 675 248 674 c 1
372 64 m 1
 316 4 245 -10 204 -10 c 0
 105 -10 70 57 71 126 c 2
 73 249 l 2
 75 321 71 372 65 429 c 1
 67 432 l 1
 67 432 103 429 137 429 c 0
 172 429 212 432 212 432 c 1
 213 429 l 1
 206 379 207.5 324 205 249 c 2
 203 159 l 2
 201.2 77 230 67 260 67 c 0
 304.8 67 372 111 372 169 c 2
 372 249 l 2
 372 325 372 373 365 429 c 1
 367 432 l 1
 367 432 401 429 435 429 c 0
 470 429 512 432 512 432 c 1
 513 429 l 1
 504 376 504 324 504 249 c 2
 504 192 l 2
 504 117 513 43 521 0 c 1
 519 -3 l 1
 506 -1 458.1 0 445.5 0 c 0
 431 0 401.3 -1.3 388 -3 c 0
 382 -3 379 -2 379 0 c 2
 374 64 l 1
 372 64 l 1
EndSplineSet
Substitution2: "'smcp' Gemeine nach Kapitaelchen 1" ugrave.sc
AlternateSubs2: "'aalt' Alle Alternativen zeigen 1" ugrave.sc
Colour: ff00ff
EndChar

StartChar: uacute
Encoding: 250 250 39
Width: 591
VWidth: 999
Flags: HW
HStem: -10 77<154.5 299.051> -3 21<385 394.667 512.5 521> 412 20<65 137 137 213 365 435 435 513> 507 171
VStem: 71 132<78.6508 426.332> 207 184 372 132<116.229 426.381>
LayerCount: 2
Fore
SplineSet
298 676 m 1
 301 677 309 678 314 678 c 0
 344 678 373 664 381 654 c 1
 391 631 l 1
 271 523 l 2
 257 511 238 507 228 507 c 0
 220 507 207 515 207 521 c 0
 207 527 209 536 215 545 c 2
 298 676 l 1
372 64 m 1
 316 4 245 -10 204 -10 c 0
 105 -10 70 57 71 126 c 2
 73 249 l 2
 75 321 71 372 65 429 c 1
 67 432 l 1
 67 432 103 429 137 429 c 0
 172 429 212 432 212 432 c 1
 213 429 l 1
 206 379 207.5 324 205 249 c 2
 203 159 l 2
 201.2 77 230 67 260 67 c 0
 304.8 67 372 111 372 169 c 2
 372 249 l 2
 372 325 372 373 365 429 c 1
 367 432 l 1
 367 432 401 429 435 429 c 0
 470 429 512 432 512 432 c 1
 513 429 l 1
 504 376 504 324 504 249 c 2
 504 192 l 2
 504 117 513 43 521 0 c 1
 519 -3 l 1
 506 -1 458.1 0 445.5 0 c 0
 431 0 401.3 -1.3 388 -3 c 0
 382 -3 379 -2 379 0 c 2
 374 64 l 1
 372 64 l 1
EndSplineSet
Substitution2: "'smcp' Gemeine nach Kapitaelchen 1" uacute.sc
AlternateSubs2: "'aalt' Alle Alternativen zeigen 1" uacute.sc
Colour: ff00ff
EndChar

StartChar: ucircumflex
Encoding: 251 251 40
Width: 591
VWidth: 999
Flags: HW
HStem: -10 77<154.5 299.051> -3 21<385 394.667 512.5 521> 412 20<65 137 137 213 365 435 435 513>
VStem: 71 132<78.6508 426.332> 372 132<116.229 426.381>
LayerCount: 2
Fore
SplineSet
443 522 m 1
 416 498 l 1
 368 521 336 538 298 575 c 1
 256 536 225 521 181 498 c 1
 154 522 l 1
 237 608 245 620 279 668 c 1
 319 668 l 1
 357 614 369 596 443 522 c 1
372 64 m 1
 316 4 245 -10 204 -10 c 0
 105 -10 70 57 71 126 c 2
 73 249 l 2
 75 321 71 372 65 429 c 1
 67 432 l 1
 67 432 103 429 137 429 c 0
 172 429 212 432 212 432 c 1
 213 429 l 1
 206 379 207.5 324 205 249 c 2
 203 159 l 2
 201.2 77 230 67 260 67 c 0
 304.8 67 372 111 372 169 c 2
 372 249 l 2
 372 325 372 373 365 429 c 1
 367 432 l 1
 367 432 401 429 435 429 c 0
 470 429 512 432 512 432 c 1
 513 429 l 1
 504 376 504 324 504 249 c 2
 504 192 l 2
 504 117 513 43 521 0 c 1
 519 -3 l 1
 506 -1 458.1 0 445.5 0 c 0
 431 0 401.3 -1.3 388 -3 c 0
 382 -3 379 -2 379 0 c 2
 374 64 l 1
 372 64 l 1
EndSplineSet
Substitution2: "'smcp' Gemeine nach Kapitaelchen 1" ucircumflex.sc
AlternateSubs2: "'aalt' Alle Alternativen zeigen 1" ucircumflex.sc
Colour: ff00ff
EndChar

StartChar: ebreve
Encoding: 277 277 41
Width: 500
VWidth: 999
Flags: HW
HStem: -10 76<219.536 361.445> 230 45<172 326> 394 50<209.436 302.919> 523 70<188.939 331.578>
VStem: 40 128<118.935 230 275 309.906> 121 33<633.075 669.182> 326 127<259 359.972> 369 32<634.158 669.281>
LayerCount: 2
Fore
SplineSet
154 681 m 1
 156 627 199 593 262 593 c 0
 309 593 366 617 369 681 c 1
 401 666 l 1
 391 561 313 523 262 523 c 0
 181 523 128 585 121 666 c 1
 154 681 l 1
172 275 m 1
 324 275 l 1
 326 277 326 290 326 296 c 0
 326 376 284 394 257 394 c 0
 245.7 394 218.9 388.8 203 365 c 0
 189.4 344.7 173 310 172 275 c 1
442 129 m 1
 452 129 457 111 457 98 c 1
 407 25 339 -10 270 -10 c 0
 198.9 -10 144.6 5.9 107 40 c 0
 64.2 78.8 40 143.5 40 202 c 0
 40 355 148.9 444 263 444 c 0
 410 444 453 351 453 266 c 0
 453 252 448 230 424 230 c 2
 168 230 l 1
 168 225 168 221 168 214 c 0
 168 91 231 66 309 66 c 0
 347 66 401 87 442 129 c 1
EndSplineSet
Colour: ff00ff
EndChar

StartChar: Edotaccent
Encoding: 278 278 42
Width: 584
VWidth: 999
Flags: HW
HStem: 0 73<244.435 487.022> 311 61<240 463.736> 577 68<244.435 479.755> 691 142<240.5 349.5>
VStem: 96 144<74.1699 311 372 575.826> 220 150<711.5 812.5>
LayerCount: 2
Fore
SplineSet
220 762 m 0
 220 802 253 833 295 833 c 0
 337 833 370 802 370 762 c 0
 370 722 337 691 295 691 c 0
 253 691 220 722 220 762 c 0
240 200 m 2
 240 183 241 97 248 73 c 1
 382 73 534 95 534 95 c 1
 536 91 l 1
 535 83 534 46 534 36 c 0
 534 26 535 14 536 0 c 1
 534 -3 l 1
 518 -1 495 0 474 0 c 2
 170 0 l 2
 135 0 85 -3 85 -3 c 1
 84 0 l 1
 92 54 96 125 96 200 c 2
 96 445 l 2
 96 520 92 588 84 645 c 1
 86 648 l 1
 86 648 136 645 170 645 c 2
 464 645 l 2
 485 645 508 646 524 648 c 1
 526 645 l 1
 525 631 524 618 524 610 c 0
 524 601 525 577 526 569 c 1
 524 565 l 1
 524 565 382 577 248 577 c 1
 241 553 240 462 240 445 c 2
 240 372 l 1
 358 372 408 377 467 382 c 1
 470 379 l 1
 468 370 467 351 467 342 c 0
 467 333 468 313 470 304 c 1
 467 301 l 1
 398 308 288 311 240 311 c 1
 240 200 l 2
EndSplineSet
Position2: "'cpsp' Versalabstaende 1" dx=2 dy=0 dh=5 dv=0
Colour: ff00ff
EndChar

StartChar: edotaccent
Encoding: 279 279 43
Width: 500
VWidth: 999
Flags: HW
HStem: -10 76<219.536 361.445> 230 45<172 326> 394 50<209.436 302.919> 536 142<191.5 300.5>
VStem: 40 128<118.935 230 275 309.906> 171 150<556.5 657.5> 326 127<259 359.972>
LayerCount: 2
Fore
SplineSet
171 607 m 0
 171 647 204 678 246 678 c 0
 288 678 321 647 321 607 c 0
 321 567 288 536 246 536 c 0
 204 536 171 567 171 607 c 0
172 275 m 1
 324 275 l 1
 326 277 326 290 326 296 c 0
 326 376 284 394 257 394 c 0
 245.7 394 218.9 388.8 203 365 c 0
 189.4 344.7 173 310 172 275 c 1
442 129 m 1
 452 129 457 111 457 98 c 1
 407 25 339 -10 270 -10 c 0
 198.9 -10 144.6 5.9 107 40 c 0
 64.2 78.8 40 143.5 40 202 c 0
 40 355 148.9 444 263 444 c 0
 410 444 453 351 453 266 c 0
 453 252 448 230 424 230 c 2
 168 230 l 1
 168 225 168 221 168 214 c 0
 168 91 231 66 309 66 c 0
 347 66 401 87 442 129 c 1
EndSplineSet
Colour: ff00ff
EndChar

StartChar: Eogonek
Encoding: 280 280 44
Width: 584
VWidth: 999
Flags: HW
HStem: -193 44<421.48 488.62> 0 73<244.435 487.022> 311 61<240 463.736> 577 68<244.435 479.755>
VStem: 96 144<74.1699 311 372 575.826> 331 86<-146.871 -45.1739>
LayerCount: 2
Fore
SplineSet
522 -141 m 1
 495 -174 460 -193 426 -193 c 0
 403.2 -193 379 -188 363 -177 c 0
 345.2 -164.7 331 -144 331 -117 c 0
 331 -58.4 360.2 -25.4 413.4 0 c 1
 170 0 l 2
 135 0 85 -3 85 -3 c 1
 84 0 l 1
 92 54 96 125 96 200 c 2
 96 445 l 2
 96 520 92 588 84 645 c 1
 86 648 l 1
 86 648 136 645 170 645 c 2
 464 645 l 2
 485 645 508 646 524 648 c 1
 526 645 l 1
 525 631 524 618 524 610 c 0
 524 601 525 577 526 569 c 1
 524 565 l 1
 524 565 382 577 248 577 c 1
 241 553 240 462 240 445 c 2
 240 372 l 1
 358 372 408 377 467 382 c 1
 470 379 l 1
 468 370 467 351 467 342 c 0
 467 333 468 313 470 304 c 1
 467 301 l 1
 398 308 288 311 240 311 c 1
 240 200 l 2
 240 183 241 97 248 73 c 1
 382 73 534 95 534 95 c 1
 536 91 l 1
 535 83 534 46 534 36 c 0
 534 26 535 14 536 0 c 1
 534 -3 l 1
 519.7 -1.2 499.8 -0.2 480.7 -0 c 1
 428.3 -8.3 417 -63.7 417 -100 c 0
 417 -121 423 -149 449 -149 c 0
 466 -149 486 -131 500 -116 c 1
 503 -117 l 1
 522 -141 l 1
EndSplineSet
Position2: "'cpsp' Versalabstaende 1" dx=2 dy=0 dh=5 dv=0
Substitution2: "'c2sc' Versale nach Kapitaelchen 1" eogonek.sc
Colour: ff80cc
EndChar

StartChar: eogonek
Encoding: 281 281 45
Width: 500
VWidth: 999
Flags: HW
HStem: -193 44<275.348 367.284> -10 76<219.536 361.445> 230 45<172 326> 394 50<209.436 302.919>
VStem: 40 128<118.935 230 275 309.906> 211 86<-147.208 -59.7294> 326 127<259 359.972>
LayerCount: 2
Fore
SplineSet
402 -141 m 1
 375 -174 334 -193 300 -193 c 0
 251 -193 211 -164 211 -117 c 0
 211 -77.5 242.9 -40.2 282.5 -9.6 c 1
 278.3 -9.9 274.2 -10 270 -10 c 0
 198.9 -10 144.6 5.9 107 40 c 0
 64.2 78.8 40 143.5 40 202 c 0
 40 355 148.9 444 263 444 c 0
 410 444 453 351 453 266 c 0
 453 252 448 230 424 230 c 2
 168 230 l 1
 168 225 168 221 168 214 c 0
 168 91 231 66 309 66 c 0
 347 66 401 87 442 129 c 1
 452 129 457 111 457 98 c 1
 438.6 71.2 417.9 49.5 395.5 32.8 c 1
 403 27 l 1
 342 -21 297 -53 297 -106 c 0
 297 -127 303 -149 329 -149 c 0
 346 -149 366 -131 380 -116 c 1
 383 -117 l 1
 402 -141 l 1
172 275 m 1
 324 275 l 1
 326 277 326 290 326 296 c 0
 326 376 284 394 257 394 c 0
 245.7 394 218.9 388.8 203 365 c 0
 189.4 344.7 173 310 172 275 c 1
EndSplineSet
AlternateSubs2: "'aalt' Alle Alternativen zeigen 1" eogonek.sc
Substitution2: "'smcp' Gemeine nach Kapitaelchen 1" eogonek.sc
Colour: ff00ff
EndChar

StartChar: Ecaron
Encoding: 282 282 46
Width: 584
VWidth: 999
Flags: HW
HStem: 0 73<244.435 487.022> 311 61<240 463.736> 577 68<244.435 479.755> 684 149
VStem: 96 144<74.1699 311 372 575.826> 148 295
LayerCount: 2
Fore
SplineSet
148 802 m 1
 164 833 l 1
 210 815 252 797 295 777 c 1
 337 797 381 815 427 833 c 1
 443 802 l 1
 398 766 349 723 310 684 c 1
 280 684 l 1
 241 725 192 765 148 802 c 1
240 200 m 2
 240 183 241 97 248 73 c 1
 382 73 534 95 534 95 c 1
 536 91 l 1
 535 83 534 46 534 36 c 0
 534 26 535 14 536 0 c 1
 534 -3 l 1
 518 -1 495 0 474 0 c 2
 170 0 l 2
 135 0 85 -3 85 -3 c 1
 84 0 l 1
 92 54 96 125 96 200 c 2
 96 445 l 2
 96 520 92 588 84 645 c 1
 86 648 l 1
 86 648 136 645 170 645 c 2
 464 645 l 2
 485 645 508 646 524 648 c 1
 526 645 l 1
 525 631 524 618 524 610 c 0
 524 601 525 577 526 569 c 1
 524 565 l 1
 524 565 382 577 248 577 c 1
 241 553 240 462 240 445 c 2
 240 372 l 1
 358 372 408 377 467 382 c 1
 470 379 l 1
 468 370 467 351 467 342 c 0
 467 333 468 313 470 304 c 1
 467 301 l 1
 398 308 288 311 240 311 c 1
 240 200 l 2
EndSplineSet
Position2: "'cpsp' Versalabstaende 1" dx=2 dy=0 dh=5 dv=0
Substitution2: "'c2sc' Versale nach Kapitaelchen 1" ecaron.sc
Colour: ff00ff
EndChar

StartChar: ecaron
Encoding: 283 283 47
Width: 500
VWidth: 999
Flags: HW
HStem: -10 76<219.536 361.445> 230 45<172 326> 394 50<209.436 302.919>
VStem: 40 128<118.935 230 275 309.906> 326 127<259 359.972>
LayerCount: 2
Fore
SplineSet
116 645 m 1
 143 664 l 1
 190 638 223 619 261 582 c 1
 303 621 334 638 378 664 c 1
 405 645 l 1
 323 559 310 542 276 494 c 1
 243 494 l 1
 205 548 190 571 116 645 c 1
172 275 m 1
 324 275 l 1
 326 277 326 290 326 296 c 0
 326 376 284 394 257 394 c 0
 245.7 394 218.9 388.8 203 365 c 0
 189.4 344.7 173 310 172 275 c 1
442 129 m 1
 452 129 457 111 457 98 c 1
 407 25 339 -10 270 -10 c 0
 198.9 -10 144.6 5.9 107 40 c 0
 64.2 78.8 40 143.5 40 202 c 0
 40 355 148.9 444 263 444 c 0
 410 444 453 351 453 266 c 0
 453 252 448 230 424 230 c 2
 168 230 l 1
 168 225 168 221 168 214 c 0
 168 91 231 66 309 66 c 0
 347 66 401 87 442 129 c 1
EndSplineSet
AlternateSubs2: "'aalt' Alle Alternativen zeigen 1" ecaron.sc
Substitution2: "'smcp' Gemeine nach Kapitaelchen 1" ecaron.sc
Colour: ff00ff
EndChar

StartChar: Gcircumflex
Encoding: 284 284 48
Width: 760
VWidth: 999
Flags: HW
HStem: -10 55<337.32 524.526> 602 56<309.401 496.285> 684 149
VStem: 39 158<214.24 438.594> 246 295 546 138<83.3557 304.327>
LayerCount: 2
Fore
SplineSet
541 715 m 1
 525 684 l 1
 479 702 437 720 394 740 c 1
 352 720 308 702 262 684 c 1
 246 715 l 1
 291 751 340 794 379 833 c 1
 409 833 l 1
 448 792 497 752 541 715 c 1
546 117 m 2
 546 192 544 250 536 307 c 1
 538 310 l 1
 538 310 586 307 620 307 c 0
 655 307 693 310 693 310 c 1
 694 307 l 1
 686 254 684 212 684 137 c 0
 684 104.6 687.9 90.5 694 83 c 1
 694 80 l 1
 626.5 23.4 513.5 -10 397 -10 c 0
 314.7 -10 237.8 7.6 178 48 c 0
 91.8 106.3 39 204.8 39 307 c 0
 39 420 80.4 515.5 155 575 c 0
 224 630 312 658 412 658 c 0
 534 658 651 613 651 613 c 1
 653 610 l 1
 641.2 560.7 636.6 531 633 480 c 1
 603 479 l 1
 562 561 476.1 602 398 602 c 0
 263 602 197 488 197 327 c 0
 197 195 284 45 420 45 c 0
 474 45 512 51 546 83 c 1
 546 117 l 2
EndSplineSet
Position2: "'cpsp' Versalabstaende 1" dx=2 dy=0 dh=5 dv=0
Colour: ff00ff
EndChar

StartChar: gcircumflex
Encoding: 285 285 49
Width: 561
VWidth: 999
Flags: HW
HStem: -238 45<186.075 347.737> -18 77<180.026 292.771> -17 83<218.306 376.027> 141 40<204.851 304.686> 399 40<209.818 307.53>
VStem: 32 119<-160.411 -47.0122> 54 133<213.662 359.842> 59 112<65.7191 118.083> 326 133<216.765 354.388> 400 130<-132.575 -41.5108>
LayerCount: 2
Fore
SplineSet
403 522 m 1
 376 498 l 1
 328 521 296 538 258 575 c 1
 216 536 185 521 141 498 c 1
 114 522 l 1
 197 608 205 620 239 668 c 1
 279 668 l 1
 317 614 329 596 403 522 c 1
459 289 m 0
 459 195.9 374 141 258 141 c 0
 223.9 141 196.8 146 182.5 152 c 1
 171.5 135 171 123.1 171 107 c 0
 171 64 201 59 229 59 c 0
 234 59 234 60 248 61 c 0
 271 64 294 66 311 66 c 0
 403 66 530 46 530 -68 c 0
 530 -121.4 485.5 -171.5 426.5 -200.5 c 0
 366.1 -230.2 290.3 -238 225 -238 c 0
 135.8 -238 32 -211 32 -124 c 0
 32 -99.2 37 -68 54 -46 c 1
 78 -32 116.4 -17.6 138 -4 c 1
 82.5 4.5 59 32 59 74 c 0
 59 106.8 101.5 145 146 160 c 1
 148 165 l 1
 148 165 123.3 172.6 108.5 183 c 0
 82.8 201 54 229 54 285 c 0
 54 381 143 439 251 439 c 0
 272.5 439 305.4 436 323.3 430.4 c 1
 397.9 434.3 461.2 434.9 509 439 c 1
 512 436 l 1
 510 427 509 416 509 407 c 0
 509 398 510 389 512 380 c 1
 509 377 l 1
 474.2 379.4 437.7 385.1 407.9 385.6 c 1
 439 364.6 459 323.5 459 289 c 0
326 288 m 0
 326 363 315 399 255 399 c 0
 203 399 187 356 187 290 c 0
 187 217 197 181 258 181 c 0
 306 181 326 217 326 288 c 0
183 -16 m 1
 157 -43 151 -70.9 151 -104 c 0
 151 -172 219 -193 253 -193 c 0
 339 -193 400 -152 400 -91 c 0
 400 -21.8 332 -17 276 -17 c 0
 262.2 -17 235.5 -18 206 -18 c 0
 197 -18 189.4 -16.8 183 -16 c 1
EndSplineSet
Colour: ff00ff
EndChar

StartChar: Gbreve
Encoding: 286 286 50
Width: 760
VWidth: 999
Flags: HW
HStem: -10 55<337.32 524.526> 602 56<309.401 496.285> 705 80<320.019 476.065>
VStem: 39 158<214.24 438.594> 249 31<817.906 834.806> 518 30<819.862 834.867> 546 138<83.3557 304.327>
LayerCount: 2
Fore
SplineSet
548 833 m 1
 541 762 472 705 399 705 c 0
 319 705 255 763 249 833 c 1
 280 841 l 1
 289 807 341 785 399 785 c 0
 453 785 510 807 518 841 c 1
 548 833 l 1
546 117 m 2
 546 192 544 250 536 307 c 1
 538 310 l 1
 538 310 586 307 620 307 c 0
 655 307 693 310 693 310 c 1
 694 307 l 1
 686 254 684 212 684 137 c 0
 684 104.6 687.9 90.5 694 83 c 1
 694 80 l 1
 626.5 23.4 513.5 -10 397 -10 c 0
 314.7 -10 237.8 7.6 178 48 c 0
 91.8 106.3 39 204.8 39 307 c 0
 39 420 80.4 515.5 155 575 c 0
 224 630 312 658 412 658 c 0
 534 658 651 613 651 613 c 1
 653 610 l 1
 641.2 560.7 636.6 531 633 480 c 1
 603 479 l 1
 562 561 476.1 602 398 602 c 0
 263 602 197 488 197 327 c 0
 197 195 284 45 420 45 c 0
 474 45 512 51 546 83 c 1
 546 117 l 2
EndSplineSet
Position2: "'cpsp' Versalabstaende 1" dx=2 dy=0 dh=5 dv=0
Substitution2: "'c2sc' Versale nach Kapitaelchen 1" gbreve.sc
Colour: ff00ff
EndChar

StartChar: gbreve
Encoding: 287 287 51
Width: 561
VWidth: 999
Flags: HW
HStem: -238 45<186.075 347.737> -18 77<180.026 292.771> -17 83<218.306 376.027> 141 40<204.851 304.686> 399 40<209.818 307.53> 523 70<189.939 332.577>
VStem: 32 119<-160.411 -47.0122> 54 133<213.662 359.842> 59 112<65.7191 118.083> 122 33<633.075 669.182> 326 133<216.765 354.388> 370 32<634.158 669.281> 400 130<-132.575 -41.5108>
LayerCount: 2
Fore
SplineSet
155 681 m 1
 157 627 200 593 263 593 c 0
 310 593 367 617 370 681 c 1
 402 666 l 1
 392 561 314 523 263 523 c 0
 182 523 129 585 122 666 c 1
 155 681 l 1
459 289 m 0
 459 195.9 374 141 258 141 c 0
 223.9 141 196.8 146 182.5 152 c 1
 171.5 135 171 123.1 171 107 c 0
 171 64 201 59 229 59 c 0
 234 59 234 60 248 61 c 0
 271 64 294 66 311 66 c 0
 403 66 530 46 530 -68 c 0
 530 -121.4 485.5 -171.5 426.5 -200.5 c 0
 366.1 -230.2 290.3 -238 225 -238 c 0
 135.8 -238 32 -211 32 -124 c 0
 32 -99.2 37 -68 54 -46 c 1
 78 -32 116.4 -17.6 138 -4 c 1
 82.5 4.5 59 32 59 74 c 0
 59 106.8 101.5 145 146 160 c 1
 148 165 l 1
 148 165 123.3 172.6 108.5 183 c 0
 82.8 201 54 229 54 285 c 0
 54 381 143 439 251 439 c 0
 272.5 439 305.4 436 323.3 430.4 c 1
 397.9 434.3 461.2 434.9 509 439 c 1
 512 436 l 1
 510 427 509 416 509 407 c 0
 509 398 510 389 512 380 c 1
 509 377 l 1
 474.2 379.4 437.7 385.1 407.9 385.6 c 1
 439 364.6 459 323.5 459 289 c 0
326 288 m 0
 326 363 315 399 255 399 c 0
 203 399 187 356 187 290 c 0
 187 217 197 181 258 181 c 0
 306 181 326 217 326 288 c 0
183 -16 m 1
 157 -43 151 -70.9 151 -104 c 0
 151 -172 219 -193 253 -193 c 0
 339 -193 400 -152 400 -91 c 0
 400 -21.8 332 -17 276 -17 c 0
 262.2 -17 235.5 -18 206 -18 c 0
 197 -18 189.4 -16.8 183 -16 c 1
EndSplineSet
AlternateSubs2: "'aalt' Alle Alternativen zeigen 1" gbreve.sc
Substitution2: "'smcp' Gemeine nach Kapitaelchen 1" gbreve.sc
Colour: ff00ff
EndChar

StartChar: Gdotaccent
Encoding: 288 288 52
Width: 760
VWidth: 999
Flags: HW
HStem: -10 55<337.32 524.526> 602 56<309.401 496.285> 691 142<340.5 449.5>
VStem: 39 158<214.24 438.594> 320 150<711.5 812.5> 546 138<83.3557 304.327>
LayerCount: 2
Fore
SplineSet
320 762 m 0
 320 802 353 833 395 833 c 0
 437 833 470 802 470 762 c 0
 470 722 437 691 395 691 c 0
 353 691 320 722 320 762 c 0
546 117 m 2
 546 192 544 250 536 307 c 1
 538 310 l 1
 538 310 586 307 620 307 c 0
 655 307 693 310 693 310 c 1
 694 307 l 1
 686 254 684 212 684 137 c 0
 684 104.6 687.9 90.5 694 83 c 1
 694 80 l 1
 626.5 23.4 513.5 -10 397 -10 c 0
 314.7 -10 237.8 7.6 178 48 c 0
 91.8 106.3 39 204.8 39 307 c 0
 39 420 80.4 515.5 155 575 c 0
 224 630 312 658 412 658 c 0
 534 658 651 613 651 613 c 1
 653 610 l 1
 641.2 560.7 636.6 531 633 480 c 1
 603 479 l 1
 562 561 476.1 602 398 602 c 0
 263 602 197 488 197 327 c 0
 197 195 284 45 420 45 c 0
 474 45 512 51 546 83 c 1
 546 117 l 2
EndSplineSet
Position2: "'cpsp' Versalabstaende 1" dx=2 dy=0 dh=5 dv=0
Colour: ff00ff
EndChar

StartChar: gdotaccent
Encoding: 289 289 53
Width: 561
VWidth: 999
Flags: HW
HStem: -238 45<186.075 347.737> -18 77<180.026 292.771> -17 83<218.306 376.027> 141 40<204.851 304.686> 399 40<209.818 307.53> 536 142<209.5 318.5>
VStem: 32 119<-160.411 -47.0122> 54 133<213.662 359.842> 59 112<65.7191 118.083> 189 150<556.5 657.5> 326 133<216.765 354.388> 400 130<-132.575 -41.5108>
LayerCount: 2
Fore
SplineSet
189 607 m 0
 189 647 222 678 264 678 c 0
 306 678 339 647 339 607 c 0
 339 567 306 536 264 536 c 0
 222 536 189 567 189 607 c 0
459 289 m 0
 459 195.9 374 141 258 141 c 0
 223.9 141 196.8 146 182.5 152 c 1
 171.5 135 171 123.1 171 107 c 0
 171 64 201 59 229 59 c 0
 234 59 234 60 248 61 c 0
 271 64 294 66 311 66 c 0
 403 66 530 46 530 -68 c 0
 530 -121.4 485.5 -171.5 426.5 -200.5 c 0
 366.1 -230.2 290.3 -238 225 -238 c 0
 135.8 -238 32 -211 32 -124 c 0
 32 -99.2 37 -68 54 -46 c 1
 78 -32 116.4 -17.6 138 -4 c 1
 82.5 4.5 59 32 59 74 c 0
 59 106.8 101.5 145 146 160 c 1
 148 165 l 1
 148 165 123.3 172.6 108.5 183 c 0
 82.8 201 54 229 54 285 c 0
 54 381 143 439 251 439 c 0
 272.5 439 305.4 436 323.3 430.4 c 1
 397.9 434.3 461.2 434.9 509 439 c 1
 512 436 l 1
 510 427 509 416 509 407 c 0
 509 398 510 389 512 380 c 1
 509 377 l 1
 474.2 379.4 437.7 385.1 407.9 385.6 c 1
 439 364.6 459 323.5 459 289 c 0
326 288 m 0
 326 363 315 399 255 399 c 0
 203 399 187 356 187 290 c 0
 187 217 197 181 258 181 c 0
 306 181 326 217 326 288 c 0
183 -16 m 1
 157 -43 151 -70.9 151 -104 c 0
 151 -172 219 -193 253 -193 c 0
 339 -193 400 -152 400 -91 c 0
 400 -21.8 332 -17 276 -17 c 0
 262.2 -17 235.5 -18 206 -18 c 0
 197 -18 189.4 -16.8 183 -16 c 1
EndSplineSet
Colour: ff00ff
EndChar

StartChar: Gcommaaccent
Encoding: 290 290 54
Width: 760
VWidth: 999
Flags: HW
HStem: -243 30<309.114 389.834> -144 102<331.25 400.163> -10 55<337.32 524.526> 602 56<309.401 496.285>
VStem: 39 158<214.24 438.594> 403 65<-202.409 -145.496> 546 138<83.3557 304.327>
LayerCount: 2
Fore
SplineSet
316 -97 m 1
 316 -93 l 1
 319 -67 344 -46 380 -42 c 1
 386 -42 l 1
 407.9 -44.4 428.7 -50.6 443 -69 c 0
 458.1 -88.4 468 -117.8 468 -147 c 0
 468 -220 390 -243 314 -243 c 1
 307 -238 305 -222 309 -213 c 1
 374 -213 403 -199 403 -181 c 0
 403 -159 390.9 -145.6 375 -144 c 0
 335 -140 318 -125 316 -97 c 1
546 117 m 2
 546 192 544 250 536 307 c 1
 538 310 l 1
 538 310 586 307 620 307 c 0
 655 307 693 310 693 310 c 1
 694 307 l 1
 686 254 684 212 684 137 c 0
 684 104.6 687.9 90.5 694 83 c 1
 694 80 l 1
 626.5 23.4 513.5 -10 397 -10 c 0
 314.7 -10 237.8 7.6 178 48 c 0
 91.8 106.3 39 204.8 39 307 c 0
 39 420 80.4 515.5 155 575 c 0
 224 630 312 658 412 658 c 0
 534 658 651 613 651 613 c 1
 653 610 l 1
 641.2 560.7 636.6 531 633 480 c 1
 603 479 l 1
 562 561 476.1 602 398 602 c 0
 263 602 197 488 197 327 c 0
 197 195 284 45 420 45 c 0
 474 45 512 51 546 83 c 1
 546 117 l 2
EndSplineSet
Position2: "'cpsp' Versalabstaende 1" dx=2 dy=0 dh=5 dv=0
Colour: ff00ff
EndChar

StartChar: gcommaaccent
Encoding: 291 291 55
Width: 561
VWidth: 999
Flags: HW
HStem: -238 45<186.075 347.737> -18 77<180.026 292.771> -17 83<218.306 376.027> 141 40<204.851 304.686> 399 40<209.818 307.53> 497 113<243.626 311.5> 690 30<287.751 335.327>
VStem: 32 119<-160.411 -47.0122> 54 133<213.662 359.842> 59 112<65.7191 118.083> 178 65<571.5 655.449> 326 133<216.765 354.388> 400 130<-132.575 -41.5108>
LayerCount: 2
Fore
SplineSet
332 559 m 1
 332 555 l 1
 329 529 300 501 264 497 c 1
 258 497 l 1
 213 502 178 543 178 600 c 0
 178 662 254 710 330 720 c 1
 338 715 339 699 335 690 c 1
 269 677 243 652 243 634 c 0
 243 612 253 610 269 610 c 1
 309 604 330 587 332 559 c 1
459 289 m 0
 459 195.9 374 141 258 141 c 0
 223.9 141 196.8 146 182.5 152 c 1
 171.5 135 171 123.1 171 107 c 0
 171 64 201 59 229 59 c 0
 234 59 234 60 248 61 c 0
 271 64 294 66 311 66 c 0
 403 66 530 46 530 -68 c 0
 530 -121.4 485.5 -171.5 426.5 -200.5 c 0
 366.1 -230.2 290.3 -238 225 -238 c 0
 135.8 -238 32 -211 32 -124 c 0
 32 -99.2 37 -68 54 -46 c 1
 78 -32 116.4 -17.6 138 -4 c 1
 82.5 4.5 59 32 59 74 c 0
 59 106.8 101.5 145 146 160 c 1
 148 165 l 1
 148 165 123.3 172.6 108.5 183 c 0
 82.8 201 54 229 54 285 c 0
 54 381 143 439 251 439 c 0
 272.5 439 305.4 436 323.3 430.4 c 1
 397.9 434.3 461.2 434.9 509 439 c 1
 512 436 l 1
 510 427 509 416 509 407 c 0
 509 398 510 389 512 380 c 1
 509 377 l 1
 474.2 379.4 437.7 385.1 407.9 385.6 c 1
 439 364.6 459 323.5 459 289 c 0
326 288 m 0
 326 363 315 399 255 399 c 0
 203 399 187 356 187 290 c 0
 187 217 197 181 258 181 c 0
 306 181 326 217 326 288 c 0
183 -16 m 1
 157 -43 151 -70.9 151 -104 c 0
 151 -172 219 -193 253 -193 c 0
 339 -193 400 -152 400 -91 c 0
 400 -21.8 332 -17 276 -17 c 0
 262.2 -17 235.5 -18 206 -18 c 0
 197 -18 189.4 -16.8 183 -16 c 1
EndSplineSet
Colour: ff00ff
EndChar

StartChar: Hcircumflex
Encoding: 292 292 56
Width: 788
VWidth: 999
Flags: HW
HStem: -3 21<91 175 175 259 539 623 623 707> 311 52<237 563> 628 20<91 175 175 259 539 623 623 707> 745 149
VStem: 103 144<2.67992 642.32> 244 295 551 144<2.67992 642.32>
LayerCount: 2
Fore
SplineSet
539 776 m 1
 523 745 l 1
 477 763 435 781 392 801 c 1
 350 781 306 763 260 745 c 1
 244 776 l 1
 289 812 338 855 377 894 c 1
 407 894 l 1
 446 853 495 813 539 776 c 1
551 445 m 2
 551 520 547 588 539 645 c 1
 541 648 l 1
 541 648 589 645 623 645 c 0
 658 645 706 648 706 648 c 1
 707 645 l 1
 699 592 695 520 695 445 c 2
 695 200 l 2
 695 125 699 57 707 0 c 1
 705 -3 l 1
 705 -3 657 0 623 0 c 0
 588 0 540 -3 540 -3 c 1
 539 0 l 1
 547 54 551 125 551 200 c 2
 551 311 l 1
 247 311 l 1
 247 200 l 2
 247 125 251 57 259 0 c 1
 257 -3 l 1
 257 -3 209 0 175 0 c 0
 140 0 92 -3 92 -3 c 1
 91 0 l 1
 99 54 103 125 103 200 c 2
 103 445 l 2
 103 520 99 588 91 645 c 1
 93 648 l 1
 93 648 141 645 175 645 c 0
 210 645 258 648 258 648 c 1
 259 645 l 1
 251 592 247 520 247 445 c 2
 247 363 l 1
 551 363 l 1
 551 445 l 2
EndSplineSet
Position2: "'cpsp' Versalabstaende 1" dx=2 dy=0 dh=5 dv=0
Colour: ff00ff
EndChar

StartChar: hcircumflex
Encoding: 293 293 57
Width: 606
VWidth: 999
Flags: HW
HStem: -3 21<74 155 155 224 380 465 465 528> 362 77<304.364 434> 678 20<206.465 222.167> 745 149
VStem: 86 132<2.6647 307.95 351 659.981> 197 295 386 132<2.6647 348.673>
LayerCount: 2
Fore
SplineSet
86 474 m 2
 86 550 81.7 619.3 74 662 c 1
 76 665 l 1
 116.5 668 193.9 688 219 698 c 1
 225.3 698 228 695 228 688 c 0
 220.3 626.7 218 575 218 500 c 2
 218 438 l 1
 214 351 l 1
 218 349 l 1
 264 408 338 439 389 439 c 0
 479 439 518 381 518 291 c 2
 518 180 l 2
 518 104 519 57 528 0 c 1
 526 -3 l 1
 526 -3 499 0 465 0 c 0
 430 0 381 -3 381 -3 c 1
 380 0 l 1
 386 53 386 105 386 180 c 2
 386 269 l 2
 386 342 361 362 334 362 c 0
 298 362 256 332 218 282 c 1
 218 180 l 2
 218 104 219 57 224 0 c 1
 222 -3 l 1
 222 -3 189.3 0 155 0 c 0
 120 0 75 -3 75 -3 c 1
 74 0 l 1
 82.5 53.5 86 105 86 180 c 2
 86 474 l 2
492 776 m 1
 476 745 l 1
 430 763 388 781 345 801 c 1
 303 781 259 763 213 745 c 1
 197 776 l 1
 242 812 291 855 330 894 c 1
 360 894 l 1
 399 853 448 813 492 776 c 1
EndSplineSet
Colour: ff00ff
EndChar

StartChar: Hbar
Encoding: 294 294 58
Width: 788
VWidth: 999
Flags: HW
HStem: -3 21<91 175 175 259 539 623 623 707> 311 52<237 563> 512 44<41 761> 628 20<91 175 175 259 539 623 623 707>
VStem: 103 144<2.67992 642.32> 551 144<2.67992 642.32>
LayerCount: 2
Fore
SplineSet
551 363 m 1
 551 445 l 2
 551 468 550.7 490.4 549.9 512 c 1
 248.1 512 l 1
 247.4 490.2 247 467.8 247 445 c 2
 247 363 l 1
 551 363 l 1
551 311 m 1
 247 311 l 1
 247 200 l 2
 247 125 251 57 259 0 c 1
 257 -3 l 1
 257 -3 209 0 175 0 c 0
 140 0 92 -3 92 -3 c 1
 91 0 l 1
 99 54 103 125 103 200 c 2
 103 445 l 2
 103 468 102.7 490.4 101.9 512 c 1
 41 512 l 1
 41 556 l 1
 99.7 556 l 1
 97.7 587.9 94.8 617.7 91 645 c 1
 93 648 l 1
 93 648 141 645 175 645 c 0
 210 645 258 648 258 648 c 1
 259 645 l 1
 255.1 619.2 252.2 588.9 250.2 556 c 1
 547.7 556 l 1
 545.7 587.9 542.8 617.7 539 645 c 1
 541 648 l 1
 541 648 589 645 623 645 c 0
 658 645 706 648 706 648 c 1
 707 645 l 1
 703.1 619.2 700.2 588.9 698.2 556 c 1
 761 556 l 1
 761 512 l 1
 696.1 512 l 1
 695.4 490.2 695 467.8 695 445 c 2
 695 200 l 2
 695 125 699 57 707 0 c 1
 705 -3 l 1
 705 -3 657 0 623 0 c 0
 588 0 540 -3 540 -3 c 1
 539 0 l 1
 547 54 551 125 551 200 c 2
 551 311 l 1
EndSplineSet
Position2: "'cpsp' Versalabstaende 1" dx=2 dy=0 dh=5 dv=0
Colour: ff80cc
EndChar

StartChar: hbar
Encoding: 295 295 59
Width: 606
VWidth: 999
Flags: HW
HStem: -3 21<74 155 155 224 380 465 465 528> 362 77<304.364 434> 523 51<-9 338> 678 20<206.465 222.167>
VStem: 86 132<2.6647 307.95 351 659.981> 386 132<2.6647 348.673>
LayerCount: 2
Fore
SplineSet
-9 523 m 1
 -9 574 l 1
 21 572.1 51.7 570.5 83.5 569.5 c 1
 81.5 606.3 78.3 638.3 74 662 c 1
 76 665 l 1
 116.5 668 193.9 688 219 698 c 1
 225.3 698 228 695 228 688 c 0
 222.9 647.2 220.2 610.6 218.9 568.6 c 1
 256.6 569.4 296.2 571.1 338 574 c 1
 338 523 l 1
 298.7 525.7 258.7 527.6 218.1 528.4 c 1
 218 519.3 218 509.8 218 500 c 2
 218 438 l 1
 214 351 l 1
 218 349 l 1
 264 408 338 439 389 439 c 0
 479 439 518 381 518 291 c 2
 518 180 l 2
 518 104 519 57 528 0 c 1
 526 -3 l 1
 526 -3 499 0 465 0 c 0
 430 0 381 -3 381 -3 c 1
 380 0 l 1
 386 53 386 105 386 180 c 2
 386 269 l 2
 386 342 361 362 334 362 c 0
 298 362 256 332 218 282 c 1
 218 180 l 2
 218 104 219 57 224 0 c 1
 222 -3 l 1
 222 -3 189.3 0 155 0 c 0
 120 0 75 -3 75 -3 c 1
 74 0 l 1
 82.5 53.5 86 105 86 180 c 2
 86 474 l 2
 86 492.4 85.8 510.4 85.3 527.7 c 1
 54.3 526.7 22.8 525.1 -9 523 c 1
EndSplineSet
Colour: ff80cc
EndChar

StartChar: Itilde
Encoding: 296 296 60
Width: 351
VWidth: 999
Flags: HW
HStem: -3 21<94 178 178 262> 628 20<94 178 178 262> 714 66<185.778 272.61> 766 67<63.1606 155.179>
VStem: 17 36<722.639 752.509> 106 144<2.67992 642.32> 288 36<799.092 826.75>
LayerCount: 2
Fore
SplineSet
239 780 m 0
 260 780 275 798 288 834 c 1
 324 825 l 1
 310 761 278 714 227 714 c 0
 189 714 175 726 158 742 c 0
 141 758 120 766 102 766 c 0
 73 766 61 748 53 717 c 1
 17 724 l 1
 32 788 57 833 105 833 c 0
 141 833 163 819 184 803 c 0
 205 788 220 780 239 780 c 0
106 445 m 2
 106 520 102 588 94 645 c 1
 96 648 l 1
 96 648 144 645 178 645 c 0
 213 645 261 648 261 648 c 1
 262 645 l 1
 254 592 250 520 250 445 c 2
 250 200 l 2
 250 125 254 57 262 0 c 1
 260 -3 l 1
 260 -3 212 0 178 0 c 0
 143 0 95 -3 95 -3 c 1
 94 0 l 1
 102 54 106 125 106 200 c 2
 106 445 l 2
EndSplineSet
Position2: "'cpsp' Versalabstaende 1" dx=2 dy=0 dh=5 dv=0
Colour: ff00ff
EndChar

StartChar: itilde
Encoding: 297 297 61
Width: 310
VWidth: 999
Flags: HW
HStem: -3 21<80 97 215 232> 412 20<80 92.2366 216.006 226> 513 66<162.6 240.749> 565 67<52.2445 135.061>
VStem: 10.7 32.4<521.639 551.509> 90 132<2.6647 421.154> 254.6 32.4<598.092 625.75>
LayerCount: 2
Fore
SplineSet
210.5 579 m 0
 229.4 579 242.9 597 254.6 633 c 1
 287 624 l 1
 274.4 560 245.6 513 199.7 513 c 0
 165.5 513 152.9 525 137.6 541 c 0
 122.3 557 103.4 565 87.2 565 c 0
 61.1 565 50.3 547 43.1 516 c 1
 10.7 523 l 1
 24.2 587 46.7 632 89.9 632 c 0
 122.3 632 142.1 618 161 602 c 0
 179.9 587 193.4 579 210.5 579 c 0
90 235 m 2
 90 310 88 385 80 428 c 1
 83 432 l 1
 101.5 431.5 128 429 154 429 c 0
 182 429 209 432.4 223 434 c 0
 229 434 232 431 232 424 c 0
 227 363 222 321 222 246 c 2
 222 180 l 2
 222 104 224 57 232 0 c 1
 230 -3 l 1
 200 -1 190 0 156 0 c 0
 121 0 112 -1 82 -3 c 1
 80 0 l 1
 88 54 90 105 90 180 c 2
 90 235 l 2
EndSplineSet
Colour: ff00ff
EndChar

StartChar: Imacron
Encoding: 298 298 62
Width: 351
VWidth: 999
Flags: HW
HStem: -3 21<94 178 178 262> 628 20<94 178 178 262> 744 60<16.837 324.084>
VStem: 13 315<744.849 803.524> 106 144<2.67992 642.32>
LayerCount: 2
Fore
SplineSet
302 744 m 2
 28 744 l 2
 17 744 13 758 13 767 c 0
 13 779 25 804 38 804 c 2
 314 804 l 2
 324 804 328 790 328 782 c 0
 328 769 316 744 302 744 c 2
106 445 m 2
 106 520 102 588 94 645 c 1
 96 648 l 1
 96 648 144 645 178 645 c 0
 213 645 261 648 261 648 c 1
 262 645 l 1
 254 592 250 520 250 445 c 2
 250 200 l 2
 250 125 254 57 262 0 c 1
 260 -3 l 1
 260 -3 212 0 178 0 c 0
 143 0 95 -3 95 -3 c 1
 94 0 l 1
 102 54 106 125 106 200 c 2
 106 445 l 2
EndSplineSet
Position2: "'cpsp' Versalabstaende 1" dx=2 dy=0 dh=5 dv=0
Colour: ff00ff
EndChar

StartChar: imacron
Encoding: 299 299 63
Width: 310
VWidth: 999
Flags: HW
HStem: -3 21<80 97 215 232> 412 20<80 92.2366 216.006 226> 530 60<23.5533 300.076>
VStem: 20.1 283.5<530.849 589.524> 90 132<2.6647 421.154>
LayerCount: 2
Fore
SplineSet
280.2 530 m 2
 33.6 530 l 2
 23.7 530 20.1 544 20.1 553 c 0
 20.1 565 30.9 590 42.6 590 c 2
 291 590 l 2
 300 590 303.6 576 303.6 568 c 0
 303.6 555 292.8 530 280.2 530 c 2
90 235 m 2
 90 310 88 385 80 428 c 1
 83 432 l 1
 101.5 431.5 128 429 154 429 c 0
 182 429 209 432.4 223 434 c 0
 229 434 232 431 232 424 c 0
 227 363 222 321 222 246 c 2
 222 180 l 2
 222 104 224 57 232 0 c 1
 230 -3 l 1
 200 -1 190 0 156 0 c 0
 121 0 112 -1 82 -3 c 1
 80 0 l 1
 88 54 90 105 90 180 c 2
 90 235 l 2
EndSplineSet
Colour: ff00ff
EndChar

StartChar: Ibreve
Encoding: 300 300 64
Width: 351
VWidth: 999
Flags: HW
HStem: -3 21<94 178 178 262> 628 20<94 178 178 262> 705 80<100.019 256.064>
VStem: 29 31<817.906 834.806> 106 144<2.67992 642.32> 298 30<819.862 834.867>
LayerCount: 2
Fore
SplineSet
328 833 m 1
 321 762 252 705 179 705 c 0
 99 705 35 763 29 833 c 1
 60 841 l 1
 69 807 121 785 179 785 c 0
 233 785 290 807 298 841 c 1
 328 833 l 1
106 445 m 2
 106 520 102 588 94 645 c 1
 96 648 l 1
 96 648 144 645 178 645 c 0
 213 645 261 648 261 648 c 1
 262 645 l 1
 254 592 250 520 250 445 c 2
 250 200 l 2
 250 125 254 57 262 0 c 1
 260 -3 l 1
 260 -3 212 0 178 0 c 0
 143 0 95 -3 95 -3 c 1
 94 0 l 1
 102 54 106 125 106 200 c 2
 106 445 l 2
EndSplineSet
Position2: "'cpsp' Versalabstaende 1" dx=2 dy=0 dh=5 dv=0
Colour: ff00ff
EndChar

StartChar: ibreve
Encoding: 301 301 65
Width: 310
VWidth: 999
Flags: HW
HStem: -3 21<80 97 215 232> 412 20<80 92.2366 216.006 226> 497 70<78.3453 206.719>
VStem: 17.2 29.7<607.075 643.182> 90 132<2.6647 421.154> 240.4 28.8<608.158 643.281>
LayerCount: 2
Fore
SplineSet
46.9 655 m 1
 48.7 601 87.4 567 144.1 567 c 0
 186.4 567 237.7 591 240.4 655 c 1
 269.2 640 l 1
 260.2 535 190 497 144.1 497 c 0
 71.2 497 23.5 559 17.2 640 c 1
 46.9 655 l 1
90 235 m 2
 90 310 88 385 80 428 c 1
 83 432 l 1
 101.5 431.5 128 429 154 429 c 0
 182 429 209 432.4 223 434 c 0
 229 434 232 431 232 424 c 0
 227 363 222 321 222 246 c 2
 222 180 l 2
 222 104 224 57 232 0 c 1
 230 -3 l 1
 200 -1 190 0 156 0 c 0
 121 0 112 -1 82 -3 c 1
 80 0 l 1
 88 54 90 105 90 180 c 2
 90 235 l 2
EndSplineSet
Colour: ff00ff
EndChar

StartChar: Iogonek
Encoding: 302 302 66
Width: 351
VWidth: 999
Flags: HW
HStem: -193 44<191.48 258.62> -3 21<94 178 178 262> 628 20<94 178 178 262>
VStem: 101 86<-146.871 -45.1739> 106 144<2.67992 642.32>
LayerCount: 2
Fore
SplineSet
292 -141 m 1
 265 -174 230 -193 196 -193 c 0
 173.2 -193 149 -188 133 -177 c 0
 115.2 -164.7 101 -144 101 -117 c 0
 101 -58.4 130.1 -25.3 183.3 -0 c 1
 181.5 0 179.7 0 178 0 c 0
 143 0 95 -3 95 -3 c 1
 94 0 l 1
 102 54 106 125 106 200 c 2
 106 445 l 2
 106 520 102 588 94 645 c 1
 96 648 l 1
 96 648 144 645 178 645 c 0
 213 645 261 648 261 648 c 1
 262 645 l 1
 254 592 250 520 250 445 c 2
 250 200 l 2
 250 125.9 253.9 58.6 261.7 2 c 1
 263 1 l 2
 262.6 1 262.3 1 261.9 1 c 2
 262 0 l 1
 260 -3 l 1
 260 -3 252.7 -2.6 241.8 -2 c 1
 197 -14.8 187 -65.8 187 -100 c 0
 187 -121 193 -149 219 -149 c 0
 236 -149 256 -131 270 -116 c 1
 273 -117 l 1
 292 -141 l 1
EndSplineSet
Position2: "'cpsp' Versalabstaende 1" dx=2 dy=0 dh=5 dv=0
Colour: ff80cc
EndChar

StartChar: iogonek
Encoding: 303 303 67
Width: 310
VWidth: 999
Flags: HW
HStem: -193 44<161.48 228.62> -3 21<80 97 215 232> 412 20<80 92.2366 216.006 226> 536 142<101.5 210.5>
VStem: 71 86<-146.871 -45.1739> 90 132<2.6647 421.154>
LayerCount: 2
Fore
SplineSet
262 -141 m 1
 235 -174 200 -193 166 -193 c 0
 143.2 -193 119 -188 103 -177 c 0
 85.2 -164.7 71 -144 71 -117 c 0
 71 -58.4 100.2 -25.4 153.4 -0 c 1
 120.5 -0 111.2 -1.1 82 -3 c 1
 80 0 l 1
 88 54 90 105 90 180 c 2
 90 235 l 2
 90 310 88 385 80 428 c 1
 83 432 l 1
 101.5 431.5 128 429 154 429 c 0
 182 429 209 432.4 223 434 c 0
 229 434 232 431 232 424 c 0
 227 363 222 321 222 246 c 2
 222 180 l 2
 222 104.9 223.9 58.1 231.7 2 c 1
 233 1 l 2
 232.6 1 232.3 1 231.9 1 c 2
 232 0 l 1
 230 -3 l 1
 212.4 -1.8 l 1
 167.1 -14.3 157 -65.7 157 -100 c 0
 157 -121 163 -149 189 -149 c 0
 206 -149 226 -131 240 -116 c 1
 243 -117 l 1
 262 -141 l 1
81 607 m 0
 81 647 114 678 156 678 c 0
 198 678 231 647 231 607 c 0
 231 567 198 536 156 536 c 0
 114 536 81 567 81 607 c 0
EndSplineSet
Colour: ff80cc
EndChar

StartChar: Idotaccent
Encoding: 304 304 68
Width: 351
VWidth: 999
Flags: HW
HStem: -3 21<94 178 178 262> 628 20<94 178 178 262> 691 142<123.5 232.5>
VStem: 103 150<711.5 812.5> 106 144<2.67992 642.32>
LayerCount: 2
Fore
SplineSet
103 762 m 0
 103 802 136 833 178 833 c 0
 220 833 253 802 253 762 c 0
 253 722 220 691 178 691 c 0
 136 691 103 722 103 762 c 0
106 445 m 2
 106 520 102 588 94 645 c 1
 96 648 l 1
 96 648 144 645 178 645 c 0
 213 645 261 648 261 648 c 1
 262 645 l 1
 254 592 250 520 250 445 c 2
 250 200 l 2
 250 125 254 57 262 0 c 1
 260 -3 l 1
 260 -3 212 0 178 0 c 0
 143 0 95 -3 95 -3 c 1
 94 0 l 1
 102 54 106 125 106 200 c 2
 106 445 l 2
EndSplineSet
Substitution2: "'c2sc' Versale nach Kapitaelchen 1" idotaccent.sc
Position2: "'cpsp' Versalabstaende 1" dx=2 dy=0 dh=5 dv=0
Colour: ff00ff
EndChar

StartChar: afii10057
Encoding: 1032 1032 69
Width: 385
VWidth: 999
Flags: HW
HStem: -10 60<57.8935 169.935> 628 20G<200 253 253 306>
VStem: 210 86<132.814 642.32>
AnchorPoint: "top_akzent" 252 806 basechar 0
AnchorPoint: "top_punkt" 251 723 basechar 0
LayerCount: 2
Fore
SplineSet
210 258 m 2
 210 445 l 2
 210 520 208 588 200 645 c 1
 202 648 l 1
 202 648 219 645 253 645 c 0
 288 645 305 648 305 648 c 1
 306 645 l 1
 298 592 296 520 296 445 c 2
 296 280 l 2
 296 165.5 285.8 135.1 233 66 c 0
 191.8 12.1 138 -10 75 -10 c 0
 56 -10 38 -6 30 -1 c 1
 29 2 l 1
 40 21 50 57 57 84 c 1
 68 85 l 1
 79 65 97 50 126 50 c 0
 205 50 210 170 210 258 c 2
EndSplineSet
EndChar

StartChar: afii10061
Encoding: 1036 1036 70
Width: 632
VWidth: 999
Flags: HW
HStem: -4 21<443 478.5 586.5 596> -3 21<94 178 178 262> 312 45<187 249.712> 569 89<450.534 559.69> 628 20<94 178 178 262> 822 148
VStem: 106 144<2.67992 642.32> 275 214
LayerCount: 2
Fore
SplineSet
106 445 m 2
 106 520 102 588 94 645 c 1
 96 648 l 1
 96 648 144 645 178 645 c 0
 213 645 261 648 261 648 c 1
 262 645 l 1
 254 592 250 520 250 445 c 2
 250 376.7 l 1
 288.3 407 303.1 468 347 531 c 0
 390.3 593.1 449 658 527 658 c 0
 554 658 558 655 584 648 c 1
 589 642 l 1
 560 551 l 1
 548 548 l 1
 528 562 511 569 483 569 c 0
 460 569 424 550 388 502 c 0
 343.6 442.8 328 360 285 340 c 1
 285 337 l 1
 357 325 376.8 296.9 429 237 c 0
 513.7 139.8 512 89 596 0 c 1
 593 -4 l 1
 580 -2 541 0 516 0 c 0
 490 0 490 -2 467 -4 c 1
 419 73 399 117 371 169 c 0
 338.2 229.8 312.8 278.5 250 300.3 c 1
 250 200 l 2
 250 125 254 57 262 0 c 1
 260 -3 l 1
 260 -3 212 0 178 0 c 0
 143 0 95 -3 95 -3 c 1
 94 0 l 1
 102 54 106 125 106 200 c 2
 106 445 l 2
432 970 m 1
 459.4 951.3 480 918 489 889 c 1
 482 875.1 l 1
 330 831 l 2
 307.8 824.6 299.1 822 291 822 c 0
 282.9 822 275 838 275 847 c 0
 275 854 276.8 861.8 290 871 c 2
 432 970 l 1
EndSplineSet
LCarets2: 1 0 
Colour: ff00ff
EndChar

StartChar: uni040D
Encoding: 1037 1037 71
Width: 700
VWidth: 999
Flags: HW
HStem: -3 21<94 178 178 262 500 584 584 668> 628 20<94 178 178 262 500 584 584 668> 822 148
VStem: 106 144<2.67992 642.32> 230 214 512 144<2.67992 642.32>
DStem2: 187 134 187 78 0.608002 0.793935<0 493.367>
LayerCount: 2
Fore
SplineSet
287 970 m 1
 429 871 l 2
 442.2 861.8 444 854 444 847 c 0
 444 838 436.1 822 428 822 c 0
 419.9 822 411.2 824.6 389 831 c 2
 237 875.1 l 1
 230 889 l 1
 239 918 259.6 951.3 287 970 c 1
106 445 m 2
 106 520 102 588 94 645 c 1
 96 648 l 1
 96 648 144 645 178 645 c 0
 213 645 261 648 261 648 c 1
 262 645 l 1
 254 592 250 520 250 445 c 2
 250 216.3 l 1
 508.8 554.3 l 1
 506.8 586.8 503.9 617.2 500 645 c 1
 502 648 l 1
 502 648 550 645 584 645 c 0
 619 645 667 648 667 648 c 1
 668 645 l 1
 660 592 656 520 656 445 c 2
 656 200 l 2
 656 125 660 57 668 0 c 1
 666 -3 l 1
 666 -3 618 0 584 0 c 0
 549 0 501 -3 501 -3 c 1
 500 0 l 1
 508 54 512 125 512 200 c 2
 512 445 l 2
 512 464.3 511.7 483.1 511.2 501.4 c 1
 250.4 160.8 l 1
 251.6 101.3 255.4 46.9 262 0 c 1
 260 -3 l 1
 260 -3 212 0 178 0 c 0
 143 0 95 -3 95 -3 c 1
 94 0 l 1
 102 54 106 125 106 200 c 2
 106 445 l 2
EndSplineSet
LCarets2: 1 0 
Colour: ff00ff
EndChar

StartChar: afii10062
Encoding: 1038 1038 72
Width: 580
VWidth: 999
Flags: HW
HStem: -22 67<133 228.079> 628 20<54.5 65.8588 152.5 165.28 462.421 482 552.006 555> 714 41<263.963 356.037>
VStem: 180 80<761.847 827.403> 361 79<761.847 827.796>
DStem2: 278.595 138.281 342 161 0.410131 0.912027<-105.377 13.9628 113.393 328.053>
LayerCount: 2
Fore
SplineSet
342 161 m 2
 293.9 54.1 244 -22 154 -22 c 0
 112 -22 66 1 66 33 c 0
 66 61 81 84 113 84 c 0
 127 84 149 77 159 65 c 0
 166 56 181 45 195 45 c 0
 237.7 45 253.9 81.1 278.6 138.3 c 1
 192.3 339.9 85.7 567.8 46 648 c 1
 63 645 89 645 106 645 c 0
 123 645 144 645 161 648 c 1
 169.6 618 224.1 470.1 323.2 242.5 c 1
 384.4 386.9 448.8 546.4 476 648 c 1
 488 645 515 645 526 645 c 0
 537 645 549 645 561 648 c 1
 342 161 l 2
310 755 m 0
 343 755 361 772 361 789 c 0
 361 794 360 800 360 802 c 0
 360 817 380 832 403 832 c 0
 430 832 440 818 440 799 c 0
 440 747 376 714 310 714 c 0
 244 714 180 747 180 799 c 0
 180 818 190 832 217 832 c 0
 240 832 260 817 260 802 c 0
 260 800 259 794 259 789 c 0
 259 772 277 755 310 755 c 0
EndSplineSet
LCarets2: 1 0 
Colour: ff00ff
EndChar

StartChar: afii10020
Encoding: 1043 1043 73
Width: 563
VWidth: 999
Flags: HW
HStem: -3 21<92 173 173 257> 564 81<251.435 501.657>
VStem: 103 144<2.67992 562.332>
LayerCount: 2
Fore
SplineSet
247 435 m 2
 247 200 l 2
 247 125 249 53 257 0 c 1
 256 -3 l 1
 256 -3 208 0 173 0 c 0
 139 0 94 -3 94 -3 c 1
 92 0 l 1
 100 57 103 125 103 200 c 2
 103 445 l 2
 103 520 101 591 93 645 c 1
 94 648 l 1
 94 648 143 645 177 645 c 2
 481 645 l 2
 502 645 525 646 541 648 c 1
 543 645 l 1
 542 631 541 613 541 603 c 0
 541 593 542 554 543 546 c 1
 541 542 l 1
 541 542 389 564 255 564 c 1
 248 540 247 452 247 435 c 2
EndSplineSet
Colour: ff00ff
EndChar

StartChar: afii10021
Encoding: 1044 1044 74
Width: 708
VWidth: 999
Flags: HW
HStem: 0 44<192.009 452.856> 601 44<276.411 452.674>
VStem: 39 36<-138 -59.5127> 461 86<60.1801 586.818> 570 36<-138 -59.5127>
LayerCount: 2
Fore
SplineSet
425 44 m 2
 443 44 450 50 453 59 c 0
 460 83 461 183 461 200 c 2
 461 445 l 2
 461 462 460 564 453 588 c 1
 446 597 442 601 427 601 c 2
 313 601 l 2
 286 601 276 591 274 566 c 0
 265.9 465 251 361 239 293 c 0
 217 176 192 77 192 56 c 0
 192 44 205 44 219 44 c 2
 425 44 l 2
178 0 m 2
 98 0 86 -65 75 -138 c 1
 73 -141 l 1
 41 -141 l 1
 39 -138 l 1
 27 11 l 2
 27 21 32 29 57 32 c 0
 77.1 34.4 98 32 112 47 c 0
 138 73 156 145 188 301 c 1
 210 415 222 518 222 581 c 0
 222 603 219 625 216 645 c 1
 217 648 l 1
 217 648 244 645 278 645 c 2
 504 645 l 2
 538 645 556 648 556 648 c 1
 557 645 l 1
 549 591 547 520 547 445 c 2
 547 200 l 2
 547 90 554 35 588 32 c 0
 613 29.8 618 21 618 11 c 2
 606 -138 l 1
 604 -141 l 1
 572 -141 l 1
 570 -138 l 1
 559 -65 547 0 467 0 c 2
 178 0 l 2
EndSplineSet
EndChar

StartChar: afii10024
Encoding: 1046 1046 75
Width: 924
VWidth: 999
Flags: HW
HStem: -4 21G<35 44.5 147 181 743 777 879.5 889> -3 21<407 491 491 575> 312 45<364.57 424 500 559.43> 569 89<70.0289 172.306 751.694 853.971> 628 20<407 491 491 575>
VStem: 419 144<2.67992 642.32>
LayerCount: 2
Fore
SplineSet
249 169 m 0
 223 117 204 73 158 -4 c 1
 136 -2 136 0 111 0 c 0
 88 0 51 -2 38 -4 c 1
 35 0 l 1
 115 89 113 140 194 237 c 0
 244 297 262 325 331 337 c 1
 331 340 l 1
 290 360 274.9 443 233 502 c 0
 198.9 550 165 569 143 569 c 0
 116 569 100 562 81 548 c 1
 70 551 l 1
 42 642 l 1
 47 648 l 1
 72 655 75 658 101 658 c 0
 175 658 230.9 593 272 531 c 0
 329.9 443.7 334.8 360.3 419 357.1 c 1
 419 445 l 2
 419 520 415 588 407 645 c 1
 409 648 l 1
 409 648 457 645 491 645 c 0
 526 645 574 648 574 648 c 1
 575 645 l 1
 567 592 563 520 563 445 c 2
 563 379.6 l 1
 596.9 410.7 611.5 469.9 652 531 c 0
 693.1 593 749 658 823 658 c 0
 849 658 852 655 877 648 c 1
 882 642 l 1
 854 551 l 1
 843 548 l 1
 824 562 808 569 781 569 c 0
 759 569 725.1 550 691 502 c 0
 649.1 443 634 360 593 340 c 1
 593 337 l 1
 662 325 680 297 730 237 c 0
 811 140 809 89 889 0 c 1
 886 -4 l 1
 873 -2 836 0 813 0 c 0
 788 0 788 -2 766 -4 c 1
 720 73 701 117 675 169 c 0
 644.4 228.7 620.2 276.7 563 299.1 c 1
 563 200 l 2
 563 125 567 57 575 0 c 1
 573 -3 l 1
 573 -3 525 0 491 0 c 0
 456 0 408 -3 408 -3 c 1
 407 0 l 1
 415 54 419 125 419 200 c 2
 419 311.6 l 1
 317.1 303.1 288.4 245.8 249 169 c 0
EndSplineSet
Colour: ff80cc
EndChar

StartChar: afii10025
Encoding: 1047 1047 76
Width: 542
VWidth: 999
Flags: HW
HStem: -12 37<172.536 324.196> 336 37<158.005 306.843> 469 21G<49 91> 624 34<165.85 309.892>
VStem: 49 30<470.533 513.383> 375 80<432.684 569.184> 405 92<100.605 254.446>
LayerCount: 2
Fore
SplineSet
248 25 m 0
 318 25 405 68 405 176 c 0
 405 227 366 336 249 336 c 2
 176 336 l 2
 165 336 158 343 158 354 c 0
 158 365 165 373 176 373 c 2
 223 373 l 2
 342 373 375 451 375 506 c 0
 375 573 311 624 249 624 c 0
 126 624 103 550 79 469 c 1
 49 471 l 1
 69 646 l 1
 156 646 191 658 251 658 c 0
 344 658 455 611 455 516 c 0
 455 437 412 387 340 360 c 1
 411 340 497 299 497 192 c 0
 497 41 363 -12 245 -12 c 0
 164 -12 115 19 84 43 c 0
 57 64 36 91 36 118 c 0
 36 144 47 165 70 165 c 0
 98 165 108 152 119 120 c 0
 140 59 172 25 248 25 c 0
EndSplineSet
EndChar

StartChar: afii10026
Encoding: 1048 1048 77
Width: 700
VWidth: 999
Flags: HW
HStem: -3 21<94 178 178 262 500 584 584 668> 628 20<94 178 178 262 500 584 584 668>
VStem: 106 144<2.67992 642.32> 512 144<2.67992 642.32>
DStem2: 187 134 187 78 0.608002 0.793935<0 493.367>
LayerCount: 2
Fore
SplineSet
106 445 m 2
 106 520 102 588 94 645 c 1
 96 648 l 1
 96 648 144 645 178 645 c 0
 213 645 261 648 261 648 c 1
 262 645 l 1
 254 592 250 520 250 445 c 2
 250 216.3 l 1
 508.8 554.3 l 1
 506.8 586.8 503.9 617.2 500 645 c 1
 502 648 l 1
 502 648 550 645 584 645 c 0
 619 645 667 648 667 648 c 1
 668 645 l 1
 660 592 656 520 656 445 c 2
 656 200 l 2
 656 125 660 57 668 0 c 1
 666 -3 l 1
 666 -3 618 0 584 0 c 0
 549 0 501 -3 501 -3 c 1
 500 0 l 1
 508 54 512 125 512 200 c 2
 512 445 l 2
 512 464.3 511.7 483.1 511.2 501.4 c 1
 250.4 160.8 l 1
 251.6 101.3 255.4 46.9 262 0 c 1
 260 -3 l 1
 260 -3 212 0 178 0 c 0
 143 0 95 -3 95 -3 c 1
 94 0 l 1
 102 54 106 125 106 200 c 2
 106 445 l 2
EndSplineSet
EndChar

StartChar: afii10027
Encoding: 1049 1049 78
Width: 700
VWidth: 999
Flags: HW
HStem: -3 21<94 178 178 262 500 584 584 668> 628 20<94 178 178 262 500 584 584 668> 714 41<303.963 396.037>
VStem: 106 144<2.67992 642.32> 220 80<761.847 827.403> 401 79<761.847 827.796> 512 144<2.67992 642.32>
DStem2: 187 134 187 78 0.608002 0.793935<0 493.367>
LayerCount: 2
Fore
SplineSet
106 445 m 2
 106 520 102 588 94 645 c 1
 96 648 l 1
 96 648 144 645 178 645 c 0
 213 645 261 648 261 648 c 1
 262 645 l 1
 254 592 250 520 250 445 c 2
 250 216.3 l 1
 508.8 554.3 l 1
 506.8 586.8 503.9 617.2 500 645 c 1
 502 648 l 1
 502 648 550 645 584 645 c 0
 619 645 667 648 667 648 c 1
 668 645 l 1
 660 592 656 520 656 445 c 2
 656 200 l 2
 656 125 660 57 668 0 c 1
 666 -3 l 1
 666 -3 618 0 584 0 c 0
 549 0 501 -3 501 -3 c 1
 500 0 l 1
 508 54 512 125 512 200 c 2
 512 445 l 2
 512 464.3 511.7 483.1 511.2 501.4 c 1
 250.4 160.8 l 1
 251.6 101.3 255.4 46.9 262 0 c 1
 260 -3 l 1
 260 -3 212 0 178 0 c 0
 143 0 95 -3 95 -3 c 1
 94 0 l 1
 102 54 106 125 106 200 c 2
 106 445 l 2
350 755 m 0
 383 755 401 772 401 789 c 0
 401 794 400 800 400 802 c 0
 400 817 420 832 443 832 c 0
 470 832 480 818 480 799 c 0
 480 747 416 714 350 714 c 0
 284 714 220 747 220 799 c 0
 220 818 230 832 257 832 c 0
 280 832 300 817 300 802 c 0
 300 800 299 794 299 789 c 0
 299 772 317 755 350 755 c 0
EndSplineSet
LCarets2: 1 0 
Colour: ff00ff
EndChar

StartChar: afii10033
Encoding: 1055 1055 79
Width: 804
VWidth: 999
Flags: HW
HStem: -3 21<90 174 174 255 549 642 642 714> 585 60<253.326 550.674>
VStem: 101 144<2.67992 570.83> 559 144<2.67992 570.83>
LayerCount: 2
Fore
SplineSet
642 645 m 2
 676 645 712 648 712 648 c 1
 713 645 l 1
 705 591 703 520 703 445 c 2
 703 200 l 2
 703 125 706 57 714 0 c 1
 712 -3 l 1
 712 -3 676 0 642 0 c 0
 607 0 550 -3 550 -3 c 1
 549 0 l 1
 557 53 559 125 559 200 c 2
 559 445 l 2
 559 462 558 548 551 572 c 1
 544 581 540 585 525 585 c 2
 279 585 l 2
 264 585 260 581 253 572 c 1
 246 548 245 462 245 445 c 2
 245 200 l 2
 245 125 247 53 255 0 c 1
 254 -3 l 1
 254 -3 209 0 174 0 c 0
 140 0 92 -3 92 -3 c 1
 90 0 l 1
 98 57 101 125 101 200 c 2
 101 445 l 2
 101 520 99 591 91 645 c 1
 92 648 l 1
 92 648 140 645 174 645 c 2
 642 645 l 2
EndSplineSet
Colour: ff00ff
EndChar

StartChar: afii10034
Encoding: 1056 1056 80
Width: 598
VWidth: 999
Flags: HW
HStem: -3 21<81 165 165 247> 274 51<235.835 380.582> 604 48<202.526 387.538>
VStem: 93 142<2.67993 284 329.159 597.193> 422 151<399.424 566.15>
LayerCount: 2
Fore
SplineSet
235 560 m 2
 235 335 l 1
 248 328 289 325 314 325 c 0
 378.1 325 422 367 422 468 c 0
 422 587 374 604 315 604 c 0
 243 604 235 589 235 560 c 2
93 445 m 2
 93 520 89 588 81 645 c 1
 83 648 l 1
 83 648 131 645 165 645 c 0
 195 645 316 652 342 652 c 0
 413.1 652 467.7 642.6 503 618 c 0
 559 579 573 522.3 573 486 c 0
 573 401 507 274 325 274 c 0
 290 274 257 277 235 284 c 1
 235 200 l 2
 235 125 239 57 247 0 c 1
 245 -3 l 1
 245 -3 199 0 165 0 c 0
 130 0 82 -3 82 -3 c 1
 81 0 l 1
 89 54 93 125 93 200 c 2
 93 445 l 2
EndSplineSet
Colour: ff00ff
EndChar

StartChar: afii10035
Encoding: 1057 1057 81
Width: 691
VWidth: 999
Flags: HW
HStem: -10 60<329.73 503.017> 602 56<312.155 487.312>
VStem: 37 163<216.639 441.231>
LayerCount: 2
Fore
SplineSet
406 658 m 0
 528 658 624 613 624 613 c 1
 626 610 l 1
 614.2 560.7 609.6 531 606 480 c 1
 576 479 l 1
 535 561 482 602 392 602 c 0
 310 602 200 537 200 334 c 0
 200 193 292 50 401 50 c 0
 494 50 539 67 614 139 c 1
 638 105 l 1
 554 18 471.2 -10 382 -10 c 0
 297.2 -10 219.6 15.2 164 56 c 0
 78.7 118.6 37 217.5 37 315 c 0
 37 424.9 82.1 522.3 161 584 c 0
 223.5 632.8 315 658 406 658 c 0
EndSplineSet
Colour: ff00ff
EndChar

StartChar: afii10036
Encoding: 1058 1058 82
Width: 602
VWidth: 999
Flags: HW
HStem: -3 21<219 301 301 383> 567 78<17.7551 224.565 377.435 584.245>
VStem: 229 144<2.67992 565.827>
LayerCount: 2
Fore
SplineSet
229 436 m 2
 229 453 228 543 221 567 c 1
 87 567 17 545 17 545 c 1
 15 549 l 1
 17 564 17 617 15 645 c 1
 17 648 l 1
 33 646 56 645 77 645 c 2
 525 645 l 2
 546 645 569 646 585 648 c 1
 587 645 l 1
 585 617 585 564 587 549 c 1
 585 545 l 1
 585 545 515 567 381 567 c 1
 374 543 373 453 373 436 c 2
 373 200 l 2
 373 125 375 57 383 0 c 1
 381 -3 l 1
 381 -3 335 0 301 0 c 0
 266 0 220 -3 220 -3 c 1
 219 0 l 1
 227 54 229 125 229 200 c 2
 229 436 l 2
EndSplineSet
Colour: ff00ff
EndChar

StartChar: afii10037
Encoding: 1059 1059 83
Width: 580
VWidth: 999
Flags: HW
HStem: -22 67<133 228.079> 628 20G<54.5 65.8588 152.5 165.28 462.421 482 552.006 555>
DStem2: 278.595 138.281 342 161 0.410131 0.912027<-105.377 13.9628 113.393 328.053>
LayerCount: 2
Fore
SplineSet
342 161 m 2
 293.9 54.1 244 -22 154 -22 c 0
 112 -22 66 1 66 33 c 0
 66 61 81 84 113 84 c 0
 127 84 149 77 159 65 c 0
 166 56 181 45 195 45 c 0
 237.7 45 253.9 81.1 278.6 138.3 c 1
 192.3 339.9 85.7 567.8 46 648 c 1
 63 645 89 645 106 645 c 0
 123 645 144 645 161 648 c 1
 169.6 618 224.1 470.1 323.2 242.5 c 1
 384.4 386.9 448.8 546.4 476 648 c 1
 488 645 515 645 526 645 c 0
 537 645 549 645 561 648 c 1
 342 161 l 2
EndSplineSet
EndChar

StartChar: afii10039
Encoding: 1061 1061 84
Width: 643
VWidth: 999
Flags: HW
HStem: -2 28<4 61 169 190 398 420 570 617> 586 27<411 444 538 597>
DStem2: 122 99 155 73 0.593199 0.805056<-35.2356 230.04 328.87 586.289> 191 543 249 326 0.578967 -0.815351<-35.4928 216.477 291.97 559.314>
LayerCount: 2
Fore
SplineSet
606 -3 m 1
 588 0 545 0 527 0 c 0
 509 0 446 0 428 -3 c 1
 383.3 82.8 344.7 154.3 298.5 233.6 c 1
 250.8 159.3 202.7 79.6 158 -3 c 1
 147 0 118 0 106 0 c 0
 95 0 54 0 43 -3 c 1
 254.6 307.6 l 1
 200.3 397.2 133.3 502.4 38 648 c 1
 55 645 118 645 135 645 c 0
 152 645 195 645 213 648 c 1
 239 594.1 276.8 529.4 338.4 429.1 c 1
 401.5 520.9 426 559.2 474 648 c 1
 485 645 526 645 537 645 c 0
 548 645 578 645 589 648 c 1
 381.7 358.9 l 1
 606 -3 l 1
EndSplineSet
Colour: ff00ff
EndChar

StartChar: afii10040
Encoding: 1062 1062 85
Width: 639
VWidth: 999
Flags: HW
HStem: 0 44<183.144 451.533> 628 20G<78 132 132 185 448 501 501 555>
VStem: 89 86<60.1801 642.32> 458 86<46.9378 642.32> 566 36<-138 -59.6869>
LayerCount: 2
Fore
SplineSet
544 200 m 2
 544 90 550.2 35 584 32 c 0
 608.9 29.8 614 20.7 614 11 c 2
 602 -138 l 1
 600 -141 l 1
 568 -141 l 1
 566 -138 l 1
 555.1 -65.4 542.7 0 463 0 c 2
 132 0 l 2
 98 0 80 -3 80 -3 c 1
 79 0 l 1
 87 54 89 125 89 200 c 2
 89 445 l 2
 89 520 86 588 78 645 c 1
 80 648 l 1
 80 648 98 645 132 645 c 0
 167 645 184 648 184 648 c 1
 185 645 l 1
 177 592 175 520 175 445 c 2
 175 200 l 2
 175 183 176 83 183 59 c 0
 186 50 193 44 211 44 c 2
 422 44 l 2
 440 44 447 50 450 59 c 0
 457 83 458 183 458 200 c 2
 458 445 l 2
 458 520 456 592 448 645 c 1
 449 648 l 1
 449 648 466 645 501 645 c 0
 535 645 553 648 553 648 c 1
 555 645 l 1
 547 588 544 520 544 445 c 2
 544 200 l 2
EndSplineSet
EndChar

StartChar: afii10041
Encoding: 1063 1063 86
Width: 633
VWidth: 999
Flags: HW
HStem: -3 21<434 518 518 602> 244 64<213.903 364.049> 628 20G<84 137 137 190 434 518 518 602>
VStem: 94 86<340.66 642.32> 446 144<2.67992 642.32>
LayerCount: 2
Fore
SplineSet
180 445 m 2
 180 417 l 2
 180 335 220 308 292 308 c 0
 320.5 308 383 311.9 446 353 c 1
 446 445 l 2
 446 520 442 588 434 645 c 1
 436 648 l 1
 436 648 484 645 518 645 c 0
 553 645 601 648 601 648 c 1
 602 645 l 1
 594 592 590 520 590 445 c 2
 590 200 l 2
 590 125 594 57 602 0 c 1
 600 -3 l 1
 600 -3 552 0 518 0 c 0
 483 0 435 -3 435 -3 c 1
 434 0 l 1
 442 54 446 125 446 200 c 2
 446 308.9 l 1
 374.1 259.5 307.2 244 250 244 c 0
 136 244 94 323 94 422 c 2
 94 445 l 2
 94 520 92 588 84 645 c 1
 86 648 l 1
 86 648 103 645 137 645 c 0
 172 645 189 648 189 648 c 1
 190 645 l 1
 182 592 180 520 180 445 c 2
EndSplineSet
EndChar

StartChar: afii10042
Encoding: 1064 1064 87
Width: 960
VWidth: 999
Flags: HW
HStem: 0 44<197.144 430.533 531.144 766.533> 628 20G<92 146 146 199 426 480 480 533 763 816 816 870>
VStem: 103 86<60.1801 642.32> 437 86<60.1801 642.32> 773 86<47.6754 642.32>
LayerCount: 2
Fore
SplineSet
859 200 m 2
 859.3 125 861 57 869 0 c 1
 867 -3 l 1
 867 -3 850 0 816 0 c 2
 147 0 l 2
 112 0 94 -3 94 -3 c 1
 93 0 l 1
 101 54 103 125 103 200 c 2
 103 445 l 2
 103 520 100 588 92 645 c 1
 94 648 l 1
 94 648 112 645 146 645 c 0
 181 645 198 648 198 648 c 1
 199 645 l 1
 191 592 189 520 189 445 c 2
 189 200 l 2
 189 183 190 83 197 59 c 0
 200 50 207 44 225 44 c 2
 401 44 l 2
 419 44 426 50 429 59 c 0
 436 83 437 183 437 200 c 2
 437 445 l 2
 437 520 434 588 426 645 c 1
 428 648 l 1
 428 648 446 645 480 645 c 0
 515 645 532 648 532 648 c 1
 533 645 l 1
 525 592 523 520 523 445 c 2
 523 200 l 2
 523 183 524 83 531 59 c 0
 534 50 541 44 559 44 c 2
 737 44 l 2
 755 44 762 50 765 59 c 0
 772 83 773 183 773 200 c 2
 773 445 l 2
 773 520 771 592 763 645 c 1
 764 648 l 1
 764 648 781 645 816 645 c 0
 850 645 868 648 868 648 c 1
 870 645 l 1
 862 588 859 520 859 445 c 2
 859 200 l 2
EndSplineSet
EndChar

StartChar: afii10043
Encoding: 1065 1065 88
Width: 948
VWidth: 999
Flags: HW
HStem: 0 44<197.144 430.533 531.144 766.533> 628 20G<92 146 146 199 426 480 480 533 763 816 816 870>
VStem: 103 86<60.1801 642.32> 437 86<60.1801 642.32> 773 86<46.9378 642.32> 881 36<-138 -59.6869>
LayerCount: 2
Fore
SplineSet
147 0 m 2
 112 0 94 -3 94 -3 c 1
 93 0 l 1
 101 54 103 125 103 200 c 2
 103 445 l 2
 103 520 100 588 92 645 c 1
 94 648 l 1
 94 648 112 645 146 645 c 0
 181 645 198 648 198 648 c 1
 199 645 l 1
 191 592 189 520 189 445 c 2
 189 200 l 2
 189 183 190 83 197 59 c 0
 200 50 207 44 225 44 c 2
 401 44 l 2
 419 44 426 50 429 59 c 0
 436 83 437 183 437 200 c 2
 437 445 l 2
 437 520 434 588 426 645 c 1
 428 648 l 1
 428 648 446 645 480 645 c 0
 515 645 532 648 532 648 c 1
 533 645 l 1
 525 592 523 520 523 445 c 2
 523 200 l 2
 523 183 524 83 531 59 c 0
 534 50 541 44 559 44 c 2
 737 44 l 2
 755 44 762 50 765 59 c 0
 772 83 773 183 773 200 c 2
 773 445 l 2
 773 520 771 592 763 645 c 1
 764 648 l 1
 764 648 781 645 816 645 c 0
 850 645 868 648 868 648 c 1
 870 645 l 1
 862 588 859 520 859 445 c 2
 859 200 l 2
 859 90 865.3 35 899 32 c 0
 923.9 29.8 929 20.7 929 11 c 2
 917 -138 l 1
 915 -141 l 1
 883 -141 l 1
 881 -138 l 1
 870.1 -65.4 857.7 0 778 0 c 2
 147 0 l 2
EndSplineSet
EndChar

StartChar: afii10044
Encoding: 1066 1066 89
Width: 717
VWidth: 999
Flags: HW
HStem: -2 35<330.629 502.725> 329 44<348 522.728> 569 21G<50 254> 581 64<52.7551 257.32>
VStem: 262 86<37.7419 329 373 578.197> 587 94<103.061 266.903>
LayerCount: 2
Fore
SplineSet
348 329 m 1
 348 84 l 2
 348 51 350 33 405 33 c 0
 557 33 587 121 587 183 c 0
 587 243 561 329 433 329 c 2
 348 329 l 1
302 645 m 2
 340 645 357 648 357 648 c 1
 358 645 l 1
 350 592 350.1 520 348 445 c 1
 348 373 l 1
 406 373 l 2
 652 373 681 272 681 183 c 0
 681 16 524 -2 403 -2 c 0
 367 -2 336 0 307 0 c 0
 273 0 253 -3 253 -3 c 1
 252 0 l 1
 260 54 262 125 262 200 c 2
 262 445 l 2
 261.8 462 261 557 254 581 c 1
 120 581 52 569 52 569 c 1
 50 573 l 1
 52 588 52 617 50 645 c 1
 52 648 l 1
 68 646 91 645 112 645 c 2
 302 645 l 2
EndSplineSet
EndChar

StartChar: afii10045
Encoding: 1067 1067 90
Width: 786
VWidth: 999
Flags: HW
HStem: -2 21<586 670 670 754> -2 35<171.629 343.725> 329 44<189 363.728> 628 20<92 146 146 199> 629 20<586 670 670 754>
VStem: 103 86<37.7419 329 373 642.32> 428 94<103.061 266.903> 598 144<3.67992 643.32>
LayerCount: 2
Fore
SplineSet
598 446 m 2
 598 521 594 589 586 646 c 1
 588 649 l 1
 588 649 636 646 670 646 c 0
 705 646 753 649 753 649 c 1
 754 646 l 1
 746 593 742 521 742 446 c 2
 742 201 l 2
 742 126 746 58 754 1 c 1
 752 -2 l 1
 752 -2 704 1 670 1 c 0
 635 1 587 -2 587 -2 c 1
 586 1 l 1
 594 55 598 126 598 201 c 2
 598 446 l 2
148 0 m 0
 114 0 94 -3 94 -3 c 1
 93 0 l 1
 101 54 103 125 103 200 c 2
 103 445 l 2
 103 520 100 588 92 645 c 1
 94 648 l 1
 94 648 112 645 146 645 c 0
 181 645 198 648 198 648 c 1
 199 645 l 1
 191 592 189 520 189 445 c 2
 189 373 l 1
 247 373 l 2
 493 373 522 272 522 183 c 0
 522 16 365 -2 244 -2 c 0
 208 -2 177 0 148 0 c 0
189 329 m 1
 189 84 l 2
 189 51 191 33 246 33 c 0
 398 33 428 121 428 183 c 0
 428 243 402 329 274 329 c 2
 189 329 l 1
EndSplineSet
Colour: ff00ff
EndChar

StartChar: afii10046
Encoding: 1068 1068 91
Width: 558
VWidth: 999
Flags: HW
HStem: -2 35<171.629 343.725> 329 44<189 363.728> 628 20G<92 146 146 199>
VStem: 103 86<37.7419 329 373 642.32> 428 94<103.061 266.903>
LayerCount: 2
Fore
SplineSet
148 0 m 0
 114 0 94 -3 94 -3 c 1
 93 0 l 1
 101 54 103 125 103 200 c 2
 103 445 l 2
 103 520 100 588 92 645 c 1
 94 648 l 1
 94 648 112 645 146 645 c 0
 181 645 198 648 198 648 c 1
 199 645 l 1
 191 592 189 520 189 445 c 2
 189 373 l 1
 247 373 l 2
 493 373 522 272 522 183 c 0
 522 16 365 -2 244 -2 c 0
 208 -2 177 0 148 0 c 0
189 329 m 1
 189 84 l 2
 189 51 191 33 246 33 c 0
 398 33 428 121 428 183 c 0
 428 243 402 329 274 329 c 2
 189 329 l 1
EndSplineSet
EndChar

StartChar: afii10047
Encoding: 1069 1069 92
Width: 604
VWidth: 999
Flags: HMW
HStem: -12 34<194 359> 273 56<309 422> 311 49<155 284> 621 37<189 346>
VStem: 472 89<186 307 344 460>
LayerCount: 2
Fore
SplineSet
472 307 m 1
 417 273 373 273 360 273 c 0
 298 273 255 311 196 311 c 0
 158 311 142 295 134 295 c 0
 130 295 125 298 125 307 c 0
 125 332 188 360 247 360 c 0
 313 360 342 329 400 329 c 0
 429 329 452 335 471 344 c 1
 461 550 352 621 271 621 c 0
 176 621 98 540 72 454 c 1
 42 458 l 1
 53 511 61 558 63 613 c 1
 121 616 174 658 279 658 c 0
 444 658 561 550 561 333 c 0
 561 113 445 -12 275 -12 c 0
 189 -12 133 19 102 43 c 0
 75 64 54 95 54 122 c 0
 54 148 66 165 84 165 c 0
 113 165 125 152 135 120 c 0
 159 48 214 21 286 21 c 0
 413 21 471 169 472 307 c 1
EndSplineSet
EndChar

StartChar: afii10048
Encoding: 1070 1070 93
Width: 905
VWidth: 999
Flags: HW
HStem: -12 39<517.224 661.561> -3 21<94 178 178 262> 302 44<187 285> 619 39<495.321 644.165> 628 20<94 178 178 262>
VStem: 106 144<2.67992 642.32> 285 96<193.326 302 346 446.919> 770 96<190.805 458.298>
LayerCount: 2
Fore
SplineSet
562 619 m 0
 478 619 381 537 381 327 c 0
 381 135 484 27 592 27 c 0
 695 27 770 131 770 310 c 0
 770 518 687 619 562 619 c 0
106 445 m 2
 106 520 102 588 94 645 c 1
 96 648 l 1
 96 648 144 645 178 645 c 0
 213 645 261 648 261 648 c 1
 262 645 l 1
 254 592 250 520 250 445 c 2
 250 346 l 1
 286 346 l 1
 299 525 417 658 573 658 c 0
 741 658 866 527 866 329 c 0
 866 129 752 -12 574 -12 c 0
 416 -12 287 108 285 302 c 1
 250 302 l 1
 250 200 l 2
 250 125 254 57 262 0 c 1
 260 -3 l 1
 260 -3 212 0 178 0 c 0
 143 0 95 -3 95 -3 c 1
 94 0 l 1
 102 54 106 125 106 200 c 2
 106 445 l 2
EndSplineSet
EndChar

StartChar: afii10049
Encoding: 1071 1071 94
Width: 561
VWidth: 999
Flags: HW
HStem: -3 21G<0 12 112.5 127.5 370 423 423 476> 286 44<273.038 380> 613 39<216.656 397.701>
VStem: 71 97<391.218 564.52> 380 86<2.67992 286 330 603.161>
LayerCount: 2
Fore
SplineSet
297 613 m 0
 236 613 168 596 168 478 c 0
 168 353 235 330 332 330 c 2
 380 330 l 1
 380 569 l 2
 380 598 368 613 297 613 c 0
219.2 300 m 1
 199 305.1 184.1 311.3 171 318 c 0
 117 345 71 397 71 479 c 0
 71 529 88 570 124 604 c 0
 172 649 235 652 298 652 c 0
 323 652 393 645 423 645 c 0
 457 645 474 648 474 648 c 1
 476 645 l 1
 468 588 466 520 466 445 c 2
 466 200 l 2
 466 125 468 54 476 0 c 1
 475 -3 l 1
 475 -3 458 0 423 0 c 0
 389 0 372 -3 372 -3 c 1
 370 0 l 1
 378 57 380 125 380 200 c 2
 380 286 l 1
 355.1 286 333.2 286.6 313.9 287.6 c 1
 285.4 254.7 256.5 214.9 229 176 c 0
 178.1 103.9 133 31 122 -3 c 1
 103 0 73 0 54 0 c 0
 34 0 22 0 2 -3 c 1
 0 0 l 1
 50.1 56.7 155.4 215.9 219.2 300 c 1
EndSplineSet
EndChar

StartChar: afii10089
Encoding: 1095 1095 95
Width: 510
VWidth: 999
Flags: HW
HStem: -3 21<318 335 453 470> 137 44<162.252 301.419> 412 20G<57 107 107 157 318 330.237 454.006 464>
VStem: 68 80<195.691 426.366> 328 132<2.6647 421.154>
LayerCount: 2
Fore
SplineSet
68 291 m 0
 68 366.5 65 376 57 429 c 1
 58 432 l 1
 58 432 72 429 107 429 c 0
 141 429 155 432 155 432 c 1
 157 429 l 1
 149 372 148 368 148 293 c 0
 148 215 155 181 217 181 c 0
 262.5 181 297.6 191.3 328 218.4 c 1
 328 235 l 2
 328 310 326 385 318 428 c 1
 321 432 l 1
 339.5 431.5 366 429 392 429 c 0
 420 429 447 432.4 461 434 c 0
 467 434 470 431 470 424 c 0
 465 363 460 321 460 246 c 2
 460 180 l 2
 460 104 462 57 470 0 c 1
 468 -3 l 1
 438 -1 428 0 394 0 c 0
 359 0 350 -1 320 -3 c 1
 318 0 l 1
 325.8 52.8 327.9 102.7 328 174.9 c 1
 292 149.4 260.4 137 204 137 c 0
 106 137 68 185 68 291 c 0
EndSplineSet
EndChar

StartChar: afii10090
Encoding: 1096 1096 96
Width: 807
VWidth: 999
Flags: HW
HStem: 0 41<185.326 354.674 451.326 622.533> 412 20G<87 137 137 187 353 403 403 453 619 670 670 720>
VStem: 97 80<55.1837 426.335> 363 80<55.1837 426.335> 629 80<43.5547 426.335>
CounterMasks: 1 38
LayerCount: 2
Fore
SplineSet
709 200 m 2
 709 125.5 711 54 719 0 c 1
 718 -3 l 1
 718 -3 700 0 666 0 c 2
 140 0 l 2
 106 0 88 -3 88 -3 c 1
 87 0 l 1
 95 54 97 125 97 200 c 2
 97 250 l 2
 97 325 96 372 87 429 c 1
 89 432 l 1
 89 432 103 429 137 429 c 0
 172 429 186 432 186 432 c 1
 187 429 l 1
 178 375 177 324 177 250 c 2
 177 200 l 2
 177 183 178 78 185 54 c 1
 192 45 196 41 211 41 c 2
 329 41 l 2
 344 41 348 45 355 54 c 1
 362 78 363 183 363 200 c 2
 363 250 l 2
 363 325 362 372 353 429 c 1
 355 432 l 1
 355 432 369 429 403 429 c 0
 438 429 452 432 452 432 c 1
 453 429 l 1
 444 375 443 324 443 250 c 2
 443 200 l 2
 443 183 444 78 451 54 c 1
 458 45 462 41 477 41 c 2
 609 41 l 2
 624 41 614 45 621 54 c 1
 628 78 629 183 629 200 c 2
 629 249 l 2
 629 325 627.5 372 619 429 c 1
 621 432 l 1
 621 432 635.7 429 670 429 c 0
 705 429 719 432 719 432 c 1
 720 429 l 1
 711.5 375.5 709 324.1 709 249 c 2
 709 200 l 2
EndSplineSet
EndChar

StartChar: afii10091
Encoding: 1097 1097 97
Width: 813
VWidth: 999
Flags: HW
HStem: 0 41<185.326 354.674 451.326 622.533> 412 20G<87 137 137 187 353 403 403 453 619 670 670 720>
VStem: 97 80<55.1837 426.335> 363 80<55.1837 426.335> 629 80<41.465 426.335> 731 36<-125 -51.0881>
LayerCount: 2
Fore
SplineSet
140 0 m 2
 106 0 88 -3 88 -3 c 1
 87 0 l 1
 95 54 97 125 97 200 c 2
 97 250 l 2
 97 325 96 372 87 429 c 1
 89 432 l 1
 89 432 103 429 137 429 c 0
 172 429 186 432 186 432 c 1
 187 429 l 1
 178 375 177 324 177 250 c 2
 177 200 l 2
 177 183 178 78 185 54 c 1
 192 45 196 41 211 41 c 2
 329 41 l 2
 344 41 348 45 355 54 c 1
 362 78 363 183 363 200 c 2
 363 250 l 2
 363 325 362 372 353 429 c 1
 355 432 l 1
 355 432 369 429 403 429 c 0
 438 429 452 432 452 432 c 1
 453 429 l 1
 444 375 443 324 443 250 c 2
 443 200 l 2
 443 183 444 78 451 54 c 1
 458 45 462 41 477 41 c 2
 609 41 l 2
 624 41 614 45 621 54 c 1
 628 78 629 183 629 200 c 2
 629 249 l 2
 629 325 627.5 372 619 429 c 1
 621 432 l 1
 621 432 635.7 429 670 429 c 0
 705 429 719 432 719 432 c 1
 720 429 l 1
 711.5 375.5 709 324.1 709 249 c 2
 709 200 l 2
 709 90 715.3 35 749 32 c 0
 773.9 29.8 779 20.7 779 11 c 2
 767 -125 l 1
 765 -128 l 1
 733 -128 l 1
 731 -125 l 1
 720.1 -52.4 707.7 0 628 0 c 2
 140 0 l 2
EndSplineSet
EndChar

StartChar: afii10092
Encoding: 1098 1098 98
Width: 539
VWidth: 999
Flags: HW
HStem: -2 36<257.183 402.245> 219 37<273 402.262> 374 55<34.7075 190>
VStem: 193 80<40.3429 219 256 372.311> 428 80<60.92 197.087>
LayerCount: 2
Fore
SplineSet
428 126 m 0
 428 179 411 219 340 219 c 2
 273 219 l 1
 273 79 l 2
 273 44 290 34 336 34 c 0
 386 34 428 44 428 126 c 0
193 250 m 2
 193 321 190 374 190 374 c 1
 65 374 34 363 34 363 c 1
 32 366 l 1
 34 380 34 403 32 429 c 1
 34 431 l 1
 49 430 70 429 89 429 c 2
 233 429 l 2
 267 429 281 432 281 432 c 1
 283 429 l 1
 274 372 273 334 273 259 c 2
 273 256 l 1
 330 256 l 2
 426 256 508 230 508 136 c 0
 508 52 446 -2 335 -2 c 0
 295.2 -2 272.8 0 233 0 c 0
 198 0 184 -3 184 -3 c 1
 183 0 l 1
 192 54 193 105 193 179 c 2
 193 250 l 2
EndSplineSet
EndChar

StartChar: afii10093
Encoding: 1099 1099 99
Width: 681
VWidth: 999
Flags: HW
HStem: -3 21<491 508 626 643> -2 36<165.183 310.245> 219 37<181 310.262> 412 20<91 141 141 191 491 503.237 627.006 637>
VStem: 101 80<40.3429 219 256 426.342> 336 80<60.92 197.087> 501 132<2.6647 421.154>
LayerCount: 2
Fore
SplineSet
501 235 m 2
 501 310 499 385 491 428 c 1
 494 432 l 1
 512.5 431.5 539 429 565 429 c 0
 593 429 620 432.4 634 434 c 0
 640 434 643 431 643 424 c 0
 638 363 633 321 633 246 c 2
 633 180 l 2
 633 104 635 57 643 0 c 1
 641 -3 l 1
 611 -1 601 0 567 0 c 0
 532 0 523 -1 493 -3 c 1
 491 0 l 1
 499 54 501 105 501 180 c 2
 501 235 l 2
336 126 m 0
 336 179 319 219 248 219 c 2
 181 219 l 1
 181 79 l 2
 181 44 198 34 244 34 c 0
 294 34 336 44 336 126 c 0
181 259 m 2
 181 256 l 1
 238 256 l 2
 334 256 416 230 416 136 c 0
 416 52 354 -2 243 -2 c 0
 203.2 -2 180.8 0 141 0 c 0
 106 0 92 -3 92 -3 c 1
 91 0 l 1
 100 54 101 105 101 179 c 2
 101 250 l 2
 101 321 100 375 91 429 c 1
 92 432 l 1
 92 432 106 429 141 429 c 0
 175 429 189 432 189 432 c 1
 191 429 l 1
 182 372 181 334 181 259 c 2
EndSplineSet
Colour: ff00ff
EndChar

StartChar: afii10094
Encoding: 1100 1100 100
Width: 447
VWidth: 999
Flags: HW
HStem: -2 36<165.183 310.245> 219 37<181 310.262> 412 20G<91 141 141 191>
VStem: 101 80<40.3429 219 256 426.342> 336 80<60.92 197.087>
LayerCount: 2
Fore
SplineSet
336 126 m 0
 336 179 319 219 248 219 c 2
 181 219 l 1
 181 79 l 2
 181 44 198 34 244 34 c 0
 294 34 336 44 336 126 c 0
181 259 m 2
 181 256 l 1
 238 256 l 2
 334 256 416 230 416 136 c 0
 416 52 354 -2 243 -2 c 0
 203.2 -2 180.8 0 141 0 c 0
 106 0 92 -3 92 -3 c 1
 91 0 l 1
 100 54 101 105 101 179 c 2
 101 250 l 2
 101 321 100 375 91 429 c 1
 92 432 l 1
 92 432 106 429 141 429 c 0
 175 429 189 432 189 432 c 1
 191 429 l 1
 182 372 181 334 181 259 c 2
EndSplineSet
EndChar

StartChar: afii10095
Encoding: 1101 1101 101
Width: 434
VWidth: 999
Flags: HMW
HStem: -10 31<133.489 237.744> 180 49<160.832 302.074> 207 41<92.6331 188.46> 408 31<122.738 236.146>
VStem: 314 77<116.594 208 230.421 318.818>
LayerCount: 2
Fore
SplineSet
313 236 m 1
 306 309 272 408 182 408 c 0
 102 408 81 351 67 290 c 1
 40 294 l 1
 46 338 49 372 51 427 c 1
 121 427 121 439 192 439 c 0
 315 439 391 335 391 225 c 0
 391 68 284 -10 178 -10 c 0
 96 -10 37 34 37 86 c 0
 37 100 49 115 67 115 c 0
 78 115 100 111 105 78 c 0
 111 44 142 21 185 21 c 0
 279 21 314 130 314 208 c 1
 292 196 259 180 228 180 c 0
 184 180 155 207 120 207 c 0
 108 207 98 202 90 202 c 0
 84 202 83 211 83 215 c 0
 83 230 128 248 171 248 c 0
 216 248 233 229 271 229 c 0
 287 229 301 231 313 236 c 1
EndSplineSet
EndChar

StartChar: afii10096
Encoding: 1102 1102 102
Width: 686
VWidth: 999
Flags: HW
HStem: -10 40<417.354 526.87> -3 21<78 95 213 230> 198 39<171 268> 401 38<398.927 505.267> 412 20<78 90.2366 214.006 224>
VStem: 88 132<2.6647 421.154> 268 85<110.436 198 237 323.327> 564 85<107.458 329.038>
LayerCount: 2
Fore
SplineSet
449 401 m 0
 375 401 353 313 353 226 c 0
 353 149 381 30 475 30 c 0
 516 30 564 53 564 185 c 0
 564 331 527 401 449 401 c 0
88 235 m 2
 88 310 86 385 78 428 c 1
 81 432 l 1
 99.5 431.5 126 429 152 429 c 0
 180 429 207 432.4 221 434 c 0
 227 434 230 431 230 424 c 0
 225 363 220 321 220 246 c 2
 220 237 l 1
 269 237 l 1
 279 356 344 439 459 439 c 0
 603 439 649 321 649 217 c 0
 649 117 597 -10 458 -10 c 0
 330 -10 270 97 268 198 c 1
 220 198 l 1
 220 180 l 2
 220 104 222 57 230 0 c 1
 228 -3 l 1
 198 -1 188 0 154 0 c 0
 119 0 110 -1 80 -3 c 1
 78 0 l 1
 86 54 88 105 88 180 c 2
 88 235 l 2
EndSplineSet
EndChar

StartChar: afii10097
Encoding: 1103 1103 103
Width: 429
VWidth: 999
Flags: HW
HStem: -3 30<10 25> 195 35<206.934 268> 204 26<157.163 165> 402 30<151.259 285.062>
VStem: 38 85<253.842 371.816> 268 80<2.65817 195 230 398.777>
LayerCount: 2
Fore
SplineSet
268 230 m 1
 268 366 l 2
 268 398 253 402 214 402 c 0
 140 402 123 368 123 321 c 0
 123 271 146 230 203 230 c 2
 268 230 l 1
348 251 m 2
 348 178 l 2
 348 108 349 54 358 0 c 1
 357 -3 l 1
 357 -3 343 0 308 0 c 0
 274 0 260 -3 260 -3 c 1
 258 0 l 1
 267 57 268 95 268 169 c 2
 268 195 l 1
 243 195 l 2
 203 195 179 145 159 84 c 0
 145 43 118 1 83 0 c 2
 10 -3 l 1
 7 0 l 1
 7 19 l 2
 7 26 13 27 17 27 c 2
 25 28 l 2
 52 31 86 98 100 136 c 0
 116 177 137 198 165 204 c 1
 110 204 38 239 38 310 c 0
 38 339 56 432 217 432 c 0
 254 432 272 429 308 429 c 0
 343 429 357 432 357 432 c 1
 358 429 l 1
 349 375 348 324 348 251 c 2
EndSplineSet
EndChar

StartChar: uni04AE
Encoding: 1198 1198 104
Width: 653
VWidth: 999
Flags: HW
HStem: -3 21<251.856 257 406 411.839> 628 20<24.5 35.9923 183.5 217.394 497.341 527 570.247 619.5>
VStem: 256 150.2<2.08823 307.334>
LayerCount: 2
Fore
SplineSet
406.2 304.2 m 1
 406.9 205.1 409.7 48 414 -3 c 1
 398 0 346 0 331 0 c 0
 316 0 265 0 249 -3 c 1
 254.7 52.5 255.8 177.5 256 275.1 c 1
 217.9 340.2 56 588 16 648 c 1
 33 645 97 645 114 645 c 0
 131 645 175 645 192 648 c 1
 242.8 548.3 297.9 458.8 357.2 357.5 c 1
 412.3 445.1 473.7 549.7 521 648 c 1
 533 645 566 645 579 645 c 0
 591 645 613 645 626 648 c 1
 514.5 477.5 448 380.9 406.2 304.2 c 1
EndSplineSet
Colour: ff00ff
EndChar

StartChar: uni04C0
Encoding: 1216 1216 105
Width: 351
VWidth: 999
Flags: HW
HStem: -3 21<94 178 178 262> 628 20<94 178 178 262>
VStem: 106 144<2.67992 642.32>
LayerCount: 2
Fore
SplineSet
106 445 m 2
 106 520 102 588 94 645 c 1
 96 648 l 1
 96 648 144 645 178 645 c 0
 213 645 261 648 261 648 c 1
 262 645 l 1
 254 592 250 520 250 445 c 2
 250 200 l 2
 250 125 254 57 262 0 c 1
 260 -3 l 1
 260 -3 212 0 178 0 c 0
 143 0 95 -3 95 -3 c 1
 94 0 l 1
 102 54 106 125 106 200 c 2
 106 445 l 2
EndSplineSet
Colour: ff00ff
EndChar

StartChar: uni04D0
Encoding: 1232 1232 106
Width: 701
VWidth: 999
Flags: HW
HStem: -3 21<26 70.5 115 128.893 503.999 515.5 654 670.5> 221 53<223.642 411.509> 638 20<267 451> 715 41<282.963 375.037>
VStem: 199 80<762.847 828.403> 380 79<762.847 828.796>
DStem2: 20 -3 200.278 219.172 0.407548 0.913184<44.0152 286.317 337.696 574.92> 405 658 323.043 494 0.382928 -0.923778<120.116 356.239>
LayerCount: 2
Fore
SplineSet
329 756 m 0
 362 756 380 773 380 790 c 0
 380 795 379 801 379 803 c 0
 379 818 399 833 422 833 c 0
 449 833 459 819 459 800 c 0
 459 748 395 715 329 715 c 0
 263 715 199 748 199 800 c 0
 199 819 209 833 236 833 c 0
 259 833 279 818 279 803 c 0
 279 801 278 795 278 790 c 0
 278 773 296 756 329 756 c 0
411.5 275.1 m 1
 387.3 338 358.7 411 323 494 c 1
 317.1 494 l 1
 223.6 275.9 l 1
 255.3 275.5 299.1 274 328 274 c 0
 351.7 274 383.1 274.5 411.5 275.1 c 1
200.3 219.2 m 1
 166.2 135.1 136.8 56.2 121 -3 c 1
 109 0 87 0 76 0 c 0
 65 0 32 0 20 -3 c 1
 121 218 219 436 315 658 c 1
 405 658 l 1
 491 439 629 98 679 -3 c 1
 662 0 605 0 588 0 c 0
 571 0 524 0 507 -3 c 1
 501 18.7 479.3 93.7 432.5 219.7 c 1
 399.8 220.4 365.1 221 333 221 c 0
 297.3 221 238.3 220.1 200.3 219.2 c 1
EndSplineSet
LCarets2: 1 0 
Colour: ff00ff
EndChar

StartChar: uni04D1
Encoding: 1233 1233 107
Width: 516
VWidth: 999
Flags: HW
HStem: -10 60<136 258.155 437.552 489.224> 385 54<176.375 291.887> 498 41<167.718 248.739>
VStem: 34 134<62.0884 164.206> 82 83<542.682 622.64> 251 83<542.363 622.388> 311 130<84.3444 222 271.049 367.104>
DStem2: 188 240 231 201 0.966645 0.25612<-22.5783 114.287>
LayerCount: 2
Fore
SplineSet
311 222 m 1
 231 201 l 2
 180.8 187.8 168 143.1 168 107 c 0
 168 80 190 50 220 50 c 0
 248 50 271 61 294 84 c 0
 301.1 91.1 309 116 309 129 c 2
 311 222 l 1
437 80 m 0
 437 47 458 44 498 44 c 1
 504 39 506.7 31.7 508 23 c 1
 478 0 428.1 -10 389 -10 c 0
 346 -10 324 7 310 48 c 1
 308 48 l 1
 263 3 210.1 -10 171 -10 c 0
 101 -10 34 29 34 98 c 0
 34 166 92 217 188 240 c 1
 305 271 l 2
 308 272 311 276 311 283 c 0
 311 360.1 286 385 242 385 c 0
 197 385 153 356 119 306 c 1
 86 307 l 1
 66 382 l 1
 69 386 l 1
 93 407 179 439 251 439 c 0
 299.1 439.6 369.3 427.5 401 399.1 c 0
 428.6 374.3 441 337.1 441 277 c 0
 441 266 437 109 437 80 c 0
334 590 m 0
 334 535 271 498 207 498 c 0
 142 498 82 536 82 590 c 0
 82 612 103 628 126 628 c 0
 148 628 165 609 165 593 c 0
 165 590 165 588 164 585 c 0
 163 582 163 579 163 577 c 0
 163 555 178 539 208 539 c 0
 237 539 253 554 253 576 c 0
 253 579 253 582 252 585 c 0
 251 587 251 589 251 592 c 0
 251 609 273 628 291 628 c 0
 315 628 334 616 334 590 c 0
EndSplineSet
LCarets2: 1 0 
Colour: ff00ff
EndChar

StartChar: uni04D2
Encoding: 1234 1234 108
Width: 701
VWidth: 999
Flags: HW
HStem: -3 21<26 70.5 115 128.893 503.999 515.5 654 670.5> 221 53<223.642 411.509> 638 20<267 451> 694 125<192.107 285.707 401.293 494.893>
VStem: 177 124<709.537 803.707> 386 124<709.537 803.707>
DStem2: 20 -3 200.278 219.172 0.407548 0.913184<44.0152 286.317 337.696 574.92> 405 658 323.043 494 0.382928 -0.923778<120.116 356.239>
LayerCount: 2
Fore
SplineSet
386 756 m 0
 386 791 414 819 449 819 c 0
 482 819 510 791 510 756 c 0
 510 723 482 694 449 694 c 0
 414 694 386 723 386 756 c 0
177 756 m 0
 177 791 205 819 238 819 c 0
 273 819 301 791 301 756 c 0
 301 723 273 694 238 694 c 0
 205 694 177 723 177 756 c 0
411.5 275.1 m 1
 387.3 338 358.7 411 323 494 c 1
 317.1 494 l 1
 223.6 275.9 l 1
 255.3 275.5 299.1 274 328 274 c 0
 351.7 274 383.1 274.5 411.5 275.1 c 1
200.3 219.2 m 1
 166.2 135.1 136.8 56.2 121 -3 c 1
 109 0 87 0 76 0 c 0
 65 0 32 0 20 -3 c 1
 121 218 219 436 315 658 c 1
 405 658 l 1
 491 439 629 98 679 -3 c 1
 662 0 605 0 588 0 c 0
 571 0 524 0 507 -3 c 1
 501 18.7 479.3 93.7 432.5 219.7 c 1
 399.8 220.4 365.1 221 333 221 c 0
 297.3 221 238.3 220.1 200.3 219.2 c 1
EndSplineSet
LCarets2: 1 0 
Colour: ff00ff
EndChar

StartChar: uni04D3
Encoding: 1235 1235 109
Width: 516
VWidth: 999
Flags: HW
HStem: -10 60<136 258.155 437.552 489.224> 385 54<176.375 291.887> 509 125<95.1072 188.707 304.293 397.893>
VStem: 34 134<62.0884 164.206> 80 124<524.537 618.707> 289 124<524.537 618.707> 311 130<84.3444 222 271.049 367.104>
DStem2: 188 240 231 201 0.966645 0.25612<-22.5783 114.287>
LayerCount: 2
Fore
SplineSet
289 571 m 0
 289 606 317 634 352 634 c 0
 385 634 413 606 413 571 c 0
 413 538 385 509 352 509 c 0
 317 509 289 538 289 571 c 0
80 571 m 0
 80 606 108 634 141 634 c 0
 176 634 204 606 204 571 c 0
 204 538 176 509 141 509 c 0
 108 509 80 538 80 571 c 0
311 222 m 1
 231 201 l 2
 180.8 187.8 168 143.1 168 107 c 0
 168 80 190 50 220 50 c 0
 248 50 271 61 294 84 c 0
 301.1 91.1 309 116 309 129 c 2
 311 222 l 1
437 80 m 0
 437 47 458 44 498 44 c 1
 504 39 506.7 31.7 508 23 c 1
 478 0 428.1 -10 389 -10 c 0
 346 -10 324 7 310 48 c 1
 308 48 l 1
 263 3 210.1 -10 171 -10 c 0
 101 -10 34 29 34 98 c 0
 34 166 92 217 188 240 c 1
 305 271 l 2
 308 272 311 276 311 283 c 0
 311 360.1 286 385 242 385 c 0
 197 385 153 356 119 306 c 1
 86 307 l 1
 66 382 l 1
 69 386 l 1
 93 407 179 439 251 439 c 0
 299.1 439.6 369.3 427.5 401 399.1 c 0
 428.6 374.3 441 337.1 441 277 c 0
 441 266 437 109 437 80 c 0
EndSplineSet
LCarets2: 1 0 
Colour: ff00ff
EndChar

StartChar: uni04D4
Encoding: 1236 1236 110
Width: 842
VWidth: 999
Flags: HW
HStem: 0 70.6<492.929 757.492> 215 54<209.525 463.333> 311 62<492 718.397> 574.3 70.7<519.047 781.245>
LayerCount: 2
Fore
SplineSet
205.2 213.3 m 1
 164.7 130.8 129.9 54.3 108 -3 c 1
 96 0 74 0 63 0 c 0
 52 0 11 0 -1 -3 c 1
 105 200 214 402 357 647.7 c 1
 392 645.2 l 1
 440 645.2 l 1
 478.1 645 l 1
 722 645 l 2
 743 645 766 646 782 648 c 1
 784 645 l 1
 783 631 782 612 782 604 c 0
 782 595 783 576 784 568 c 1
 782 564 l 1
 782 564 654.7 574.3 549 574.3 c 0
 537.3 574.3 527.1 574.2 518.2 574 c 1
 519.3 515.4 520.1 444.9 521.1 373.1 c 1
 619.6 373.9 671.1 378.4 725 383 c 1
 728 380 l 1
 726 371 725 356 725 347 c 0
 725 338 726 313 728 304 c 1
 725 301 l 1
 667.8 306.8 578.4 309.8 522.1 310.7 c 1
 523.5 221.4 525.5 134.8 529.1 70.8 c 1
 630.7 74.5 792 91 792 91 c 2
 794 87 l 1
 793 79 792 54 792 44 c 0
 792 34 793 14 794 0 c 1
 792 -3 l 1
 776 -1 753 0 732 0 c 2
 535 0 l 1
 523.5 0 l 1
 440 0 l 2
 423 0 402 0 385 -3 c 1
 385 22.9 385.3 109.6 385.6 214.8 c 1
 373.6 214.9 361.6 215 350 215 c 0
 316.6 215 246.1 214.2 205.2 213.3 c 1
385.7 269.3 m 1
 386 357.3 386.3 452.5 386.5 533.5 c 1
 374.5 533.5 l 1
 328.9 453.2 279.1 360.3 233.8 270.7 c 1
 269.1 270.2 319.4 269 345 269 c 0
 357.1 269 371.1 269.1 385.7 269.3 c 1
EndSplineSet
Colour: ff00ff
EndChar

StartChar: uni04D5
Encoding: 1237 1237 111
Width: 771
VWidth: 999
Flags: HW
HStem: -10 50<166.273 273.917> -10 60<512.767 652.361> 208 50<200.98 311 450 614.659> 394 45<163.569 283.81 494.687 594.967>
VStem: 23 129<52.3757 165.935> 311 138<117.749 208 258 339.479> 621 123<263.568 366.599>
LayerCount: 2
Fore
SplineSet
311 210 m 1
 165 198 152 157 152 106 c 0
 152 61 179.7 40 208 40 c 0
 248 40 288.9 61 304 100 c 0
 311 118 311 160 311 210 c 1
450 258 m 1
 604 266 621 245 621 306 c 0
 621 338 599 394 546 394 c 0
 482.9 394 453 321 450 258 c 1
219 394 m 0
 170 394 122 340 93 295 c 1
 63 296 l 1
 46 373 l 1
 49 377 l 1
 76 397 149 439 229 439 c 0
 268 439 371 429 393 358 c 1
 427 409 494 439 557 439 c 0
 607.1 439 651.1 430.7 681 410 c 0
 725.7 379.1 744 329.4 744 309 c 0
 744 278 741 247 724 227 c 1
 685 207 598 215 449 208 c 1
 449 102 517 50 576 50 c 0
 635 50 677 72 710 107 c 1
 721.1 102.9 731.2 93.6 737 84 c 1
 705 30 633 -10 560 -10 c 0
 460 -10 414 34 392 59 c 1
 354 12 264 -10 204 -10 c 0
 88 -10 23 33 23 101 c 0
 23 147 48.4 186.7 110 214 c 0
 159.6 236 227.5 249.6 311 255 c 1
 310 349 299 394 219 394 c 0
EndSplineSet
Colour: ff00ff
EndChar

StartChar: uni04D6
Encoding: 1238 1238 112
Width: 584
VWidth: 999
Flags: HW
HStem: 0 73<244.435 487.022> 311 61<240 463.736> 577 68<244.435 479.755> 715 41<227.963 320.037>
VStem: 96 144<74.1699 311 372 575.826> 144 80<762.847 828.403> 325 79<762.847 828.796>
LayerCount: 2
Fore
SplineSet
274 756 m 0
 307 756 325 773 325 790 c 0
 325 795 324 801 324 803 c 0
 324 818 344 833 367 833 c 0
 394 833 404 819 404 800 c 0
 404 748 340 715 274 715 c 0
 208 715 144 748 144 800 c 0
 144 819 154 833 181 833 c 0
 204 833 224 818 224 803 c 0
 224 801 223 795 223 790 c 0
 223 773 241 756 274 756 c 0
240 200 m 2
 240 183 241 97 248 73 c 1
 382 73 534 95 534 95 c 1
 536 91 l 1
 535 83 534 46 534 36 c 0
 534 26 535 14 536 0 c 1
 534 -3 l 1
 518 -1 495 0 474 0 c 2
 170 0 l 2
 135 0 85 -3 85 -3 c 1
 84 0 l 1
 92 54 96 125 96 200 c 2
 96 445 l 2
 96 520 92 588 84 645 c 1
 86 648 l 1
 86 648 136 645 170 645 c 2
 464 645 l 2
 485 645 508 646 524 648 c 1
 526 645 l 1
 525 631 524 618 524 610 c 0
 524 601 525 577 526 569 c 1
 524 565 l 1
 524 565 382 577 248 577 c 1
 241 553 240 462 240 445 c 2
 240 372 l 1
 358 372 408 377 467 382 c 1
 470 379 l 1
 468 370 467 351 467 342 c 0
 467 333 468 313 470 304 c 1
 467 301 l 1
 398 308 288 311 240 311 c 1
 240 200 l 2
EndSplineSet
LCarets2: 1 0 
Colour: ff00ff
EndChar

StartChar: uni04D7
Encoding: 1239 1239 113
Width: 500
VWidth: 999
Flags: HW
HStem: -10 76<219.536 361.445> 230 45<172 326> 394 50<209.436 302.919> 498 41<185.718 266.739>
VStem: 40 128<118.935 230 275 309.906> 100 83<542.682 622.64> 269 83<542.363 622.388> 326 127<259 359.972>
LayerCount: 2
Fore
SplineSet
172 275 m 1
 324 275 l 1
 326 277 326 290 326 296 c 0
 326 376 284 394 257 394 c 0
 245.7 394 218.9 388.8 203 365 c 0
 189.4 344.7 173 310 172 275 c 1
442 129 m 1
 452 129 457 111 457 98 c 1
 407 25 339 -10 270 -10 c 0
 198.9 -10 144.6 5.9 107 40 c 0
 64.2 78.8 40 143.5 40 202 c 0
 40 355 148.9 444 263 444 c 0
 410 444 453 351 453 266 c 0
 453 252 448 230 424 230 c 2
 168 230 l 1
 168 225 168 221 168 214 c 0
 168 91 231 66 309 66 c 0
 347 66 401 87 442 129 c 1
352 590 m 0
 352 535 289 498 225 498 c 0
 160 498 100 536 100 590 c 0
 100 612 121 628 144 628 c 0
 166 628 183 609 183 593 c 0
 183 590 183 588 182 585 c 0
 181 582 181 579 181 577 c 0
 181 555 196 539 226 539 c 0
 255 539 271 554 271 576 c 0
 271 579 271 582 270 585 c 0
 269 587 269 589 269 592 c 0
 269 609 291 628 309 628 c 0
 333 628 352 616 352 590 c 0
EndSplineSet
LCarets2: 1 0 
Colour: ff00ff
EndChar

StartChar: uni04D8
Encoding: 1240 1240 114
Width: 644
VWidth: 999
Flags: HW
HStem: -12 34<246.269 393.278> 216 44<122 511> 624 34<207.892 368.818>
VStem: 521 90<221.919 443.038>
LayerCount: 2
Fore
SplineSet
97 523 m 1
 74 547 l 1
 153 621 200 658 310 658 c 0
 525 658 611 485 611 326 c 0
 611 131 509 -12 316 -12 c 0
 124 -12 53 118 42 260 c 1
 520 260 l 1
 521 271 521 283 521 297 c 0
 521 483 429 624 294 624 c 0
 201 624 150 575 97 523 c 1
122 216 m 1
 153 86 225 22 323 22 c 0
 429 22 493 116 511 216 c 1
 122 216 l 1
EndSplineSet
Colour: ff00ff
EndChar

StartChar: afii10846
Encoding: 1241 1241 115
Width: 450
VWidth: 999
Flags: HW
HStem: -16 50<125.081 218.564> 153 45<102 256> 362 76<66.555 208.464>
VStem: -25 127<68.028 169> 260 128<118.094 153 198 309.065>
LayerCount: 2
Fore
SplineSet
256 153 m 1
 104 153 l 1
 102 151 102 138 102 132 c 0
 102 52 144 34 171 34 c 0
 182.3 34 209.1 39.2 225 63 c 0
 238.6 83.3 255 118 256 153 c 1
-14 299 m 1
 -24 299 -29 317 -29 330 c 1
 21 403 89 438 158 438 c 0
 229.1 438 283.4 422.1 321 388 c 0
 363.8 349.2 388 284.5 388 226 c 0
 388 73 279.1 -16 165 -16 c 0
 18 -16 -25 77 -25 162 c 0
 -25 176 -20 198 4 198 c 2
 260 198 l 1
 260 203 260 207 260 214 c 0
 260 337 197 362 119 362 c 0
 81 362 27 341 -14 299 c 1
EndSplineSet
Colour: ff00ff
EndChar

StartChar: uni04DA
Encoding: 1242 1242 116
Width: 644
VWidth: 999
Flags: HW
HStem: -12 34<246.269 393.278> 216 44<122 511> 624 34<207.892 368.818> 711 125<168.293 263.707 388.293 483.37>
VStem: 153 126<726.2 820.707> 373 126<727.191 819.706> 521 90<221.919 443.038>
LayerCount: 2
Fore
SplineSet
97 523 m 1
 74 547 l 1
 153 621 200 658 310 658 c 0
 525 658 611 485 611 326 c 0
 611 131 509 -12 316 -12 c 0
 124 -12 53 118 42 260 c 1
 520 260 l 1
 521 271 521 283 521 297 c 0
 521 483 429 624 294 624 c 0
 201 624 150 575 97 523 c 1
122 216 m 1
 153 86 225 22 323 22 c 0
 429 22 493 116 511 216 c 1
 122 216 l 1
373 773 m 0
 373 808 401 836 436 836 c 0
 470 836 499 808 499 773 c 0
 499 739 470 711 436 711 c 0
 401 711 373 739 373 773 c 0
153 773 m 0
 153 808 181 836 216 836 c 0
 251 836 279 808 279 773 c 0
 279 739 251 711 216 711 c 0
 181 711 153 739 153 773 c 0
EndSplineSet
LCarets2: 1 0 
Colour: ff00ff
EndChar

StartChar: uni04DB
Encoding: 1243 1243 117
Width: 450
VWidth: 999
Flags: HW
HStem: -16 50<125.081 218.564> 153 45<102 256> 362 76<66.555 208.464> 509 125<74.1072 167.707 283.293 376.893>
VStem: -25 127<68.028 169> 59 124<524.537 618.707> 260 128<118.094 153 198 309.065> 268 124<524.537 618.707>
LayerCount: 2
Fore
SplineSet
256 153 m 1
 104 153 l 1
 102 151 102 138 102 132 c 0
 102 52 144 34 171 34 c 0
 182.3 34 209.1 39.2 225 63 c 0
 238.6 83.3 255 118 256 153 c 1
-14 299 m 1
 -24 299 -29 317 -29 330 c 1
 21 403 89 438 158 438 c 0
 229.1 438 283.4 422.1 321 388 c 0
 363.8 349.2 388 284.5 388 226 c 0
 388 73 279.1 -16 165 -16 c 0
 18 -16 -25 77 -25 162 c 0
 -25 176 -20 198 4 198 c 2
 260 198 l 1
 260 203 260 207 260 214 c 0
 260 337 197 362 119 362 c 0
 81 362 27 341 -14 299 c 1
268 571 m 0
 268 606 296 634 331 634 c 0
 364 634 392 606 392 571 c 0
 392 538 364 509 331 509 c 0
 296 509 268 538 268 571 c 0
59 571 m 0
 59 606 87 634 120 634 c 0
 155 634 183 606 183 571 c 0
 183 538 155 509 120 509 c 0
 87 509 59 538 59 571 c 0
EndSplineSet
LCarets2: 1 0 
Colour: ff00ff
EndChar

StartChar: uni04E0
Encoding: 1248 1248 118
Width: 608
VWidth: 999
Flags: HW
HStem: -211 37<215 357> 605 39<141 167 167 446>
VStem: 475 89<-42 146>
DStem2: 250 252 367 288 0.48636 0.873758<88.8042 404.592>
LayerCount: 2
Fore
SplineSet
167 645 m 2
 522 645 l 2
 543 645 550 639 550 631 c 0
 550 621 544 605 535 590 c 2
 367 288 l 1
 501 261 564 162 564 51 c 0
 564 -88 432 -211 272 -211 c 0
 192 -211 42 -176 42 -110 c 0
 42 -87 52 -60 86 -60 c 0
 113 -60 141 -74 154 -95 c 0
 186 -144 236 -174 291 -174 c 0
 378 -174 475 -53 475 42 c 0
 475 201 360 255 291 255 c 0
 275 255 264 255 250 252 c 1
 446 605 l 1
 197 605 l 1
 123 604 94 521 90 477 c 1
 64 479 l 1
 85 667 l 1
 108 662 143 645 167 645 c 2
EndSplineSet
Colour: ff00ff
EndChar

StartChar: uni04E1
Encoding: 1249 1249 119
Width: 416
VWidth: 999
Flags: HW
HStem: -235 35<149 244> 103 34<216 268> 395 34<107 295>
VStem: 40 27<303 337> 312 81<-120 61>
DStem2: 127 107 216 137 0.505072 0.863077<70.4402 332.658>
LayerCount: 2
Fore
SplineSet
127 107 m 1
 295 395 l 1
 150 395 l 2
 120 395 86 374 66 301 c 1
 40 304 l 1
 48 353 54 397 55 442 c 1
 80 442 l 1
 82 436 91 429 106 429 c 2
 309 429 l 2
 338 429 374 435 376 435 c 0
 383 435 389 433 389 429 c 0
 389 425 383 414 367 387 c 2
 216 137 l 1
 312 137 393 84 393 -22 c 0
 393 -141 308 -235 185 -235 c 0
 100 -235 42 -174 42 -142 c 0
 42 -124 52 -106 74 -106 c 0
 97 -106 110 -116 118 -140 c 0
 126 -162 153 -200 193 -200 c 0
 243 -200 312 -146 312 -38 c 0
 312 63 281 103 203 103 c 0
 192 103 162 96 144 92 c 1
 127 107 l 1
EndSplineSet
Colour: ff00ff
EndChar

StartChar: uni04E6
Encoding: 1254 1254 120
Width: 799
VWidth: 999
Flags: HW
HStem: -10 53<328.503 500.597> 605 53<306.043 483.294> 711 125<194.293 289.707 414.293 509.37>
VStem: 52 161<195.236 434.595> 179 126<726.2 820.707> 399 126<727.191 819.706> 586 161<199.265 453.564>
LayerCount: 2
Fore
SplineSet
384 605 m 0
 288 605 213 537 213 327 c 0
 213 135 298 43 418 43 c 0
 532 43 586 131 586 310 c 0
 586 518 525 605 384 605 c 0
747 329 m 0
 747 129 612.1 -10 398 -10 c 0
 200 -10 52 122 52 310 c 0
 52 506 194 658 397 658 c 0
 610 658 747 527 747 329 c 0
399 773 m 0
 399 808 427 836 462 836 c 0
 496 836 525 808 525 773 c 0
 525 739 496 711 462 711 c 0
 427 711 399 739 399 773 c 0
179 773 m 0
 179 808 207 836 242 836 c 0
 277 836 305 808 305 773 c 0
 305 739 277 711 242 711 c 0
 207 711 179 739 179 773 c 0
EndSplineSet
LCarets2: 1 0 
Colour: ff00ff
EndChar

StartChar: uni04E7
Encoding: 1255 1255 121
Width: 566
VWidth: 999
Flags: HW
HStem: -10 50<234.308 349.488> 389 50<221.27 336.971> 511 125<115.107 208.707 324.293 417.893>
VStem: 41 142<105.349 313.203> 100 124<526.537 620.707> 309 124<526.537 620.707> 383 142<109.544 320.837>
LayerCount: 2
Fore
SplineSet
309 573 m 0
 309 608 337 636 372 636 c 0
 405 636 433 608 433 573 c 0
 433 540 405 511 372 511 c 0
 337 511 309 540 309 573 c 0
100 573 m 0
 100 608 128 636 161 636 c 0
 196 636 224 608 224 573 c 0
 224 540 196 511 161 511 c 0
 128 511 100 540 100 573 c 0
41 205 m 0
 41 360 142 439 285 439 c 0
 454 439 525 340 525 214 c 0
 525 75.8 436 -10 283 -10 c 0
 134 -10 41 72 41 205 c 0
278 389 m 0
 192 389 183 315 183 228 c 0
 183 151 193 40 297 40 c 0
 342 40 383 72 383 187 c 0
 383 326 363 389 278 389 c 0
EndSplineSet
LCarets2: 1 0 
Colour: ff00ff
EndChar

StartChar: uni04E8
Encoding: 1256 1256 122
Width: 799
VWidth: 999
Flags: HW
HStem: -10 53<328.503 500.597> 266 57<397.324 544.392> 312 58<187.336 350.102> 605 53<306.043 483.294>
VStem: 52 161<195.236 434.595> 110 15<267.333 271.234> 586 161<199.265 453.564>
LayerCount: 2
Fore
SplineSet
747 329 m 0
 747 129 612.1 -10 398 -10 c 0
 200 -10 52 122 52 310 c 0
 52 506 194 658 397 658 c 0
 610 658 747 527 747 329 c 0
586 316.3 m 1
 544 277.6 493.9 266 456 266 c 0
 364 266 340 312 265 312 c 0
 251.5 312 232.8 310.9 213.3 307.5 c 1
 218.9 128.8 302.1 43 418 43 c 0
 532 43 586 131 586 310 c 0
 586 312.1 586 314.2 586 316.3 c 1
584.7 359 m 1
 575.3 531.7 513.4 605 384 605 c 0
 293 605 220.9 543.9 213.6 358.6 c 1
 238.9 366.3 264.1 370 283 370 c 0
 381 370 411 323 474 323 c 0
 505.8 323 552.2 335.6 584.7 359 c 1
EndSplineSet
Colour: ff00ff
EndChar

StartChar: uni04E9
Encoding: 1257 1257 123
Width: 566
VWidth: 999
Flags: HMW
HStem: -12 36<202 328> 179 49<204 349> 207 42<118 238> 409 33<183 304>
VStem: 44 79<124 320> 377 79<113 318>
AnchorPoint: "unten_punkt" 246 -107 basechar 0
AnchorPoint: "top_punkt" 245 550 basechar 0
AnchorPoint: "top_akzent" 236 645 basechar 0
LayerCount: 2
Fore
SplineSet
380 219 m 1
 361 206 315 179 274 179 c 0
 239.8 179 211.3 196.8 183.4 204 c 1
 186 129.9 203.4 40 297 40 c 0
 342 40 383 72 383 187 c 0
 383 326 363 389 278 389 c 0
 198.1 389 184.7 325.2 183.2 246.4 c 1
 193.6 248.1 203.8 249 213 249 c 0
 258 249 280 229 318 229 c 0
 340 229 362 237 377 244 c 1
 380 219 l 1
41 205 m 0
 41 360 142 439 285 439 c 0
 454 439 525 340 525 214 c 0
 525 75.8 436 -10 283 -10 c 0
 134 -10 41 72 41 205 c 0
EndSplineSet
Colour: ff80cc
EndChar

StartChar: uni04EA
Encoding: 1258 1258 124
Width: 799
VWidth: 999
Flags: HW
HStem: -10 53<328.503 500.597> 266 57<397.324 544.392> 312 58<187.336 350.102> 605 53<306.043 483.294> 713 125<191.293 286.707 411.293 506.37>
VStem: 52 161<195.236 434.595> 110 15<267.333 271.234> 176 126<728.2 822.707> 396 126<729.191 821.706> 586 161<199.265 453.564>
LayerCount: 2
Fore
SplineSet
747 329 m 0
 747 129 612.1 -10 398 -10 c 0
 200 -10 52 122 52 310 c 0
 52 506 194 658 397 658 c 0
 610 658 747 527 747 329 c 0
396 775 m 0
 396 810 424 838 459 838 c 0
 493 838 522 810 522 775 c 0
 522 741 493 713 459 713 c 0
 424 713 396 741 396 775 c 0
176 775 m 0
 176 810 204 838 239 838 c 0
 274 838 302 810 302 775 c 0
 302 741 274 713 239 713 c 0
 204 713 176 741 176 775 c 0
586 316.3 m 1
 544 277.6 493.9 266 456 266 c 0
 364 266 340 312 265 312 c 0
 251.5 312 232.8 310.9 213.3 307.5 c 1
 218.9 128.8 302.1 43 418 43 c 0
 532 43 586 131 586 310 c 0
 586 312.1 586 314.2 586 316.3 c 1
584.7 359 m 1
 575.3 531.7 513.4 605 384 605 c 0
 293 605 220.9 543.9 213.6 358.6 c 1
 238.9 366.3 264.1 370 283 370 c 0
 381 370 411 323 474 323 c 0
 505.8 323 552.2 335.6 584.7 359 c 1
EndSplineSet
LCarets2: 1 0 
Colour: ff00ff
EndChar

StartChar: uni04EB
Encoding: 1259 1259 125
Width: 566
VWidth: 999
Flags: HW
HStem: -12 36<202 328> 179 49<204 349> 207 42<118 238> 409 33<183 304> 509 125<117.107 210.707 326.293 419.893>
VStem: 44 79<124 320> 102 124<524.537 618.707> 311 124<524.537 618.707> 377 79<113 318>
LayerCount: 2
Fore
SplineSet
311 571 m 0
 311 606 339 634 374 634 c 0
 407 634 435 606 435 571 c 0
 435 538 407 509 374 509 c 0
 339 509 311 538 311 571 c 0
102 571 m 0
 102 606 130 634 163 634 c 0
 198 634 226 606 226 571 c 0
 226 538 198 509 163 509 c 0
 130 509 102 538 102 571 c 0
380 219 m 1
 361 206 315 179 274 179 c 0
 239.8 179 211.3 196.8 183.4 204 c 1
 186 129.9 203.4 40 297 40 c 0
 342 40 383 72 383 187 c 0
 383 326 363 389 278 389 c 0
 198.1 389 184.7 325.2 183.2 246.4 c 1
 193.6 248.1 203.8 249 213 249 c 0
 258 249 280 229 318 229 c 0
 340 229 362 237 377 244 c 1
 380 219 l 1
41 205 m 0
 41 360 142 439 285 439 c 0
 454 439 525 340 525 214 c 0
 525 75.8 436 -10 283 -10 c 0
 134 -10 41 72 41 205 c 0
EndSplineSet
LCarets2: 1 0 
Colour: ff00ff
EndChar

StartChar: uni04EF
Encoding: 1263 1263 126
Width: 555
VWidth: 999
Flags: HW
HStem: -237 21<119 136.595 222 246> 412 20<35 47.4194 172.5 195.732 405.038 426 510.5 522> 530 60<118.837 426.084>
VStem: 115 315<530.849 589.524>
LayerCount: 2
Fore
SplineSet
404 530 m 2
 130 530 l 2
 119 530 115 544 115 553 c 0
 115 565 127 590 140 590 c 2
 416 590 l 2
 426 590 430 576 430 568 c 0
 430 555 418 530 404 530 c 2
28 432 m 1
 42 429 103 429 116 429 c 0
 130 429 166 429 179 432 c 1
 212.5 329.8 253 230 297 125 c 1
 306 124 l 1
 349 220 389.1 331.9 421 432 c 1
 431 429 474 429 484 429 c 0
 494 429 517 429 527 432 c 1
 494 365 265 -112 227 -237 c 1
 217 -234 188 -232 178 -232 c 0
 168 -232 124 -234 114 -237 c 1
 159.2 -161.7 183.8 -93.8 215.8 -19.1 c 1
 213.2 -12 l 2
 175.1 88.7 66.8 345.4 28 432 c 1
EndSplineSet
LCarets2: 1 0 
Colour: ff00ff
EndChar

StartChar: uni04F1
Encoding: 1265 1265 127
Width: 555
VWidth: 999
Flags: HW
HStem: -237 21<119 136.595 222 246> 412 20<35 47.4194 172.5 195.732 405.038 426 510.5 522> 511 125<132.107 225.707 341.293 434.893>
VStem: 117 124<526.537 620.707> 326 124<526.537 620.707>
LayerCount: 2
Fore
SplineSet
326 573 m 0
 326 608 354 636 389 636 c 0
 422 636 450 608 450 573 c 0
 450 540 422 511 389 511 c 0
 354 511 326 540 326 573 c 0
117 573 m 0
 117 608 145 636 178 636 c 0
 213 636 241 608 241 573 c 0
 241 540 213 511 178 511 c 0
 145 511 117 540 117 573 c 0
28 432 m 1
 42 429 103 429 116 429 c 0
 130 429 166 429 179 432 c 1
 212.5 329.8 253 230 297 125 c 1
 306 124 l 1
 349 220 389.1 331.9 421 432 c 1
 431 429 474 429 484 429 c 0
 494 429 517 429 527 432 c 1
 494 365 265 -112 227 -237 c 1
 217 -234 188 -232 178 -232 c 0
 168 -232 124 -234 114 -237 c 1
 159.2 -161.7 183.8 -93.8 215.8 -19.1 c 1
 213.2 -12 l 2
 175.1 88.7 66.8 345.4 28 432 c 1
EndSplineSet
LCarets2: 1 0 
Colour: ff00ff
EndChar

StartChar: uni04F3
Encoding: 1267 1267 128
Width: 555
VWidth: 999
Flags: HW
HStem: -237 21<119 136.595 222 246> 412 20<35 47.4194 172.5 195.732 405.038 426 510.5 522>
LayerCount: 2
Fore
SplineSet
472 609 m 0
 472 593.4 464.1 587 457.5 580.4 c 2
 359.5 488.4 l 2
 352.6 481.5 346.3 479 341 479 c 0
 327.9 479 321 489.7 321 499 c 0
 321 505.6 323.4 511.6 325.7 515.5 c 2
 393.7 636.6 l 1
 393.8 636.8 l 2
 396.3 640.6 406.2 657 426 657 c 0
 455.1 657 472 633.4 472 609 c 0
343 621 m 0
 343 613.3 340.6 606.5 336.9 601.8 c 2
 244.8 492.8 l 2
 233.8 479.3 224.6 476 217 476 c 0
 203.4 476 199 487.8 199 496 c 0
 199 502.7 200.9 508.1 202.4 511.9 c 2
 261.4 646 l 2
 268.6 661.9 287.4 662 296 662 c 0
 322.5 662 343 641.6 343 621 c 0
28 432 m 1
 42 429 103 429 116 429 c 0
 130 429 166 429 179 432 c 1
 212.5 329.8 253 230 297 125 c 1
 306 124 l 1
 349 220 389.1 331.9 421 432 c 1
 431 429 474 429 484 429 c 0
 494 429 517 429 527 432 c 1
 494 365 265 -112 227 -237 c 1
 217 -234 188 -232 178 -232 c 0
 168 -232 124 -234 114 -237 c 1
 159.2 -161.7 183.8 -93.8 215.8 -19.1 c 1
 213.2 -12 l 2
 175.1 88.7 66.8 345.4 28 432 c 1
EndSplineSet
LCarets2: 1 0 
Colour: ff00ff
EndChar

StartChar: uni1E00
Encoding: 7680 7680 129
Width: 701
Flags: HW
HStem: -235 39<265.688 349.812> -68 39<265.172 350.907> -3 21<26 70.5 115 128.893 503.999 515.5 654 670.5> 221 53<223.642 411.509> 638 20<267 451>
VStem: 201 46<-179.682 -83.834> 369 45<-179.241 -83.951>
DStem2: 20 -3 200.278 219.172 0.407548 0.913184<44.0152 286.317 337.696 574.92> 405 658 323.043 494 0.382928 -0.923778<120.116 356.239>
LayerCount: 2
Fore
SplineSet
411.5 275.1 m 1
 387.3 338 358.7 411 323 494 c 1
 317.1 494 l 1
 223.6 275.9 l 1
 255.3 275.5 299.1 274 328 274 c 0
 351.7 274 383.1 274.5 411.5 275.1 c 1
200.3 219.2 m 1
 166.2 135.1 136.8 56.2 121 -3 c 1
 109 0 87 0 76 0 c 0
 65 0 32 0 20 -3 c 1
 121 218 219 436 315 658 c 1
 405 658 l 1
 491 439 629 98 679 -3 c 1
 662 0 605 0 588 0 c 0
 571 0 524 0 507 -3 c 1
 501 18.7 479.3 93.7 432.5 219.7 c 1
 399.8 220.4 365.1 221 333 221 c 0
 297.3 221 238.3 220.1 200.3 219.2 c 1
308 -68 m 0
 273 -68 247 -98 247 -132 c 0
 247 -163 273 -196 308 -196 c 0
 343 -196 369 -163 369 -132 c 0
 369 -97 342 -68 308 -68 c 0
201 -132 m 0
 201 -74 249 -29 307 -29 c 0
 365 -29 414 -73 414 -132 c 0
 414 -188 367 -235 307 -235 c 0
 249 -235 201 -190 201 -132 c 0
EndSplineSet
LCarets2: 1 0 
Colour: ff00ff
EndChar

StartChar: uni1E01
Encoding: 7681 7681 130
Width: 516
VWidth: 999
Flags: HW
HStem: -236 39<181.688 265.812> -69 39<181.172 266.907> -10 60<136 258.155 437.552 489.224> 385 54<176.375 291.887>
VStem: 34 134<62.0884 164.206> 117 46<-180.682 -84.834> 285 45<-180.241 -84.951> 311 130<84.3444 222 271.049 367.104>
DStem2: 188 240 231 201 0.966645 0.25612<-22.5783 114.287>
LayerCount: 2
Fore
SplineSet
311 222 m 1
 231 201 l 2
 180.8 187.8 168 143.1 168 107 c 0
 168 80 190 50 220 50 c 0
 248 50 271 61 294 84 c 0
 301.1 91.1 309 116 309 129 c 2
 311 222 l 1
437 80 m 0
 437 47 458 44 498 44 c 1
 504 39 506.7 31.7 508 23 c 1
 478 0 428.1 -10 389 -10 c 0
 346 -10 324 7 310 48 c 1
 308 48 l 1
 263 3 210.1 -10 171 -10 c 0
 101 -10 34 29 34 98 c 0
 34 166 92 217 188 240 c 1
 305 271 l 2
 308 272 311 276 311 283 c 0
 311 360.1 286 385 242 385 c 0
 197 385 153 356 119 306 c 1
 86 307 l 1
 66 382 l 1
 69 386 l 1
 93 407 179 439 251 439 c 0
 299.1 439.6 369.3 427.5 401 399.1 c 0
 428.6 374.3 441 337.1 441 277 c 0
 441 266 437 109 437 80 c 0
224 -69 m 0
 189 -69 163 -99 163 -133 c 0
 163 -164 189 -197 224 -197 c 0
 259 -197 285 -164 285 -133 c 0
 285 -98 258 -69 224 -69 c 0
117 -133 m 0
 117 -75 165 -30 223 -30 c 0
 281 -30 330 -74 330 -133 c 0
 330 -189 283 -236 223 -236 c 0
 165 -236 117 -191 117 -133 c 0
EndSplineSet
LCarets2: 1 0 
Colour: ff00ff
EndChar

StartChar: uni1E02
Encoding: 7682 7682 131
Width: 675
VWidth: 999
Flags: HW
HStem: -3 44<171.13 393.675> 327 44<189 355.197> 604 44<169.89 351.471> 729 104<234.542 317.458>
VStem: 103 86<49.3073 327 371 597.325> 224 104<739.542 822.458> 395 87<424.724 562.128> 442 99<97.3818 255.662>
LayerCount: 2
Fore
SplineSet
245 550 m 2
 245 375 l 1
 323 375 l 2
 406 375 426 408 426 481 c 0
 426 568.3 392 595 336 595 c 0
 255 595 245 583 245 550 c 2
245 322 m 1
 245 97 l 2
 245 64 262 50 332 50 c 0
 466 50 473 96 473 165 c 0
 473 236.2 455 322 338 322 c 2
 245 322 l 1
177 645 m 0
 240 645 304 648 339 648 c 0
 525 648 575 560 575 493 c 0
 575 438 523 385 472 360 c 1
 559 335 634 280 634 184 c 0
 634 98 560 -3 361 -3 c 0
 272 -3 249 0 177 0 c 0
 142 0 92 -3 92 -3 c 1
 91 0 l 1
 99 54 103 125 103 200 c 2
 103 445 l 2
 103 520 99 588 91 645 c 1
 93 648 l 1
 93 648 143 645 177 645 c 0
EndSplineSet
LCarets2: 1 0 
Colour: ff00ff
EndChar

StartChar: uni1E03
Encoding: 7683 7683 132
Width: 585
VWidth: 999
Flags: HW
HStem: -10 50<226.313 365.186> 371 68<268.478 367.418> 536 142<209.5 318.5> 678 20<207.465 223.167>
VStem: 85 132<52.4208 342.501 384 659.981> 189 150<556.5 657.5> 405 142<129.939 327.643>
LayerCount: 2
Fore
SplineSet
234.3 53.8 m 0
 253 42.5 276 40 310 40 c 0
 338.3 40 365.5 51.5 383 87.5 c 0
 398.4 119.1 405 165.2 405 222 c 0
 405 319 372 371 311 371 c 0
 286.9 371 266 363 217 328 c 1
 217 108 l 2
 217 80.4 219.7 62.7 234.3 53.8 c 0
217 500 m 2
 217 384 l 1
 277 429 312 439 355 439 c 0
 408.1 439 452.6 425.2 492 389 c 0
 528.8 355.2 547 301 547 242 c 0
 547 152.6 511.5 84.6 463 43 c 0
 419.2 5.5 366.2 -10 314 -10 c 0
 278.4 -10 238 -7.5 216.7 -2 c 0
 192.7 4.2 170.7 11 160 11 c 0
 145.5 11 100.2 -9 88 -11 c 1
 82 -9.7 79.7 -8 77 -6 c 1
 81.2 15.8 85 95 85 134 c 2
 85 474 l 2
 85 550 80.7 619.3 73 662 c 1
 75 665 l 1
 115.5 668 194.9 688 220 698 c 1
 226.3 698 229 695 229 688 c 2
 226.7 668.9 l 1
 237.6 674.7 250.3 678 264 678 c 0
 306 678 339 647 339 607 c 0
 339 567 306 536 264 536 c 0
 246.4 536 230.5 541.5 217.8 550.7 c 1
 217.3 534.8 217 518 217 500 c 2
EndSplineSet
LCarets2: 1 0 
Colour: ff00ff
EndChar

StartChar: uni1E04
Encoding: 7684 7684 133
Width: 675
VWidth: 999
Flags: HW
HStem: -219 142<214.5 323.5> -3 53<215.709 439.082> 322 53<245 401.023> 595 53<214.342 397.138>
VStem: 103 142<61.1856 322 375 585.479> 194 150<-198.5 -97.5> 426 149<431.082 565.301> 473 161<105.896 265.022>
LayerCount: 2
Fore
SplineSet
245 550 m 2
 245 375 l 1
 323 375 l 2
 406 375 426 408 426 481 c 0
 426 568.3 392 595 336 595 c 0
 255 595 245 583 245 550 c 2
245 322 m 1
 245 97 l 2
 245 64 262 50 332 50 c 0
 466 50 473 96 473 165 c 0
 473 236.2 455 322 338 322 c 2
 245 322 l 1
177 645 m 0
 240 645 304 648 339 648 c 0
 525 648 575 560 575 493 c 0
 575 438 523 385 472 360 c 1
 559 335 634 280 634 184 c 0
 634 98 560 -3 361 -3 c 0
 272 -3 249 0 177 0 c 0
 142 0 92 -3 92 -3 c 1
 91 0 l 1
 99 54 103 125 103 200 c 2
 103 445 l 2
 103 520 99 588 91 645 c 1
 93 648 l 1
 93 648 143 645 177 645 c 0
194 -148 m 0
 194 -108 227 -77 269 -77 c 0
 311 -77 344 -108 344 -148 c 0
 344 -188 311 -219 269 -219 c 0
 227 -219 194 -188 194 -148 c 0
EndSplineSet
LCarets2: 1 0 
Colour: ff00ff
EndChar

StartChar: uni1E05
Encoding: 7685 7685 134
Width: 585
VWidth: 999
Flags: HW
HStem: -219 142<169.5 278.5> -10 50<226.313 365.186> 371 68<268.478 367.418> 678 20<207.465 223.167>
VStem: 85 132<52.4208 342.501 384 659.981> 149 150<-198.5 -97.5> 405 142<129.939 327.643>
LayerCount: 2
Fore
SplineSet
234.3 53.8 m 0
 253 42.5 276 40 310 40 c 0
 338.3 40 365.5 51.5 383 87.5 c 0
 398.4 119.1 405 165.2 405 222 c 0
 405 319 372 371 311 371 c 0
 286.9 371 266 363 217 328 c 1
 217 108 l 2
 217 80.4 219.7 62.7 234.3 53.8 c 0
217 500 m 2
 217 384 l 1
 277 429 312 439 355 439 c 0
 408.1 439 452.6 425.2 492 389 c 0
 528.8 355.2 547 301 547 242 c 0
 547 152.6 511.5 84.6 463 43 c 0
 419.2 5.5 366.2 -10 314 -10 c 0
 278.4 -10 238 -7.5 216.7 -2 c 0
 192.7 4.2 170.7 11 160 11 c 0
 145.5 11 100.2 -9 88 -11 c 1
 82 -9.7 79.7 -8 77 -6 c 1
 81.2 15.8 85 95 85 134 c 2
 85 474 l 2
 85 550 80.7 619.3 73 662 c 1
 75 665 l 1
 115.5 668 194.9 688 220 698 c 1
 226.3 698 229 695 229 688 c 0
 221.3 626.7 217 574 217 500 c 2
149 -148 m 0
 149 -108 182 -77 224 -77 c 0
 266 -77 299 -108 299 -148 c 0
 299 -188 266 -219 224 -219 c 0
 182 -219 149 -188 149 -148 c 0
EndSplineSet
LCarets2: 1 0 
Colour: ff00ff
EndChar

StartChar: uni1E06
Encoding: 7686 7686 135
Width: 675
VWidth: 999
Flags: HW
HStem: -106 44<137 148 148 415> -3 44<171.13 393.675> 327 44<189 355.197> 604 44<169.378 351.471>
VStem: 103 86<49.3073 327 371 597.325> 395 87<424.724 562.128> 442 99<97.3818 255.662>
LayerCount: 2
Fore
SplineSet
245 550 m 2
 245 375 l 1
 323 375 l 2
 406 375 426 408 426 481 c 0
 426 568.3 392 595 336 595 c 0
 255 595 245 583 245 550 c 2
245 322 m 1
 245 97 l 2
 245 64 262 50 332 50 c 0
 466 50 473 96 473 165 c 0
 473 236.2 455 322 338 322 c 2
 245 322 l 1
177 645 m 0
 240 645 304 648 339 648 c 0
 525 648 575 560 575 493 c 0
 575 438 523 385 472 360 c 1
 559 335 634 280 634 184 c 0
 634 98 560 -3 361 -3 c 0
 272 -3 249 0 177 0 c 0
 142 0 92 -3 92 -3 c 1
 91 0 l 1
 99 54 103 125 103 200 c 2
 103 445 l 2
 103 520 99 588 91 645 c 1
 93 648 l 1
 93 648 143 645 177 645 c 0
393 -106 m 2
 148 -106 l 2
 140 -106 136 -98 136 -91 c 0
 136 -79 146 -62 158 -62 c 2
 403 -62 l 2
 412 -62 416 -69 416 -76 c 0
 416 -88 406 -106 393 -106 c 2
EndSplineSet
LCarets2: 1 0 
Colour: ff00ff
EndChar

StartChar: uni1E07
Encoding: 7687 7687 136
Width: 585
VWidth: 999
Flags: HW
HStem: -110 44<107 118 118 385> -10 50<226.313 365.186> 371 68<268.478 367.418> 678 20<207.465 223.167>
VStem: 85 132<52.4208 342.501 384 659.981> 405 142<129.939 327.643>
LayerCount: 2
Fore
SplineSet
234.3 53.8 m 0
 253 42.5 276 40 310 40 c 0
 338.3 40 365.5 51.5 383 87.5 c 0
 398.4 119.1 405 165.2 405 222 c 0
 405 319 372 371 311 371 c 0
 286.9 371 266 363 217 328 c 1
 217 108 l 2
 217 80.4 219.7 62.7 234.3 53.8 c 0
217 500 m 2
 217 384 l 1
 277 429 312 439 355 439 c 0
 408.1 439 452.6 425.2 492 389 c 0
 528.8 355.2 547 301 547 242 c 0
 547 152.6 511.5 84.6 463 43 c 0
 419.2 5.5 366.2 -10 314 -10 c 0
 278.4 -10 238 -7.5 216.7 -2 c 0
 192.7 4.2 170.7 11 160 11 c 0
 145.5 11 100.2 -9 88 -11 c 1
 82 -9.7 79.7 -8 77 -6 c 1
 81.2 15.8 85 95 85 134 c 2
 85 474 l 2
 85 550 80.7 619.3 73 662 c 1
 75 665 l 1
 115.5 668 194.9 688 220 698 c 1
 226.3 698 229 695 229 688 c 0
 221.3 626.7 217 574 217 500 c 2
363 -110 m 2
 118 -110 l 2
 110 -110 106 -102 106 -95 c 0
 106 -83 116 -66 128 -66 c 2
 373 -66 l 2
 382 -66 386 -73 386 -80 c 0
 386 -92 376 -110 363 -110 c 2
EndSplineSet
LCarets2: 1 0 
Colour: ff00ff
EndChar

StartChar: uni1E08
Encoding: 7688 7688 137
Width: 691
VWidth: 999
Flags: HW
HStem: -187 40<279.756 384.578> -89 41<367 387.006> -10 60<329.73 503.017> 602 56<312.155 487.312> 822 148
VStem: 37 163<216.639 441.231> 275 214 388 64<-141.762 -90.1991>
LayerCount: 2
Fore
SplineSet
316 -96 m 1
 303 -83 l 1
 337.2 -7.6 l 1
 270.1 -0.4 209.6 22.5 164 56 c 0
 78.7 118.6 37 217.5 37 315 c 0
 37 424.9 82.1 522.3 161 584 c 0
 223.5 632.8 315 658 406 658 c 0
 528 658 624 613 624 613 c 1
 626 610 l 1
 614.2 560.7 609.6 531 606 480 c 1
 576 479 l 1
 535 561 482 602 392 602 c 0
 310 602 200 537 200 334 c 0
 200 193 292 50 401 50 c 0
 494 50 539 67 614 139 c 1
 638 105 l 1
 554 18 471.2 -10 382 -10 c 2
 381.9 -10 l 1
 367 -48 l 1
 433 -48 452 -86 452 -111 c 0
 452 -155 407 -187 348 -187 c 0
 318 -187 304 -185 271 -170 c 1
 286 -134 l 1
 307 -142 321 -147 343 -147 c 0
 367 -147 388 -133 388 -116 c 0
 388 -103 377 -89 359 -89 c 0
 343 -89 327 -92 316 -96 c 1
432 970 m 1
 459.4 951.3 480 918 489 889 c 1
 482 875.1 l 1
 330 831 l 2
 307.8 824.6 299.1 822 291 822 c 0
 282.9 822 275 838 275 847 c 0
 275 854 276.8 861.8 290 871 c 2
 432 970 l 1
EndSplineSet
LCarets2: 1 0 
Colour: ff00ff
EndChar

StartChar: uni1E09
Encoding: 7689 7689 138
Width: 469
VWidth: 999
Flags: HW
HStem: -181 40<169.756 274.578> -83 41<257 277.006> -10 50<243.195 382.695> 389 50<230.105 344.258> 470 171
VStem: 42 139<109.909 310.735> 201 184 278 64<-135.762 -84.1991>
LayerCount: 2
Fore
SplineSet
206 -90 m 1
 193 -77 l 1
 224.9 -6.7 l 1
 169.9 1.3 124.1 23.2 96 54 c 0
 62.4 90.7 42 139.5 42 202 c 0
 42 359 151 439 285 439 c 0
 335 439 403 422 434 406 c 1
 436 403 l 1
 412 306 l 1
 384 305 l 1
 362 360 332.5 389 294 389 c 0
 258.8 389 224.7 372.2 205.4 341 c 0
 188.5 313.8 181 275.6 181 228 c 0
 181 170.8 193 123 211 94 c 0
 229 65 269 40 298 40 c 0
 338 40 387 54 415 88 c 1
 431 83 l 1
 431 67 433.8 53.5 436 44 c 1
 391 6 347.4 -10 271 -10 c 0
 270.5 -10 270.1 -10 269.6 -10 c 2
 257 -42 l 1
 323 -42 342 -80 342 -105 c 0
 342 -149 297 -181 238 -181 c 0
 208 -181 194 -179 161 -164 c 1
 176 -128 l 1
 197 -136 211 -141 233 -141 c 0
 257 -141 278 -127 278 -110 c 0
 278 -97 267 -83 249 -83 c 0
 233 -83 217 -86 206 -90 c 1
292 639 m 1
 295 640 303 641 308 641 c 0
 338 641 367 627 375 617 c 1
 385 594 l 1
 265 486 l 2
 251 474 232 470 222 470 c 0
 214 470 201 478 201 484 c 0
 201 490 203 499 209 508 c 2
 292 639 l 1
EndSplineSet
LCarets2: 1 0 
Colour: ff00ff
EndChar

StartChar: uni1E0A
Encoding: 7690 7690 139
Width: 771
VWidth: 999
Flags: HW
HStem: -2 53<216.409 485.935> 595 53<217.556 448.867>
VStem: 101 144<64.2018 579.471> 563 165<184.471 417.062>
LayerCount: 2
Fore
SplineSet
245 101 m 2
 245 69 260 51 358 51 c 0
 499 51 563 82 563 284 c 0
 563 438 549 595 333 595 c 0
 284 595 245 580 245 545 c 2
 245 101 l 2
175 645 m 0
 251 645 295 648 371 648 c 0
 563 648 728 494 728 308 c 0
 728 62 530 -2 389 -2 c 0
 286 -2 258 0 175 0 c 0
 140 0 90 -3 90 -3 c 1
 89 0 l 1
 97 54 101 125 101 200 c 2
 101 445 l 2
 101 520 97 588 89 645 c 1
 91 648 l 1
 91 648 141 645 175 645 c 0
EndSplineSet
LCarets2: 1 0 
Colour: ff00ff
EndChar

StartChar: uni1E0B
Encoding: 7691 7691 140
Width: 578
VWidth: 999
Flags: HW
HStem: -10 58<224.3 328.638> -3 21<386 395.667 515.5 524> 389 50<223.989 336.055> 536 142<176.5 285.5> 678 20<493.465 509.167>
VStem: 44 142<98.9094 311.576> 156 150<556.5 657.5> 373 132<90.6895 351.125 394 659.981>
LayerCount: 2
Fore
SplineSet
373 133 m 1
 373 303 l 1
 362.5 354.5 325 389 278 389 c 0
 229.6 389 186 356 186 221 c 0
 186 96 222 48 276 48 c 0
 316.5 48 348.5 69 373 133 c 1
373 54 m 1
 346 7.5 293 -10 230 -10 c 0
 119 -10 44 80 44 203 c 0
 44 274.9 68 347.5 130 392.5 c 0
 175.9 425.8 212 439 279 439 c 0
 307.5 439 354 421 373 394 c 1
 373 474 l 2
 373 550 368.7 619.3 361 662 c 1
 363 665 l 1
 403.5 668 480.9 688 506 698 c 1
 512.3 698 517 695 517 688 c 0
 509.3 626.7 505 574 505 500 c 2
 505 192 l 2
 505 117 516 43 524 0 c 1
 522 -3 l 1
 509 -1 465.1 0 452.5 0 c 0
 438 0 402.3 -1.3 389 -3 c 0
 383 -3 380 -2 380 0 c 2
 375 54 l 1
 373 54 l 1
156 607 m 0
 156 647 189 678 231 678 c 0
 273 678 306 647 306 607 c 0
 306 567 273 536 231 536 c 0
 189 536 156 567 156 607 c 0
EndSplineSet
LCarets2: 1 0 
Colour: ff00ff
EndChar

StartChar: uni1E0C
Encoding: 7692 7692 141
Width: 771
VWidth: 999
Flags: HW
HStem: -219 142<234.5 343.5> -2 53<216.409 485.935> 595 53<217.556 448.867>
VStem: 101 144<64.2018 579.471> 214 150<-198.5 -97.5> 563 165<184.471 417.062>
LayerCount: 2
Fore
SplineSet
245 101 m 2
 245 69 260 51 358 51 c 0
 499 51 563 82 563 284 c 0
 563 438 549 595 333 595 c 0
 284 595 245 580 245 545 c 2
 245 101 l 2
175 645 m 0
 251 645 295 648 371 648 c 0
 563 648 728 494 728 308 c 0
 728 62 530 -2 389 -2 c 0
 286 -2 258 0 175 0 c 0
 140 0 90 -3 90 -3 c 1
 89 0 l 1
 97 54 101 125 101 200 c 2
 101 445 l 2
 101 520 97 588 89 645 c 1
 91 648 l 1
 91 648 141 645 175 645 c 0
214 -148 m 0
 214 -108 247 -77 289 -77 c 0
 331 -77 364 -108 364 -148 c 0
 364 -188 331 -219 289 -219 c 0
 247 -219 214 -188 214 -148 c 0
EndSplineSet
LCarets2: 1 0 
Colour: ff00ff
EndChar

StartChar: uni1E0D
Encoding: 7693 7693 142
Width: 578
VWidth: 999
Flags: HW
HStem: -219 142<230.5 339.5> -10 58<224.3 328.638> -3 21<386 395.667 515.5 524> 389 50<223.989 336.055> 678 20<493.465 509.167>
VStem: 44 142<98.9094 311.576> 210 150<-198.5 -97.5> 373 132<90.6895 351.125 394 659.981>
LayerCount: 2
Fore
SplineSet
373 133 m 1
 373 303 l 1
 362.5 354.5 325 389 278 389 c 0
 229.6 389 186 356 186 221 c 0
 186 96 222 48 276 48 c 0
 316.5 48 348.5 69 373 133 c 1
373 54 m 1
 346 7.5 293 -10 230 -10 c 0
 119 -10 44 80 44 203 c 0
 44 274.9 68 347.5 130 392.5 c 0
 175.9 425.8 212 439 279 439 c 0
 307.5 439 354 421 373 394 c 1
 373 474 l 2
 373 550 368.7 619.3 361 662 c 1
 363 665 l 1
 403.5 668 480.9 688 506 698 c 1
 512.3 698 517 695 517 688 c 0
 509.3 626.7 505 574 505 500 c 2
 505 192 l 2
 505 117 516 43 524 0 c 1
 522 -3 l 1
 509 -1 465.1 0 452.5 0 c 0
 438 0 402.3 -1.3 389 -3 c 0
 383 -3 380 -2 380 0 c 2
 375 54 l 1
 373 54 l 1
210 -148 m 0
 210 -108 243 -77 285 -77 c 0
 327 -77 360 -108 360 -148 c 0
 360 -188 327 -219 285 -219 c 0
 243 -219 210 -188 210 -148 c 0
EndSplineSet
LCarets2: 1 0 
Colour: ff00ff
EndChar

StartChar: uni1E0E
Encoding: 7694 7694 143
Width: 771
VWidth: 999
Flags: HW
HStem: -105 44<144 155 155 422> -2 53<216.409 485.935> 595 53<217.556 448.867>
VStem: 101 144<64.2018 579.471> 563 165<184.471 417.062>
LayerCount: 2
Fore
SplineSet
245 101 m 2
 245 69 260 51 358 51 c 0
 499 51 563 82 563 284 c 0
 563 438 549 595 333 595 c 0
 284 595 245 580 245 545 c 2
 245 101 l 2
175 645 m 0
 251 645 295 648 371 648 c 0
 563 648 728 494 728 308 c 0
 728 62 530 -2 389 -2 c 0
 286 -2 258 0 175 0 c 0
 140 0 90 -3 90 -3 c 1
 89 0 l 1
 97 54 101 125 101 200 c 2
 101 445 l 2
 101 520 97 588 89 645 c 1
 91 648 l 1
 91 648 141 645 175 645 c 0
400 -105 m 2
 155 -105 l 2
 147 -105 143 -97 143 -90 c 0
 143 -78 153 -61 165 -61 c 2
 410 -61 l 2
 419 -61 423 -68 423 -75 c 0
 423 -87 413 -105 400 -105 c 2
EndSplineSet
LCarets2: 1 0 
Colour: ff00ff
EndChar

StartChar: uni1E0F
Encoding: 7695 7695 144
Width: 578
VWidth: 999
Flags: HW
HStem: -109 44<146 157 157 424> -10 58<224.3 328.638> -3 21<386 395.667 515.5 524> 389 50<223.989 336.055> 678 20<493.465 509.167>
VStem: 44 142<98.9094 311.576> 373 132<90.6895 351.125 394 659.981>
LayerCount: 2
Fore
SplineSet
373 133 m 1
 373 303 l 1
 362.5 354.5 325 389 278 389 c 0
 229.6 389 186 356 186 221 c 0
 186 96 222 48 276 48 c 0
 316.5 48 348.5 69 373 133 c 1
373 54 m 1
 346 7.5 293 -10 230 -10 c 0
 119 -10 44 80 44 203 c 0
 44 274.9 68 347.5 130 392.5 c 0
 175.9 425.8 212 439 279 439 c 0
 307.5 439 354 421 373 394 c 1
 373 474 l 2
 373 550 368.7 619.3 361 662 c 1
 363 665 l 1
 403.5 668 480.9 688 506 698 c 1
 512.3 698 517 695 517 688 c 0
 509.3 626.7 505 574 505 500 c 2
 505 192 l 2
 505 117 516 43 524 0 c 1
 522 -3 l 1
 509 -1 465.1 0 452.5 0 c 0
 438 0 402.3 -1.3 389 -3 c 0
 383 -3 380 -2 380 0 c 2
 375 54 l 1
 373 54 l 1
402 -109 m 2
 157 -109 l 2
 149 -109 145 -101 145 -94 c 0
 145 -82 155 -65 167 -65 c 2
 412 -65 l 2
 421 -65 425 -72 425 -79 c 0
 425 -91 415 -109 402 -109 c 2
EndSplineSet
LCarets2: 1 0 
Colour: ff00ff
EndChar

StartChar: uni1E10
Encoding: 7696 7696 145
Width: 771
VWidth: 999
Flags: HW
HStem: -183 40<96.756 201.578> -85 41<184 204.006> -2 53<216.409 485.935> 595 53<217.556 448.867>
VStem: 101 144<64.2018 579.471> 205 64<-137.762 -86.1991> 563 165<184.471 417.062>
LayerCount: 2
Fore
SplineSet
133 -92 m 1
 120 -79 l 1
 155.7 -0.2 l 1
 124.1 -0.9 90 -3 90 -3 c 2
 89 0 l 1
 97 54 101 125 101 200 c 2
 101 445 l 2
 101 520 97 588 89 645 c 1
 91 648 l 1
 91 648 141 645 175 645 c 0
 251 645 295 648 371 648 c 0
 563 648 728 494 728 308 c 0
 728 62 530 -2 389 -2 c 0
 297.6 -2 265.3 -0.5 201.2 -0.1 c 1
 184 -44 l 1
 250 -44 269 -82 269 -107 c 0
 269 -151 224 -183 165 -183 c 0
 135 -183 121 -181 88 -166 c 1
 103 -130 l 1
 124 -138 138 -143 160 -143 c 0
 184 -143 205 -129 205 -112 c 0
 205 -99 194 -85 176 -85 c 0
 160 -85 144 -88 133 -92 c 1
245 101 m 2
 245 69 260 51 358 51 c 0
 499 51 563 82 563 284 c 0
 563 438 549 595 333 595 c 0
 284 595 245 580 245 545 c 2
 245 101 l 2
EndSplineSet
LCarets2: 1 0 
Colour: ff00ff
EndChar

StartChar: uni1E11
Encoding: 7697 7697 146
Width: 578
VWidth: 999
Flags: HW
HStem: -179 40<193.756 298.578> -81 41<281 301.006> -10 58<224.3 328.638> -3 21<386 395.667 515.5 524> 389 50<223.989 336.055> 678 20<493.465 509.167>
VStem: 44 142<98.9094 311.576> 302 64<-133.762 -82.1991> 373 132<90.6895 351.125 394 659.981>
LayerCount: 2
Fore
SplineSet
230 -88 m 1
 217 -75 l 1
 246.7 -9.6 l 1
 241.2 -9.9 235.6 -10 230 -10 c 0
 119 -10 44 80 44 203 c 0
 44 274.9 68 347.5 130 392.5 c 0
 175.9 425.8 212 439 279 439 c 0
 307.5 439 354 421 373 394 c 1
 373 474 l 2
 373 550 368.7 619.3 361 662 c 1
 363 665 l 1
 403.5 668 480.9 688 506 698 c 1
 512.3 698 517 695 517 688 c 0
 509.3 626.7 505 574 505 500 c 2
 505 192 l 2
 505 117 516 43 524 0 c 1
 522 -3 l 1
 509 -1 465.1 0 452.5 0 c 0
 438 0 402.3 -1.3 389 -3 c 0
 383 -3 380 -2 380 0 c 2
 375 54 l 1
 373 54 l 1
 356.1 25 329.1 7.2 295.9 -2 c 1
 281 -40 l 1
 347 -40 366 -78 366 -103 c 0
 366 -147 321 -179 262 -179 c 0
 232 -179 218 -177 185 -162 c 1
 200 -126 l 1
 221 -134 235 -139 257 -139 c 0
 281 -139 302 -125 302 -108 c 0
 302 -95 291 -81 273 -81 c 0
 257 -81 241 -84 230 -88 c 1
373 133 m 1
 373 303 l 1
 362.5 354.5 325 389 278 389 c 0
 229.6 389 186 356 186 221 c 0
 186 96 222 48 276 48 c 0
 316.5 48 348.5 69 373 133 c 1
EndSplineSet
LCarets2: 1 0 
Colour: ff00ff
EndChar

StartChar: uni1E12
Encoding: 7698 7698 147
Width: 771
VWidth: 999
Flags: HW
HStem: -2 53<216.409 485.935> 595 53<217.556 448.867>
VStem: 101 144<64.2018 579.471> 140 253<-186 -186> 563 165<184.471 417.062>
LayerCount: 2
Fore
SplineSet
373 -232 m 1
 346 -256 l 1
 298 -233 266 -216 228 -179 c 1
 186 -218 155 -233 111 -256 c 1
 84 -232 l 1
 167 -146 175 -134 209 -86 c 1
 249 -86 l 1
 287 -140 299 -158 373 -232 c 1
245 101 m 2
 245 69 260 51 358 51 c 0
 499 51 563 82 563 284 c 0
 563 438 549 595 333 595 c 0
 284 595 245 580 245 545 c 2
 245 101 l 2
175 645 m 0
 251 645 295 648 371 648 c 0
 563 648 728 494 728 308 c 0
 728 62 530 -2 389 -2 c 0
 286 -2 258 0 175 0 c 0
 140 0 90 -3 90 -3 c 1
 89 0 l 1
 97 54 101 125 101 200 c 2
 101 445 l 2
 101 520 97 588 89 645 c 1
 91 648 l 1
 91 648 141 645 175 645 c 0
EndSplineSet
LCarets2: 1 0 
Colour: ff00ff
EndChar

StartChar: uni1E13
Encoding: 7699 7699 148
Width: 578
VWidth: 999
Flags: HW
HStem: -10 58<224.3 328.638> -3 21<386 395.667 515.5 524> 389 50<223.989 336.055> 678 20<493.465 509.167>
VStem: 44 142<98.9094 311.576> 140 253<-186 -186> 373 132<90.6895 351.125 394 659.981>
LayerCount: 2
Fore
SplineSet
373 -232 m 1
 346 -256 l 1
 298 -233 266 -216 228 -179 c 1
 186 -218 155 -233 111 -256 c 1
 84 -232 l 1
 167 -146 175 -134 209 -86 c 1
 249 -86 l 1
 287 -140 299 -158 373 -232 c 1
373 133 m 1
 373 303 l 1
 362.5 354.5 325 389 278 389 c 0
 229.6 389 186 356 186 221 c 0
 186 96 222 48 276 48 c 0
 316.5 48 348.5 69 373 133 c 1
373 54 m 1
 346 7.5 293 -10 230 -10 c 0
 119 -10 44 80 44 203 c 0
 44 274.9 68 347.5 130 392.5 c 0
 175.9 425.8 212 439 279 439 c 0
 307.5 439 354 421 373 394 c 1
 373 474 l 2
 373 550 368.7 619.3 361 662 c 1
 363 665 l 1
 403.5 668 480.9 688 506 698 c 1
 512.3 698 517 695 517 688 c 0
 509.3 626.7 505 574 505 500 c 2
 505 192 l 2
 505 117 516 43 524 0 c 1
 522 -3 l 1
 509 -1 465.1 0 452.5 0 c 0
 438 0 402.3 -1.3 389 -3 c 0
 383 -3 380 -2 380 0 c 2
 375 54 l 1
 373 54 l 1
EndSplineSet
LCarets2: 1 0 
Colour: ff00ff
EndChar

StartChar: uni1E14
Encoding: 7700 7700 149
Width: 584
VWidth: 999
Flags: HW
HStem: 0 73<244.435 487.022> 311 61<240 463.736> 577 68<244.435 479.755> 693 60<161.837 469.084> 834.6 130.2
VStem: -32.2 164.8 96 144<74.1699 311 372 575.826> 158 315<693.849 752.524>
LayerCount: 2
Fore
SplineSet
447 693 m 2
 173 693 l 2
 162 693 158 707 158 716 c 0
 158 728 170 753 183 753 c 2
 459 753 l 2
 469 753 473 739 473 731 c 0
 473 718 461 693 447 693 c 2
240 200 m 2
 240 183 241 97 248 73 c 1
 382 73 534 95 534 95 c 1
 536 91 l 1
 535 83 534 46 534 36 c 0
 534 26 535 14 536 0 c 1
 534 -3 l 1
 518 -1 495 0 474 0 c 2
 170 0 l 2
 135 0 85 -3 85 -3 c 1
 84 0 l 1
 92 54 96 125 96 200 c 2
 96 445 l 2
 96 520 92 588 84 645 c 1
 86 648 l 1
 86 648 136 645 170 645 c 2
 464 645 l 2
 485 645 508 646 524 648 c 1
 526 645 l 1
 525 631 524 618 524 610 c 0
 524 601 525 577 526 569 c 1
 524 565 l 1
 524 565 382 577 248 577 c 1
 241 553 240 462 240 445 c 2
 240 372 l 1
 358 372 408 377 467 382 c 1
 470 379 l 1
 468 370 467 351 467 342 c 0
 467 333 468 313 470 304 c 1
 467 301 l 1
 398 308 288 311 240 311 c 1
 240 200 l 2
11.7 964.8 m 1
 121 877.7 l 2
 131.1 869.6 132.6 862.8 132.6 856.6 c 0
 132.6 848.7 126.4 834.6 120.2 834.6 c 0
 114 834.6 107.3 836.8 90.2 842.5 c 2
 -26.8 881.3 l 1
 -32.2 893.6 l 1
 -25.3 919.1 -9.4 948.3 11.7 964.8 c 1
EndSplineSet
LCarets2: 1 0 
Colour: ff00ff
EndChar

StartChar: uni1E15
Encoding: 7701 7701 150
Width: 500
VWidth: 999
Flags: HW
HStem: -10 76<219.536 361.445> 230 45<172 326> 394 50<209.436 302.919> 530 60<116.837 424.084>
VStem: 40 128<118.935 230 275 309.906> 113 315<530.849 589.524> 326 127<259 359.972>
LayerCount: 2
Fore
SplineSet
402 530 m 2
 128 530 l 2
 117 530 113 544 113 553 c 0
 113 565 125 590 138 590 c 2
 414 590 l 2
 424 590 428 576 428 568 c 0
 428 555 416 530 402 530 c 2
172 275 m 1
 324 275 l 1
 326 277 326 290 326 296 c 0
 326 376 284 394 257 394 c 0
 245.7 394 218.9 388.8 203 365 c 0
 189.4 344.7 173 310 172 275 c 1
442 129 m 1
 452 129 457 111 457 98 c 1
 407 25 339 -10 270 -10 c 0
 198.9 -10 144.6 5.9 107 40 c 0
 64.2 78.8 40 143.5 40 202 c 0
 40 355 148.9 444 263 444 c 0
 410 444 453 351 453 266 c 0
 453 252 448 230 424 230 c 2
 168 230 l 1
 168 225 168 221 168 214 c 0
 168 91 231 66 309 66 c 0
 347 66 401 87 442 129 c 1
228.2 767.9 m 1
 283.4 656.3 l 2
 286.6 650 290.6 640.1 290.6 632.9 c 0
 290.6 624.8 278.6 618.5 271.4 618.5 c 0
 265 618.5 254.7 623.1 241 636.5 c 2
 144.2 731 l 1
 145.8 740.9 l 1
 152.2 749 183.4 769.7 212.2 769.7 c 0
 216.2 769.7 225 768.8 228.2 767.9 c 1
EndSplineSet
LCarets2: 1 0 
Colour: ff00ff
EndChar

StartChar: uni1E16
Encoding: 7702 7702 151
Width: 584
VWidth: 999
Flags: HW
HStem: 0 73<244.435 487.022> 311 61<240 463.736> 577 68<244.435 479.755> 693 60<104.837 412.084> 833.6 130.2
VStem: 96 144<74.1699 311 372 575.826> 101 315<693.849 752.524> 418.1 164.8
LayerCount: 2
Fore
SplineSet
390 693 m 2
 116 693 l 2
 105 693 101 707 101 716 c 0
 101 728 113 753 126 753 c 2
 402 753 l 2
 412 753 416 739 416 731 c 0
 416 718 404 693 390 693 c 2
240 200 m 2
 240 183 241 97 248 73 c 1
 382 73 534 95 534 95 c 1
 536 91 l 1
 535 83 534 46 534 36 c 0
 534 26 535 14 536 0 c 1
 534 -3 l 1
 518 -1 495 0 474 0 c 2
 170 0 l 2
 135 0 85 -3 85 -3 c 1
 84 0 l 1
 92 54 96 125 96 200 c 2
 96 445 l 2
 96 520 92 588 84 645 c 1
 86 648 l 1
 86 648 136 645 170 645 c 2
 464 645 l 2
 485 645 508 646 524 648 c 1
 526 645 l 1
 525 631 524 618 524 610 c 0
 524 601 525 577 526 569 c 1
 524 565 l 1
 524 565 382 577 248 577 c 1
 241 553 240 462 240 445 c 2
 240 372 l 1
 358 372 408 377 467 382 c 1
 470 379 l 1
 468 370 467 351 467 342 c 0
 467 333 468 313 470 304 c 1
 467 301 l 1
 398 308 288 311 240 311 c 1
 240 200 l 2
539 963.8 m 1
 560.1 947.3 576 918.1 582.9 892.6 c 1
 577.5 880.3 l 1
 460.4 841.5 l 2
 443.3 835.8 436.6 833.6 430.4 833.6 c 0
 424.2 833.6 418.1 847.7 418.1 855.6 c 0
 418.1 861.8 419.5 868.6 429.6 876.7 c 2
 539 963.8 l 1
EndSplineSet
LCarets2: 1 0 
Colour: ff00ff
EndChar

StartChar: uni1E17
Encoding: 7703 7703 152
Width: 500
VWidth: 999
Flags: HW
HStem: -10 76<219.536 361.445> 230 45<172 326> 394 50<209.436 302.919> 530 60<116.837 424.084> 578.3 153.9
VStem: 40 128<118.935 230 275 309.906> 113 315<530.849 589.524> 185.2 147.2 326 127<259 359.972>
LayerCount: 2
Fore
SplineSet
402 530 m 2
 128 530 l 2
 117 530 113 544 113 553 c 0
 113 565 125 590 138 590 c 2
 185.3 590 l 2
 185.2 590.3 185.2 590.6 185.2 590.9 c 0
 185.2 596.3 186.8 604.4 191.6 612.5 c 2
 258 730.4 l 1
 260.4 731.3 266.8 732.2 270.8 732.2 c 0
 294.8 732.2 318 719.6 324.4 710.6 c 1
 332.4 689.9 l 1
 236.4 592.7 l 2
 235.4 591.7 234.3 590.8 233.3 590 c 2
 414 590 l 2
 424 590 428 576 428 568 c 0
 428 555 416 530 402 530 c 2
172 275 m 1
 324 275 l 1
 326 277 326 290 326 296 c 0
 326 376 284 394 257 394 c 0
 245.7 394 218.9 388.8 203 365 c 0
 189.4 344.7 173 310 172 275 c 1
442 129 m 1
 452 129 457 111 457 98 c 1
 407 25 339 -10 270 -10 c 0
 198.9 -10 144.6 5.9 107 40 c 0
 64.2 78.8 40 143.5 40 202 c 0
 40 355 148.9 444 263 444 c 0
 410 444 453 351 453 266 c 0
 453 252 448 230 424 230 c 2
 168 230 l 1
 168 225 168 221 168 214 c 0
 168 91 231 66 309 66 c 0
 347 66 401 87 442 129 c 1
EndSplineSet
LCarets2: 1 0 
Colour: ff00ff
EndChar

StartChar: uni1E18
Encoding: 7704 7704 153
Width: 584
VWidth: 999
Flags: HW
HStem: 0 73<244.435 487.022> 311 61<240 463.736> 577 68<244.435 479.755>
VStem: 96 144<74.1699 311 372 575.826> 148 253<-186 -186>
LayerCount: 2
Fore
SplineSet
381 -232 m 1
 354 -256 l 1
 306 -233 274 -216 236 -179 c 1
 194 -218 163 -233 119 -256 c 1
 92 -232 l 1
 175 -146 183 -134 217 -86 c 1
 257 -86 l 1
 295 -140 307 -158 381 -232 c 1
240 200 m 2
 240 183 241 97 248 73 c 1
 382 73 534 95 534 95 c 1
 536 91 l 1
 535 83 534 46 534 36 c 0
 534 26 535 14 536 0 c 1
 534 -3 l 1
 518 -1 495 0 474 0 c 2
 170 0 l 2
 135 0 85 -3 85 -3 c 1
 84 0 l 1
 92 54 96 125 96 200 c 2
 96 445 l 2
 96 520 92 588 84 645 c 1
 86 648 l 1
 86 648 136 645 170 645 c 2
 464 645 l 2
 485 645 508 646 524 648 c 1
 526 645 l 1
 525 631 524 618 524 610 c 0
 524 601 525 577 526 569 c 1
 524 565 l 1
 524 565 382 577 248 577 c 1
 241 553 240 462 240 445 c 2
 240 372 l 1
 358 372 408 377 467 382 c 1
 470 379 l 1
 468 370 467 351 467 342 c 0
 467 333 468 313 470 304 c 1
 467 301 l 1
 398 308 288 311 240 311 c 1
 240 200 l 2
EndSplineSet
LCarets2: 1 0 
Colour: ff00ff
EndChar

StartChar: uni1E19
Encoding: 7705 7705 154
Width: 500
VWidth: 999
Flags: HW
HStem: -10 76<219.536 361.445> 230 45<172 326> 394 50<209.436 302.919>
VStem: 40 128<118.935 230 275 309.906> 93 253<-186 -186> 326 127<259 359.972>
LayerCount: 2
Fore
SplineSet
326 -232 m 1
 299 -256 l 1
 251 -233 219 -216 181 -179 c 1
 139 -218 108 -233 64 -256 c 1
 37 -232 l 1
 120 -146 128 -134 162 -86 c 1
 202 -86 l 1
 240 -140 252 -158 326 -232 c 1
172 275 m 1
 324 275 l 1
 326 277 326 290 326 296 c 0
 326 376 284 394 257 394 c 0
 245.7 394 218.9 388.8 203 365 c 0
 189.4 344.7 173 310 172 275 c 1
442 129 m 1
 452 129 457 111 457 98 c 1
 407 25 339 -10 270 -10 c 0
 198.9 -10 144.6 5.9 107 40 c 0
 64.2 78.8 40 143.5 40 202 c 0
 40 355 148.9 444 263 444 c 0
 410 444 453 351 453 266 c 0
 453 252 448 230 424 230 c 2
 168 230 l 1
 168 225 168 221 168 214 c 0
 168 91 231 66 309 66 c 0
 347 66 401 87 442 129 c 1
EndSplineSet
LCarets2: 1 0 
Colour: ff00ff
EndChar

StartChar: uni1E1A
Encoding: 7706 7706 155
Width: 584
VWidth: 999
Flags: HW
HStem: -177 66<298.778 385.61> -125 67<176.161 268.179> 0 73<244.435 487.022> 311 61<240 463.736> 577 68<244.435 479.755>
VStem: 96 144<74.1699 311 372 575.826> 130 36<-168.361 -138.491> 401 36<-91.908 -64.25>
LayerCount: 2
Fore
SplineSet
352 -111 m 0
 373 -111 388 -93 401 -57 c 1
 437 -66 l 1
 423 -130 391 -177 340 -177 c 0
 302 -177 288 -165 271 -149 c 0
 254 -133 233 -125 215 -125 c 0
 186 -125 174 -143 166 -174 c 1
 130 -167 l 1
 145 -103 170 -58 218 -58 c 0
 254 -58 276 -72 297 -88 c 0
 318 -103 333 -111 352 -111 c 0
240 200 m 2
 240 183 241 97 248 73 c 1
 382 73 534 95 534 95 c 1
 536 91 l 1
 535 83 534 46 534 36 c 0
 534 26 535 14 536 0 c 1
 534 -3 l 1
 518 -1 495 0 474 0 c 2
 170 0 l 2
 135 0 85 -3 85 -3 c 1
 84 0 l 1
 92 54 96 125 96 200 c 2
 96 445 l 2
 96 520 92 588 84 645 c 1
 86 648 l 1
 86 648 136 645 170 645 c 2
 464 645 l 2
 485 645 508 646 524 648 c 1
 526 645 l 1
 525 631 524 618 524 610 c 0
 524 601 525 577 526 569 c 1
 524 565 l 1
 524 565 382 577 248 577 c 1
 241 553 240 462 240 445 c 2
 240 372 l 1
 358 372 408 377 467 382 c 1
 470 379 l 1
 468 370 467 351 467 342 c 0
 467 333 468 313 470 304 c 1
 467 301 l 1
 398 308 288 311 240 311 c 1
 240 200 l 2
EndSplineSet
LCarets2: 1 0 
Colour: ff00ff
EndChar

StartChar: uni1E1B
Encoding: 7707 7707 156
Width: 500
VWidth: 999
Flags: HW
HStem: -175 66<248.778 335.61> -123 67<126.161 218.179> -10 76<219.536 361.445> 230 45<172 326> 394 50<209.436 302.919>
VStem: 40 128<118.935 230 275 309.906> 80 36<-166.361 -136.491> 326 127<259 359.972> 351 36<-89.908 -62.25>
LayerCount: 2
Fore
SplineSet
302 -109 m 0
 323 -109 338 -91 351 -55 c 1
 387 -64 l 1
 373 -128 341 -175 290 -175 c 0
 252 -175 238 -163 221 -147 c 0
 204 -131 183 -123 165 -123 c 0
 136 -123 124 -141 116 -172 c 1
 80 -165 l 1
 95 -101 120 -56 168 -56 c 0
 204 -56 226 -70 247 -86 c 0
 268 -101 283 -109 302 -109 c 0
172 275 m 1
 324 275 l 1
 326 277 326 290 326 296 c 0
 326 376 284 394 257 394 c 0
 245.7 394 218.9 388.8 203 365 c 0
 189.4 344.7 173 310 172 275 c 1
442 129 m 1
 452 129 457 111 457 98 c 1
 407 25 339 -10 270 -10 c 0
 198.9 -10 144.6 5.9 107 40 c 0
 64.2 78.8 40 143.5 40 202 c 0
 40 355 148.9 444 263 444 c 0
 410 444 453 351 453 266 c 0
 453 252 448 230 424 230 c 2
 168 230 l 1
 168 225 168 221 168 214 c 0
 168 91 231 66 309 66 c 0
 347 66 401 87 442 129 c 1
EndSplineSet
LCarets2: 1 0 
Colour: ff00ff
EndChar

StartChar: uni1E1C
Encoding: 7708 7708 157
Width: 584
VWidth: 999
Flags: HW
HStem: -183 40<187.756 292.578> -85 41<275 295.006> 0 73<244.435 487.022> 311 61<240 463.736> 577 68<244.435 479.755> 853 80<221.019 377.065>
VStem: 96 144<74.1699 311 372 575.826> 150 31<965.906 982.806> 296 64<-137.762 -86.1991> 419 30<967.862 982.867>
LayerCount: 2
Fore
SplineSet
224 -92 m 1
 211 -79 l 1
 246.8 -0 l 1
 170 0 l 2
 135 0 85 -3 85 -3 c 1
 84 0 l 1
 92 54 96 125 96 200 c 2
 96 445 l 2
 96 520 92 588 84 645 c 1
 86 648 l 1
 86 648 136 645 170 645 c 2
 464 645 l 2
 485 645 508 646 524 648 c 1
 526 645 l 1
 525 631 524 618 524 610 c 0
 524 601 525 577 526 569 c 1
 524 565 l 1
 524 565 382 577 248 577 c 1
 241 553 240 462 240 445 c 2
 240 372 l 1
 358 372 408 377 467 382 c 1
 470 379 l 1
 468 370 467 351 467 342 c 0
 467 333 468 313 470 304 c 1
 467 301 l 1
 398 308 288 311 240 311 c 1
 240 200 l 2
 240 183 241 97 248 73 c 1
 382 73 534 95 534 95 c 1
 536 91 l 1
 535 83 534 46 534 36 c 0
 534 26 535 14 536 0 c 1
 534 -3 l 1
 518 -1 495 0 474 0 c 2
 292.3 -0 l 1
 275 -44 l 1
 341 -44 360 -82 360 -107 c 0
 360 -151 315 -183 256 -183 c 0
 226 -183 212 -181 179 -166 c 1
 194 -130 l 1
 215 -138 229 -143 251 -143 c 0
 275 -143 296 -129 296 -112 c 0
 296 -99 285 -85 267 -85 c 0
 251 -85 235 -88 224 -92 c 1
449 981 m 1
 442 910 373 853 300 853 c 0
 220 853 156 911 150 981 c 1
 181 989 l 1
 190 955 242 933 300 933 c 0
 354 933 411 955 419 989 c 1
 449 981 l 1
EndSplineSet
LCarets2: 1 0 
Colour: ff00ff
EndChar

StartChar: uni1E1D
Encoding: 7709 7709 158
Width: 500
VWidth: 999
Flags: HW
HStem: -188 40<139.756 244.578> -90 41<227 247.006> -10 76<219.536 361.445> 230 45<172 326> 394 50<209.436 302.919> 495 70<159.939 302.577>
VStem: 40 128<118.935 230 275 309.906> 92 33<605.075 641.182> 248 64<-142.762 -91.1991> 326 127<259 359.972> 340 32<606.158 641.281>
LayerCount: 2
Fore
SplineSet
176 -97 m 1
 163 -84 l 1
 199.4 -3.7 l 1
 161.8 3.8 131 18.2 107 40 c 0
 64.2 78.8 40 143.5 40 202 c 0
 40 355 148.9 444 263 444 c 0
 410 444 453 351 453 266 c 0
 453 252 448 230 424 230 c 2
 168 230 l 1
 168 225 168 221 168 214 c 0
 168 91 231 66 309 66 c 0
 347 66 401 87 442 129 c 1
 452 129 457 111 457 98 c 1
 407 25 339 -10 270 -10 c 0
 260.6 -10 251.4 -9.8 242.6 -9.2 c 1
 227 -49 l 1
 293 -49 312 -87 312 -112 c 0
 312 -156 267 -188 208 -188 c 0
 178 -188 164 -186 131 -171 c 1
 146 -135 l 1
 167 -143 181 -148 203 -148 c 0
 227 -148 248 -134 248 -117 c 0
 248 -104 237 -90 219 -90 c 0
 203 -90 187 -93 176 -97 c 1
172 275 m 1
 324 275 l 1
 326 277 326 290 326 296 c 0
 326 376 284 394 257 394 c 0
 245.7 394 218.9 388.8 203 365 c 0
 189.4 344.7 173 310 172 275 c 1
125 653 m 1
 127 599 170 565 233 565 c 0
 280 565 337 589 340 653 c 1
 372 638 l 1
 362 533 284 495 233 495 c 0
 152 495 99 557 92 638 c 1
 125 653 l 1
EndSplineSet
LCarets2: 1 0 
Colour: ff00ff
EndChar

StartChar: uni1E1E
Encoding: 7710 7710 159
Width: 539
VWidth: 999
Flags: HW
HStem: -3 21<86 172 172 252> 311 61<242 465.736> 577 68<246.435 481.755>
VStem: 98 144<2.67992 311 372 575.826>
LayerCount: 2
Fore
SplineSet
463 645 m 2
 487 645 510 646 526 648 c 1
 528 645 l 1
 527 631 526 618 526 610 c 0
 526 601 527 577 528 569 c 1
 526 565 l 1
 526 565 384 577 250 577 c 1
 243 553 242 462 242 445 c 2
 242 372 l 1
 360 372 410 377 469 382 c 1
 472 379 l 1
 470 370 469 351 469 342 c 0
 469 333 470 313 472 304 c 1
 469 301 l 1
 400 308 290 311 242 311 c 1
 242 200 l 2
 242 125 244 57 252 0 c 1
 250 -3 l 1
 250 -3 206 0 172 0 c 0
 137 0 87 -3 87 -3 c 1
 86 0 l 1
 94 54 98 125 98 200 c 2
 98 445 l 2
 98 520 94 588 86 645 c 1
 88 648 l 1
 88 648 138 645 172 645 c 2
 463 645 l 2
EndSplineSet
LCarets2: 1 0 
Colour: ff00ff
EndChar

StartChar: uni1E1F
Encoding: 7711 7711 160
Width: 376
VWidth: 999
Flags: HW
HStem: -3 21<86 162 162 233> 379 50<22 93 225 341> 629 69<249.021 369.5>
VStem: 93 132<2.72534 379 429 552.35>
LayerCount: 2
Fore
SplineSet
167 629 m 0
 209 672.9 280 698 360 698 c 0
 379 698 407 694 415 689 c 1
 416 686 l 1
 405 667 400 612 393 585 c 1
 363 584 l 1
 352 604 338 629 309 629 c 0
 255 629 220 590.2 220 535 c 0
 220 513 225 464.5 225 439 c 2
 225 429 l 1
 333 429 l 2
 338 429 341 427 341 423 c 2
 341 392 l 2
 341 383 327 379 318 379 c 2
 225 379 l 1
 225 200 l 2
 225 125 226 58 233 0 c 1
 231 -3 l 1
 231 -3 196.3 0 162 0 c 0
 127 0 87 -3 87 -3 c 1
 86 0 l 1
 93 51 93 125 93 200 c 2
 93 379 l 1
 27 379 l 2
 23 379 22 380 22 385 c 2
 22 409 l 2
 22 417 27 429 45 429 c 2
 93 429 l 1
 93 459 l 2
 93 520 123 583 167 629 c 0
EndSplineSet
LCarets2: 1 0 
Colour: ff00ff
EndChar

StartChar: uni1E20
Encoding: 7712 7712 161
Width: 760
VWidth: 999
Flags: HW
HStem: -10 55<337.32 524.526> 602 56<309.401 496.285> 725 60<224.837 532.084>
VStem: 39 158<214.24 438.594> 221 315<725.849 784.524> 546 138<83.3557 304.327>
LayerCount: 2
Fore
SplineSet
510 725 m 2
 236 725 l 2
 225 725 221 739 221 748 c 0
 221 760 233 785 246 785 c 2
 522 785 l 2
 532 785 536 771 536 763 c 0
 536 750 524 725 510 725 c 2
546 117 m 2
 546 192 544 250 536 307 c 1
 538 310 l 1
 538 310 586 307 620 307 c 0
 655 307 693 310 693 310 c 1
 694 307 l 1
 686 254 684 212 684 137 c 0
 684 104.6 687.9 90.5 694 83 c 1
 694 80 l 1
 626.5 23.4 513.5 -10 397 -10 c 0
 314.7 -10 237.8 7.6 178 48 c 0
 91.8 106.3 39 204.8 39 307 c 0
 39 420 80.4 515.5 155 575 c 0
 224 630 312 658 412 658 c 0
 534 658 651 613 651 613 c 1
 653 610 l 1
 641.2 560.7 636.6 531 633 480 c 1
 603 479 l 1
 562 561 476.1 602 398 602 c 0
 263 602 197 488 197 327 c 0
 197 195 284 45 420 45 c 0
 474 45 512 51 546 83 c 1
 546 117 l 2
EndSplineSet
LCarets2: 1 0 
Colour: ff00ff
EndChar

StartChar: uni1E21
Encoding: 7713 7713 162
Width: 561
VWidth: 999
Flags: HW
HStem: -238 45<186.075 347.737> -18 77<180.026 292.771> -17 83<218.306 376.027> 141 40<204.851 304.686> 399 40<209.818 307.53> 530 60<99.837 407.084>
VStem: 32 119<-160.411 -47.0122> 54 133<213.662 359.842> 59 112<65.7191 118.083> 96 315<530.849 589.524> 326 133<216.765 354.388> 400 130<-132.575 -41.5108>
LayerCount: 2
Fore
SplineSet
385 530 m 2
 111 530 l 2
 100 530 96 544 96 553 c 0
 96 565 108 590 121 590 c 2
 397 590 l 2
 407 590 411 576 411 568 c 0
 411 555 399 530 385 530 c 2
459 289 m 0
 459 195.9 374 141 258 141 c 0
 223.9 141 196.8 146 182.5 152 c 1
 171.5 135 171 123.1 171 107 c 0
 171 64 201 59 229 59 c 0
 234 59 234 60 248 61 c 0
 271 64 294 66 311 66 c 0
 403 66 530 46 530 -68 c 0
 530 -121.4 485.5 -171.5 426.5 -200.5 c 0
 366.1 -230.2 290.3 -238 225 -238 c 0
 135.8 -238 32 -211 32 -124 c 0
 32 -99.2 37 -68 54 -46 c 1
 78 -32 116.4 -17.6 138 -4 c 1
 82.5 4.5 59 32 59 74 c 0
 59 106.8 101.5 145 146 160 c 1
 148 165 l 1
 148 165 123.3 172.6 108.5 183 c 0
 82.8 201 54 229 54 285 c 0
 54 381 143 439 251 439 c 0
 272.5 439 305.4 436 323.3 430.4 c 1
 397.9 434.3 461.2 434.9 509 439 c 1
 512 436 l 1
 510 427 509 416 509 407 c 0
 509 398 510 389 512 380 c 1
 509 377 l 1
 474.2 379.4 437.7 385.1 407.9 385.6 c 1
 439 364.6 459 323.5 459 289 c 0
326 288 m 0
 326 363 315 399 255 399 c 0
 203 399 187 356 187 290 c 0
 187 217 197 181 258 181 c 0
 306 181 326 217 326 288 c 0
183 -16 m 1
 157 -43 151 -70.9 151 -104 c 0
 151 -172 219 -193 253 -193 c 0
 339 -193 400 -152 400 -91 c 0
 400 -21.8 332 -17 276 -17 c 0
 262.2 -17 235.5 -18 206 -18 c 0
 197 -18 189.4 -16.8 183 -16 c 1
EndSplineSet
LCarets2: 1 0 
Colour: ff00ff
EndChar

StartChar: uni1E22
Encoding: 7714 7714 163
Width: 788
VWidth: 999
Flags: HW
HStem: -3 21<91 175 175 259 539 623 623 707> 311 52<237 563> 628 20<91 175 175 259 539 623 623 707> 641 142<298.5 407.5>
VStem: 103 144<2.67992 642.32> 278 150<661.5 762.5> 551 144<2.67992 642.32>
LayerCount: 2
Fore
SplineSet
551 445 m 2
 551 520 547 588 539 645 c 1
 541 648 l 1
 541 648 589 645 623 645 c 0
 658 645 706 648 706 648 c 1
 707 645 l 1
 699 592 695 520 695 445 c 2
 695 200 l 2
 695 125 699 57 707 0 c 1
 705 -3 l 1
 705 -3 657 0 623 0 c 0
 588 0 540 -3 540 -3 c 1
 539 0 l 1
 547 54 551 125 551 200 c 2
 551 311 l 1
 247 311 l 1
 247 200 l 2
 247 125 251 57 259 0 c 1
 257 -3 l 1
 257 -3 209 0 175 0 c 0
 140 0 92 -3 92 -3 c 1
 91 0 l 1
 99 54 103 125 103 200 c 2
 103 445 l 2
 103 520 99 588 91 645 c 1
 93 648 l 1
 93 648 141 645 175 645 c 0
 210 645 258 648 258 648 c 1
 259 645 l 1
 251 592 247 520 247 445 c 2
 247 363 l 1
 551 363 l 1
 551 445 l 2
278 712 m 0
 278 752 311 783 353 783 c 0
 395 783 428 752 428 712 c 0
 428 672 395 641 353 641 c 0
 311 641 278 672 278 712 c 0
EndSplineSet
LCarets2: 1 0 
Colour: ff00ff
EndChar

StartChar: uni1E23
Encoding: 7715 7715 164
Width: 606
VWidth: 999
Flags: HW
HStem: -3 21<74 155 155 224 380 465 465 528> 362 77<304.364 434> 467 142<232.5 341.5> 678 20<206.465 222.167>
VStem: 86 132<2.6647 307.95 351 659.981> 212 150<487.5 588.5> 386 132<2.6647 348.673>
LayerCount: 2
Fore
SplineSet
86 474 m 2
 86 550 81.7 619.3 74 662 c 1
 76 665 l 1
 116.5 668 193.9 688 219 698 c 1
 225.3 698 228 695 228 688 c 0
 222.9 647.1 220.2 610.4 218.9 568.3 c 1
 230.7 592.6 256.5 609 287 609 c 0
 329 609 362 578 362 538 c 0
 362 498 329 467 287 467 c 0
 255.7 467 229.4 484.3 218 509.6 c 1
 218 506.4 218 503.2 218 500 c 2
 218 438 l 1
 214 351 l 1
 218 349 l 1
 264 408 338 439 389 439 c 0
 479 439 518 381 518 291 c 2
 518 180 l 2
 518 104 519 57 528 0 c 1
 526 -3 l 1
 526 -3 499 0 465 0 c 0
 430 0 381 -3 381 -3 c 1
 380 0 l 1
 386 53 386 105 386 180 c 2
 386 269 l 2
 386 342 361 362 334 362 c 0
 298 362 256 332 218 282 c 1
 218 180 l 2
 218 104 219 57 224 0 c 1
 222 -3 l 1
 222 -3 189.3 0 155 0 c 0
 120 0 75 -3 75 -3 c 1
 74 0 l 1
 82.5 53.5 86 105 86 180 c 2
 86 474 l 2
EndSplineSet
LCarets2: 1 0 
Colour: ff00ff
EndChar

StartChar: uni1E24
Encoding: 7716 7716 165
Width: 788
VWidth: 999
Flags: HW
HStem: -219 142<298.5 407.5> -3 21<91 175 175 259 539 623 623 707> 311 52<237 563> 628 20<91 175 175 259 539 623 623 707>
VStem: 103 144<2.67992 642.32> 278 150<-198.5 -97.5> 551 144<2.67992 642.32>
LayerCount: 2
Fore
SplineSet
551 445 m 2
 551 520 547 588 539 645 c 1
 541 648 l 1
 541 648 589 645 623 645 c 0
 658 645 706 648 706 648 c 1
 707 645 l 1
 699 592 695 520 695 445 c 2
 695 200 l 2
 695 125 699 57 707 0 c 1
 705 -3 l 1
 705 -3 657 0 623 0 c 0
 588 0 540 -3 540 -3 c 1
 539 0 l 1
 547 54 551 125 551 200 c 2
 551 311 l 1
 247 311 l 1
 247 200 l 2
 247 125 251 57 259 0 c 1
 257 -3 l 1
 257 -3 209 0 175 0 c 0
 140 0 92 -3 92 -3 c 1
 91 0 l 1
 99 54 103 125 103 200 c 2
 103 445 l 2
 103 520 99 588 91 645 c 1
 93 648 l 1
 93 648 141 645 175 645 c 0
 210 645 258 648 258 648 c 1
 259 645 l 1
 251 592 247 520 247 445 c 2
 247 363 l 1
 551 363 l 1
 551 445 l 2
278 -148 m 0
 278 -108 311 -77 353 -77 c 0
 395 -77 428 -108 428 -148 c 0
 428 -188 395 -219 353 -219 c 0
 311 -219 278 -188 278 -148 c 0
EndSplineSet
LCarets2: 1 0 
Colour: ff00ff
EndChar

StartChar: uni1E25
Encoding: 7717 7717 166
Width: 606
VWidth: 999
Flags: HW
HStem: -220 142<204.5 313.5> -3 21<74 155 155 224 380 465 465 528> 362 77<304.364 434> 678 20<206.465 222.167>
VStem: 86 132<2.6647 307.95 351 659.981> 184 150<-199.5 -98.5> 386 132<2.6647 348.673>
LayerCount: 2
Fore
SplineSet
184 -149 m 0
 184 -109 217 -78 259 -78 c 0
 301 -78 334 -109 334 -149 c 0
 334 -189 301 -220 259 -220 c 0
 217 -220 184 -189 184 -149 c 0
86 474 m 2
 86 550 81.7 619.3 74 662 c 1
 76 665 l 1
 116.5 668 193.9 688 219 698 c 1
 225.3 698 228 695 228 688 c 0
 220.3 626.7 218 575 218 500 c 2
 218 438 l 1
 214 351 l 1
 218 349 l 1
 264 408 338 439 389 439 c 0
 479 439 518 381 518 291 c 2
 518 180 l 2
 518 104 519 57 528 0 c 1
 526 -3 l 1
 526 -3 499 0 465 0 c 0
 430 0 381 -3 381 -3 c 1
 380 0 l 1
 386 53 386 105 386 180 c 2
 386 269 l 2
 386 342 361 362 334 362 c 0
 298 362 256 332 218 282 c 1
 218 180 l 2
 218 104 219 57 224 0 c 1
 222 -3 l 1
 222 -3 189.3 0 155 0 c 0
 120 0 75 -3 75 -3 c 1
 74 0 l 1
 82.5 53.5 86 105 86 180 c 2
 86 474 l 2
EndSplineSet
LCarets2: 1 0 
Colour: ff00ff
EndChar

StartChar: uni1E26
Encoding: 7718 7718 167
Width: 788
VWidth: 999
Flags: HW
HStem: -3 21<91 175 175 259 539 623 623 707> 311 52<237 563> 628 20<91 175 175 259 539 623 623 707> 709 125<192.293 287.707 412.293 507.37>
VStem: 103 144<2.67992 642.32> 177 126<724.2 818.707> 397 126<725.191 817.706> 551 144<2.67992 642.32>
LayerCount: 2
Fore
SplineSet
397 771 m 0
 397 806 425 834 460 834 c 0
 494 834 523 806 523 771 c 0
 523 737 494 709 460 709 c 0
 425 709 397 737 397 771 c 0
177 771 m 0
 177 806 205 834 240 834 c 0
 275 834 303 806 303 771 c 0
 303 737 275 709 240 709 c 0
 205 709 177 737 177 771 c 0
551 445 m 2
 551 520 547 588 539 645 c 1
 541 648 l 1
 541 648 589 645 623 645 c 0
 658 645 706 648 706 648 c 1
 707 645 l 1
 699 592 695 520 695 445 c 2
 695 200 l 2
 695 125 699 57 707 0 c 1
 705 -3 l 1
 705 -3 657 0 623 0 c 0
 588 0 540 -3 540 -3 c 1
 539 0 l 1
 547 54 551 125 551 200 c 2
 551 311 l 1
 247 311 l 1
 247 200 l 2
 247 125 251 57 259 0 c 1
 257 -3 l 1
 257 -3 209 0 175 0 c 0
 140 0 92 -3 92 -3 c 1
 91 0 l 1
 99 54 103 125 103 200 c 2
 103 445 l 2
 103 520 99 588 91 645 c 1
 93 648 l 1
 93 648 141 645 175 645 c 0
 210 645 258 648 258 648 c 1
 259 645 l 1
 251 592 247 520 247 445 c 2
 247 363 l 1
 551 363 l 1
 551 445 l 2
EndSplineSet
LCarets2: 1 0 
Colour: ff00ff
EndChar

StartChar: uni1E27
Encoding: 7719 7719 168
Width: 606
VWidth: 999
Flags: HW
HStem: -3 21<74 155 155 224 380 465 465 528> 362 77<304.364 434> 527 91<215.053 290.947 352.053 428.653> 678 20<206.465 222.167>
VStem: 86 132<2.6647 307.95 351 659.981> 208 90<533.481 611.246> 345 91<534.053 610.653> 386 132<2.6647 348.673>
LayerCount: 2
Fore
SplineSet
345 572 m 0
 345 597 365 618 390 618 c 0
 415 618 436 597 436 572 c 0
 436 547 415 527 390 527 c 0
 365 527 345 547 345 572 c 0
86 474 m 2
 86 550 81.7 619.3 74 662 c 1
 76 665 l 1
 116.5 668 193.9 688 219 698 c 1
 225.3 698 228 695 228 688 c 0
 224.4 658.9 222 631.9 220.4 603.6 c 1
 228.6 612.4 240.1 618 253 618 c 0
 278 618 298 597 298 572 c 0
 298 547 278 527 253 527 c 0
 239 527 226.5 533.3 218.3 543.2 c 1
 218.1 529.6 218 515.3 218 500 c 2
 218 438 l 1
 214 351 l 1
 218 349 l 1
 264 408 338 439 389 439 c 0
 479 439 518 381 518 291 c 2
 518 180 l 2
 518 104 519 57 528 0 c 1
 526 -3 l 1
 526 -3 499 0 465 0 c 0
 430 0 381 -3 381 -3 c 1
 380 0 l 1
 386 53 386 105 386 180 c 2
 386 269 l 2
 386 342 361 362 334 362 c 0
 298 362 256 332 218 282 c 1
 218 180 l 2
 218 104 219 57 224 0 c 1
 222 -3 l 1
 222 -3 189.3 0 155 0 c 0
 120 0 75 -3 75 -3 c 1
 74 0 l 1
 82.5 53.5 86 105 86 180 c 2
 86 474 l 2
EndSplineSet
LCarets2: 1 0 
Colour: ff80cc
EndChar

StartChar: uni1E28
Encoding: 7720 7720 169
Width: 788
VWidth: 999
Flags: HW
HStem: -179 40<76.756 181.578> -81 41<164 184.006> -3 21<91 175 175 259 539 623 623 707> 311 52<237 563> 628 20<91 175 175 259 539 623 623 707>
VStem: 103 144<2.67992 642.32> 185 64<-133.762 -82.1991> 551 144<2.67992 642.32>
LayerCount: 2
Fore
SplineSet
551 445 m 2
 551 520 547 588 539 645 c 1
 541 648 l 1
 541 648 589 645 623 645 c 0
 658 645 706 648 706 648 c 1
 707 645 l 1
 699 592 695 520 695 445 c 2
 695 200 l 2
 695 125 699 57 707 0 c 1
 705 -3 l 1
 705 -3 657 0 623 0 c 0
 588 0 540 -3 540 -3 c 1
 539 0 l 1
 547 54 551 125 551 200 c 2
 551 311 l 1
 247 311 l 1
 247 200 l 2
 247 125 251 57 259 0 c 1
 257 -3 l 1
 257 -3 213.3 -0.2 179.7 -0 c 1
 164 -40 l 1
 230 -40 249 -78 249 -103 c 0
 249 -147 204 -179 145 -179 c 0
 115 -179 101 -177 68 -162 c 1
 83 -126 l 1
 104 -134 118 -139 140 -139 c 0
 164 -139 185 -125 185 -108 c 0
 185 -95 174 -81 156 -81 c 0
 140 -81 124 -84 113 -88 c 1
 100 -75 l 1
 133.6 -0.9 l 1
 110.9 -1.8 92 -3 92 -3 c 2
 91 0 l 1
 99 54 103 125 103 200 c 2
 103 445 l 2
 103 520 99 588 91 645 c 1
 93 648 l 1
 93 648 141 645 175 645 c 0
 210 645 258 648 258 648 c 1
 259 645 l 1
 251 592 247 520 247 445 c 2
 247 363 l 1
 551 363 l 1
 551 445 l 2
EndSplineSet
LCarets2: 1 0 
Colour: ff00ff
EndChar

StartChar: uni1E29
Encoding: 7721 7721 170
Width: 606
VWidth: 999
Flags: HW
HStem: -177 40<47.756 152.578> -79 41<135 155.006> -3 21<74 155 155 224 380 465 465 528> 362 77<304.364 434> 678 20<206.465 222.167>
VStem: 86 132<2.6647 307.95 351 659.981> 156 64<-131.762 -80.1991> 386 132<2.6647 348.673>
LayerCount: 2
Fore
SplineSet
84 -86 m 1
 71 -73 l 1
 103.5 -1.4 l 1
 87.1 -2.2 75 -3 75 -3 c 2
 74 0 l 1
 82.5 53.5 86 105 86 180 c 2
 86 474 l 2
 86 550 81.7 619.3 74 662 c 1
 76 665 l 1
 116.5 668 193.9 688 219 698 c 1
 225.3 698 228 695 228 688 c 0
 220.3 626.7 218 575 218 500 c 2
 218 438 l 1
 214 351 l 1
 218 349 l 1
 264 408 338 439 389 439 c 0
 479 439 518 381 518 291 c 2
 518 180 l 2
 518 104 519 57 528 0 c 1
 526 -3 l 1
 526 -3 499 0 465 0 c 0
 430 0 381 -3 381 -3 c 1
 380 0 l 1
 386 53 386 105 386 180 c 2
 386 269 l 2
 386 342 361 362 334 362 c 0
 298 362 256 332 218 282 c 1
 218 180 l 2
 218 104 219 57 224 0 c 1
 222 -3 l 1
 222 -3 189.3 0 155 0 c 0
 153.3 0 151.6 0 149.9 -0 c 1
 135 -38 l 1
 201 -38 220 -76 220 -101 c 0
 220 -145 175 -177 116 -177 c 0
 86 -177 72 -175 39 -160 c 1
 54 -124 l 1
 75 -132 89 -137 111 -137 c 0
 135 -137 156 -123 156 -106 c 0
 156 -93 145 -79 127 -79 c 0
 111 -79 95 -82 84 -86 c 1
EndSplineSet
LCarets2: 1 0 
Colour: ff00ff
EndChar

StartChar: uni1E2A
Encoding: 7722 7722 171
Width: 788
VWidth: 999
Flags: HW
HStem: -205 70<283.939 426.577> -3 21<91 175 175 259 539 623 623 707> 311 52<237 563> 628 20<91 175 175 259 539 623 623 707>
VStem: 103 144<2.67992 642.32> 216 33<-94.925 -58.818> 464 32<-93.842 -58.719> 551 144<2.67992 642.32>
LayerCount: 2
Fore
SplineSet
551 445 m 2
 551 520 547 588 539 645 c 1
 541 648 l 1
 541 648 589 645 623 645 c 0
 658 645 706 648 706 648 c 1
 707 645 l 1
 699 592 695 520 695 445 c 2
 695 200 l 2
 695 125 699 57 707 0 c 1
 705 -3 l 1
 705 -3 657 0 623 0 c 0
 588 0 540 -3 540 -3 c 1
 539 0 l 1
 547 54 551 125 551 200 c 2
 551 311 l 1
 247 311 l 1
 247 200 l 2
 247 125 251 57 259 0 c 1
 257 -3 l 1
 257 -3 209 0 175 0 c 0
 140 0 92 -3 92 -3 c 1
 91 0 l 1
 99 54 103 125 103 200 c 2
 103 445 l 2
 103 520 99 588 91 645 c 1
 93 648 l 1
 93 648 141 645 175 645 c 0
 210 645 258 648 258 648 c 1
 259 645 l 1
 251 592 247 520 247 445 c 2
 247 363 l 1
 551 363 l 1
 551 445 l 2
249 -47 m 1
 251 -101 294 -135 357 -135 c 0
 404 -135 461 -111 464 -47 c 1
 496 -62 l 1
 486 -167 408 -205 357 -205 c 0
 276 -205 223 -143 216 -62 c 1
 249 -47 l 1
EndSplineSet
LCarets2: 1 0 
Colour: ff00ff
EndChar

StartChar: uni1E2B
Encoding: 7723 7723 172
Width: 606
VWidth: 999
Flags: HW
HStem: -215 70<218.939 361.577> -3 21<74 155 155 224 380 465 465 528> 362 77<304.364 434> 678 20<206.465 222.167>
VStem: 86 132<2.6647 307.95 351 659.981> 151 33<-104.925 -68.818> 386 132<2.6647 348.673> 399 32<-103.842 -68.719>
LayerCount: 2
Fore
SplineSet
184 -57 m 1
 186 -111 229 -145 292 -145 c 0
 339 -145 396 -121 399 -57 c 1
 431 -72 l 1
 421 -177 343 -215 292 -215 c 0
 211 -215 158 -153 151 -72 c 1
 184 -57 l 1
86 474 m 2
 86 550 81.7 619.3 74 662 c 1
 76 665 l 1
 116.5 668 193.9 688 219 698 c 1
 225.3 698 228 695 228 688 c 0
 220.3 626.7 218 575 218 500 c 2
 218 438 l 1
 214 351 l 1
 218 349 l 1
 264 408 338 439 389 439 c 0
 479 439 518 381 518 291 c 2
 518 180 l 2
 518 104 519 57 528 0 c 1
 526 -3 l 1
 526 -3 499 0 465 0 c 0
 430 0 381 -3 381 -3 c 1
 380 0 l 1
 386 53 386 105 386 180 c 2
 386 269 l 2
 386 342 361 362 334 362 c 0
 298 362 256 332 218 282 c 1
 218 180 l 2
 218 104 219 57 224 0 c 1
 222 -3 l 1
 222 -3 189.3 0 155 0 c 0
 120 0 75 -3 75 -3 c 1
 74 0 l 1
 82.5 53.5 86 105 86 180 c 2
 86 474 l 2
EndSplineSet
Colour: ff00ff
EndChar

StartChar: uni1E2C
Encoding: 7724 7724 173
Width: 351
VWidth: 999
Flags: HW
HStem: -177 66<178.778 265.61> -125 67<56.1606 148.179> -3 21<94 178 178 262> 628 20<94 178 178 262>
VStem: 10 36<-168.361 -138.491> 106 144<2.67992 642.32> 281 36<-91.908 -64.25>
LayerCount: 2
Fore
SplineSet
232 -111 m 0
 253 -111 268 -93 281 -57 c 1
 317 -66 l 1
 303 -130 271 -177 220 -177 c 0
 182 -177 168 -165 151 -149 c 0
 134 -133 113 -125 95 -125 c 0
 66 -125 54 -143 46 -174 c 1
 10 -167 l 1
 25 -103 50 -58 98 -58 c 0
 134 -58 156 -72 177 -88 c 0
 198 -103 213 -111 232 -111 c 0
106 445 m 2
 106 520 102 588 94 645 c 1
 96 648 l 1
 96 648 144 645 178 645 c 0
 213 645 261 648 261 648 c 1
 262 645 l 1
 254 592 250 520 250 445 c 2
 250 200 l 2
 250 125 254 57 262 0 c 1
 260 -3 l 1
 260 -3 212 0 178 0 c 0
 143 0 95 -3 95 -3 c 1
 94 0 l 1
 102 54 106 125 106 200 c 2
 106 445 l 2
EndSplineSet
LCarets2: 1 0 
Colour: ff00ff
EndChar

StartChar: uni1E2D
Encoding: 7725 7725 174
Width: 310
VWidth: 999
Flags: HW
HStem: -177 66<171.778 258.61> -125 67<49.1606 141.179> -3 21<80 97 215 232> 412 20<80 92.2366 216.006 226> 536 142<101.5 210.5>
VStem: 3 36<-168.361 -138.491> 90 132<2.6647 421.154> 274 36<-91.908 -64.25>
LayerCount: 2
Fore
SplineSet
225 -111 m 0
 246 -111 261 -93 274 -57 c 1
 310 -66 l 1
 296 -130 264 -177 213 -177 c 0
 175 -177 161 -165 144 -149 c 0
 127 -133 106 -125 88 -125 c 0
 59 -125 47 -143 39 -174 c 1
 3 -167 l 1
 18 -103 43 -58 91 -58 c 0
 127 -58 149 -72 170 -88 c 0
 191 -103 206 -111 225 -111 c 0
81 607 m 0
 81 647 114 678 156 678 c 0
 198 678 231 647 231 607 c 0
 231 567 198 536 156 536 c 0
 114 536 81 567 81 607 c 0
90 235 m 2
 90 310 88 385 80 428 c 1
 83 432 l 1
 101.5 431.5 128 429 154 429 c 0
 182 429 209 432.4 223 434 c 0
 229 434 232 431 232 424 c 0
 227 363 222 321 222 246 c 2
 222 180 l 2
 222 104 224 57 232 0 c 1
 230 -3 l 1
 200 -1 190 0 156 0 c 0
 121 0 112 -1 82 -3 c 1
 80 0 l 1
 88 54 90 105 90 180 c 2
 90 235 l 2
EndSplineSet
LCarets2: 1 0 
Colour: ff00ff
EndChar

StartChar: uni1E2E
Encoding: 7726 7726 175
Width: 351
VWidth: 999
Flags: HW
HStem: -3 21<94 178 178 262> 628 20<94 178 178 262> 726 125<12.293 107.707 232.293 327.37> 891.6 130.2
VStem: -3 126<741.2 835.707> 106 144<2.67992 642.32> 108.1 164.8 217 126<742.191 834.706>
LayerCount: 2
Fore
SplineSet
229 1021.8 m 1
 250.1 1005.3 266 976.1 272.9 950.6 c 1
 267.5 938.3 l 1
 150.4 899.5 l 2
 133.3 893.8 126.6 891.6 120.4 891.6 c 0
 114.2 891.6 108.1 905.7 108.1 913.6 c 0
 108.1 919.8 109.5 926.6 119.6 934.7 c 2
 229 1021.8 l 1
217 788 m 0
 217 823 245 851 280 851 c 0
 314 851 343 823 343 788 c 0
 343 754 314 726 280 726 c 0
 245 726 217 754 217 788 c 0
-3 788 m 0
 -3 823 25 851 60 851 c 0
 95 851 123 823 123 788 c 0
 123 754 95 726 60 726 c 0
 25 726 -3 754 -3 788 c 0
106 445 m 2
 106 520 102 588 94 645 c 1
 96 648 l 1
 96 648 144 645 178 645 c 0
 213 645 261 648 261 648 c 1
 262 645 l 1
 254 592 250 520 250 445 c 2
 250 200 l 2
 250 125 254 57 262 0 c 1
 260 -3 l 1
 260 -3 212 0 178 0 c 0
 143 0 95 -3 95 -3 c 1
 94 0 l 1
 102 54 106 125 106 200 c 2
 106 445 l 2
EndSplineSet
LCarets2: 1 0 
Colour: ff00ff
EndChar

StartChar: uni1E2F
Encoding: 7727 7727 176
Width: 310
VWidth: 999
Flags: HW
HStem: -3 21<80 97 215 232> 412 20<80 92.2366 216.006 226> 509 125<8.1072 101.707 217.293 310.893> 563.2 150.5
VStem: -7 124<524.537 618.707> 90 132<2.6647 421.154> 107.7 141.7 202 124<524.537 618.707>
LayerCount: 2
Fore
SplineSet
177.8 711.9 m 1
 180.1 712.8 186.2 713.7 190.1 713.7 c 0
 213.2 713.7 235.5 701.3 241.7 692.5 c 1
 249.4 672.3 l 1
 157 577.2 l 2
 146.2 566.6 131.6 563.2 123.9 563.2 c 0
 121.8 563.2 119.2 564 116.7 565.3 c 1
 113.7 534.7 87 509 54 509 c 0
 21 509 -7 538 -7 571 c 0
 -7 606 21 634 54 634 c 0
 80.8 634 103.4 617.7 112.6 594.3 c 1
 113 595.1 113.4 595.8 113.9 596.6 c 2
 177.8 711.9 l 1
202 571 m 0
 202 606 230 634 265 634 c 0
 298 634 326 606 326 571 c 0
 326 538 298 509 265 509 c 0
 230 509 202 538 202 571 c 0
90 235 m 2
 90 310 88 385 80 428 c 1
 83 432 l 1
 101.5 431.5 128 429 154 429 c 0
 182 429 209 432.4 223 434 c 0
 229 434 232 431 232 424 c 0
 227 363 222 321 222 246 c 2
 222 180 l 2
 222 104 224 57 232 0 c 1
 230 -3 l 1
 200 -1 190 0 156 0 c 0
 121 0 112 -1 82 -3 c 1
 80 0 l 1
 88 54 90 105 90 180 c 2
 90 235 l 2
EndSplineSet
LCarets2: 1 0 
Colour: ff00ff
EndChar

StartChar: uni1E30
Encoding: 7728 7728 177
Width: 759
VWidth: 999
Flags: HW
HStem: -3 21<94 178 178 262 478 531.5 698.746 707.5> 4 37<364.007 415.937 464.168 516.988> 319 35<243 268.714> 628 20<94 178 178 262 492.5 543.5 663 699>
VStem: 106 144<2.67992 642.32> 385 55<-58.381 -17.172> 418 43<13.026 83.9824> 440 56<-56.148 -17.036>
LayerCount: 2
Fore
SplineSet
431 0 m 1
 425 1 418 4 411 4 c 0
 405 4 399 1 387 1 c 0
 374 1 364 6 364 23 c 0
 364 31 369 41 382 41 c 0
 401 41 410 23 434 12 c 1
 432 34 418 49 418 63 c 0
 418 74 429 84 439 84 c 0
 449 84 461 78 461 65 c 0
 461 50 448 28 447 12 c 1
 467.1 21.2 475.3 36 488 40.6 c 1
 403.6 146.7 304.9 276.1 269 312 c 0
 264.2 316 255.1 318 250 318.7 c 1
 250 200 l 2
 250 125 254 57 262 0 c 1
 260 -3 l 1
 260 -3 212 0 178 0 c 0
 143 0 95 -3 95 -3 c 1
 94 0 l 1
 102 54 106 125 106 200 c 2
 106 445 l 2
 106 520 102 588 94 645 c 1
 96 648 l 1
 96 648 144 645 178 645 c 0
 213 645 261 648 261 648 c 1
 262 645 l 1
 254 592 250 520 250 445 c 2
 250 354.1 l 1
 255.1 354.6 265.1 356.9 272 363 c 0
 360 440 448 546 537 648 c 1
 550 645 603 645 616 645 c 0
 631 645 691 645 707 648 c 1
 619 571 461 433 393 354 c 1
 393 352 l 1
 717 -3 l 1
 698 0 634 0 615 0 c 0
 598 0 540 0 523 -3 c 1
 512.1 10.5 l 1
 505.6 3.8 493.5 1 480 1 c 0
 469 1 460 2 450 0 c 1
 469 -20 496 -18 496 -47 c 0
 496 -57 486 -63 478 -63 c 0
 452 -63 453 -30 440 -8 c 1
 427 -32 434 -63 401 -63 c 0
 392 -63 385 -56 385 -47 c 0
 385 -17 413 -21 431 0 c 1
EndSplineSet
LCarets2: 1 0 
Colour: ff00ff
EndChar

StartChar: uni1E31
Encoding: 7729 7729 178
Width: 591
VWidth: 999
Flags: HW
HStem: -3 21<69 147 147 225 362.525 405.667 577.5 584> 207 34<208 242.571> 412 20<551.5 563> 470 171 678 20<201.465 217.167>
VStem: 81 132<2.67975 659.981> 248 184
LayerCount: 2
Fore
SplineSet
339 639 m 1
 342 640 350 641 355 641 c 0
 385 641 414 627 422 617 c 1
 432 594 l 1
 312 486 l 2
 298 474 279 470 269 470 c 0
 261 470 248 478 248 484 c 0
 248 490 250 499 256 508 c 2
 339 639 l 1
81 200 m 2
 81 474 l 2
 81 550 76.7 619.3 69 662 c 1
 71 665 l 1
 111.5 668 188.9 688 214 698 c 1
 220.3 698 225 695 225 688 c 0
 217.3 626.7 213 575 213 500 c 2
 213 241.3 l 1
 225.4 242.4 245.7 247.3 257 256 c 0
 296.6 286.5 368.9 366.5 412 429 c 1
 439 429 542 429 561 432 c 1
 563 429 l 1
 498 373.9 415.4 278.9 376 238 c 1
 471.4 122.8 509.6 78.6 584 0 c 1
 582 -3 l 1
 573 -1.2 494.7 0 478 0 c 0
 461 0 413.3 -1.2 398 -3 c 1
 327 95.8 308 130 243 198 c 0
 235.7 204.5 221.7 206.4 213 206.9 c 1
 213 200 l 2
 213 124.8 216.5 57 225 0 c 1
 223 -3 l 1
 223 -3 181.3 0 147 0 c 0
 112 0 70 -3 70 -3 c 1
 69 0 l 1
 77.5 53.5 81 125 81 200 c 2
EndSplineSet
LCarets2: 1 0 
Colour: ff00ff
EndChar

StartChar: uni1E32
Encoding: 7730 7730 179
Width: 759
VWidth: 999
Flags: HW
HStem: -219 142<270.5 379.5> -3 21<94 178 178 262 478 531.5 698.746 707.5> 319 35<243 268.714> 628 20<94 178 178 262 492.5 543.5 663 699>
VStem: 106 144<2.67992 642.32> 250 150<-198.5 -97.5>
LayerCount: 2
Fore
SplineSet
250 -148 m 0
 250 -108 283 -77 325 -77 c 0
 367 -77 400 -108 400 -148 c 0
 400 -188 367 -219 325 -219 c 0
 283 -219 250 -188 250 -148 c 0
106 445 m 2
 106 520 102 588 94 645 c 1
 96 648 l 1
 96 648 144 645 178 645 c 0
 213 645 261 648 261 648 c 1
 262 645 l 1
 254 592 250 520 250 445 c 2
 250 354.1 l 1
 255.1 354.6 265.1 356.9 272 363 c 0
 360 440 448 546 537 648 c 1
 550 645 603 645 616 645 c 0
 631 645 691 645 707 648 c 1
 619 571 461 433 393 354 c 1
 393 352 l 1
 717 -3 l 1
 698 0 634 0 615 0 c 0
 598 0 540 0 523 -3 c 1
 433 108 310 271 269 312 c 0
 264.2 316 255.1 318 250 318.7 c 1
 250 200 l 2
 250 125 254 57 262 0 c 1
 260 -3 l 1
 260 -3 212 0 178 0 c 0
 143 0 95 -3 95 -3 c 1
 94 0 l 1
 102 54 106 125 106 200 c 2
 106 445 l 2
EndSplineSet
LCarets2: 1 0 
Colour: ff00ff
EndChar

StartChar: uni1E33
Encoding: 7731 7731 180
Width: 591
VWidth: 999
Flags: HW
HStem: -219 142<196.5 305.5> -3 21<69 147 147 225 362.525 405.667 577.5 584> 207 34<208 242.571> 412 20<551.5 563> 678 20<201.465 217.167>
VStem: 81 132<2.67975 659.981> 176 150<-198.5 -97.5>
LayerCount: 2
Fore
SplineSet
176 -148 m 0
 176 -108 209 -77 251 -77 c 0
 293 -77 326 -108 326 -148 c 0
 326 -188 293 -219 251 -219 c 0
 209 -219 176 -188 176 -148 c 0
81 200 m 2
 81 474 l 2
 81 550 76.7 619.3 69 662 c 1
 71 665 l 1
 111.5 668 188.9 688 214 698 c 1
 220.3 698 225 695 225 688 c 0
 217.3 626.7 213 575 213 500 c 2
 213 241.3 l 1
 225.4 242.4 245.7 247.3 257 256 c 0
 296.6 286.5 368.9 366.5 412 429 c 1
 439 429 542 429 561 432 c 1
 563 429 l 1
 498 373.9 415.4 278.9 376 238 c 1
 471.4 122.8 509.6 78.6 584 0 c 1
 582 -3 l 1
 573 -1.2 494.7 0 478 0 c 0
 461 0 413.3 -1.2 398 -3 c 1
 327 95.8 308 130 243 198 c 0
 235.7 204.5 221.7 206.4 213 206.9 c 1
 213 200 l 2
 213 124.8 216.5 57 225 0 c 1
 223 -3 l 1
 223 -3 181.3 0 147 0 c 0
 112 0 70 -3 70 -3 c 1
 69 0 l 1
 77.5 53.5 81 125 81 200 c 2
EndSplineSet
LCarets2: 1 0 
Colour: ff00ff
EndChar

StartChar: uni1E34
Encoding: 7732 7732 181
Width: 759
VWidth: 999
Flags: HW
HStem: -106 44<200 211 211 478> -3 21<94 178 178 262 478 531.5 698.746 707.5> 319 35<243 268.714> 628 20<94 178 178 262 492.5 543.5 663 699>
VStem: 106 144<2.67992 642.32>
LayerCount: 2
Fore
SplineSet
456 -106 m 2
 211 -106 l 2
 203 -106 199 -98 199 -91 c 0
 199 -79 209 -62 221 -62 c 2
 466 -62 l 2
 475 -62 479 -69 479 -76 c 0
 479 -88 469 -106 456 -106 c 2
106 445 m 2
 106 520 102 588 94 645 c 1
 96 648 l 1
 96 648 144 645 178 645 c 0
 213 645 261 648 261 648 c 1
 262 645 l 1
 254 592 250 520 250 445 c 2
 250 354.1 l 1
 255.1 354.6 265.1 356.9 272 363 c 0
 360 440 448 546 537 648 c 1
 550 645 603 645 616 645 c 0
 631 645 691 645 707 648 c 1
 619 571 461 433 393 354 c 1
 393 352 l 1
 717 -3 l 1
 698 0 634 0 615 0 c 0
 598 0 540 0 523 -3 c 1
 433 108 310 271 269 312 c 0
 264.2 316 255.1 318 250 318.7 c 1
 250 200 l 2
 250 125 254 57 262 0 c 1
 260 -3 l 1
 260 -3 212 0 178 0 c 0
 143 0 95 -3 95 -3 c 1
 94 0 l 1
 102 54 106 125 106 200 c 2
 106 445 l 2
EndSplineSet
LCarets2: 1 0 
Colour: ff00ff
EndChar

StartChar: uni1E35
Encoding: 7733 7733 182
Width: 591
VWidth: 999
Flags: HW
HStem: -107 44<124 135 135 402> -3 21<69 147 147 225 362.525 405.667 577.5 584> 207 34<208 242.571> 412 20<551.5 563> 678 20<201.465 217.167>
VStem: 81 132<2.67975 659.981>
LayerCount: 2
Fore
SplineSet
380 -107 m 2
 135 -107 l 2
 127 -107 123 -99 123 -92 c 0
 123 -80 133 -63 145 -63 c 2
 390 -63 l 2
 399 -63 403 -70 403 -77 c 0
 403 -89 393 -107 380 -107 c 2
81 200 m 2
 81 474 l 2
 81 550 76.7 619.3 69 662 c 1
 71 665 l 1
 111.5 668 188.9 688 214 698 c 1
 220.3 698 225 695 225 688 c 0
 217.3 626.7 213 575 213 500 c 2
 213 241.3 l 1
 225.4 242.4 245.7 247.3 257 256 c 0
 296.6 286.5 368.9 366.5 412 429 c 1
 439 429 542 429 561 432 c 1
 563 429 l 1
 498 373.9 415.4 278.9 376 238 c 1
 471.4 122.8 509.6 78.6 584 0 c 1
 582 -3 l 1
 573 -1.2 494.7 0 478 0 c 0
 461 0 413.3 -1.2 398 -3 c 1
 327 95.8 308 130 243 198 c 0
 235.7 204.5 221.7 206.4 213 206.9 c 1
 213 200 l 2
 213 124.8 216.5 57 225 0 c 1
 223 -3 l 1
 223 -3 181.3 0 147 0 c 0
 112 0 70 -3 70 -3 c 1
 69 0 l 1
 77.5 53.5 81 125 81 200 c 2
EndSplineSet
LCarets2: 1 0 
Colour: ff00ff
EndChar

StartChar: uni1E36
Encoding: 7734 7734 183
Width: 588
VWidth: 999
Flags: HW
HStem: -219 142<221.5 330.5> 0 81<251.435 501.657> 628 20<92 173 173 257>
VStem: 103 144<82.6682 642.32> 201 150<-198.5 -97.5>
LayerCount: 2
Fore
SplineSet
201 -148 m 0
 201 -108 234 -77 276 -77 c 0
 318 -77 351 -108 351 -148 c 0
 351 -188 318 -219 276 -219 c 0
 234 -219 201 -188 201 -148 c 0
247 210 m 2
 247 193 248 105 255 81 c 1
 389 81 541 103 541 103 c 1
 543 99 l 1
 542 91 541 52 541 42 c 0
 541 32 542 14 543 0 c 1
 541 -3 l 1
 525 -1 502 0 481 0 c 2
 177 0 l 2
 143 0 94 -3 94 -3 c 1
 93 0 l 1
 101 54 103 125 103 200 c 2
 103 445 l 2
 103 520 100 588 92 645 c 1
 94 648 l 1
 94 648 139 645 173 645 c 0
 208 645 256 648 256 648 c 1
 257 645 l 1
 249 592 247 520 247 445 c 2
 247 210 l 2
EndSplineSet
LCarets2: 1 0 
Colour: ff00ff
EndChar

StartChar: uni1E37
Encoding: 7735 7735 184
Width: 304
VWidth: 999
Flags: HW
HStem: -219 142<66.5 175.5> -3 21<74 152 152 230> 678 20<206.465 222.167>
VStem: 46 150<-198.5 -97.5> 86 132<2.67975 659.981>
LayerCount: 2
Fore
SplineSet
86 200 m 2
 86 474 l 2
 86 550 81.7 619.3 74 662 c 1
 76 665 l 1
 116.5 668 193.9 688 219 698 c 1
 225.3 698 230 695 230 688 c 0
 222.3 626.7 218 575 218 500 c 2
 218 200 l 2
 218 124.8 221.5 57 230 0 c 1
 228 -3 l 1
 228 -3 186.3 0 152 0 c 0
 117 0 75 -3 75 -3 c 1
 74 0 l 1
 82.5 53.5 86 125 86 200 c 2
46 -148 m 0
 46 -108 79 -77 121 -77 c 0
 163 -77 196 -108 196 -148 c 0
 196 -188 163 -219 121 -219 c 0
 79 -219 46 -188 46 -148 c 0
EndSplineSet
LCarets2: 1 0 
Colour: ff00ff
EndChar

StartChar: uni1E38
Encoding: 7736 7736 185
Width: 588
VWidth: 999
Flags: HW
HStem: -219 142<221.5 330.5> 0 81<251.435 501.657> 628 20<92 173 173 257> 725 60<8.837 316.084>
VStem: 5 315<725.849 784.524> 103 144<82.6682 642.32> 201 150<-198.5 -97.5>
LayerCount: 2
Fore
SplineSet
294 725 m 2
 20 725 l 2
 9 725 5 739 5 748 c 0
 5 760 17 785 30 785 c 2
 306 785 l 2
 316 785 320 771 320 763 c 0
 320 750 308 725 294 725 c 2
201 -148 m 0
 201 -108 234 -77 276 -77 c 0
 318 -77 351 -108 351 -148 c 0
 351 -188 318 -219 276 -219 c 0
 234 -219 201 -188 201 -148 c 0
247 210 m 2
 247 193 248 105 255 81 c 1
 389 81 541 103 541 103 c 1
 543 99 l 1
 542 91 541 52 541 42 c 0
 541 32 542 14 543 0 c 1
 541 -3 l 1
 525 -1 502 0 481 0 c 2
 177 0 l 2
 143 0 94 -3 94 -3 c 1
 93 0 l 1
 101 54 103 125 103 200 c 2
 103 445 l 2
 103 520 100 588 92 645 c 1
 94 648 l 1
 94 648 139 645 173 645 c 0
 208 645 256 648 256 648 c 1
 257 645 l 1
 249 592 247 520 247 445 c 2
 247 210 l 2
EndSplineSet
LCarets2: 1 0 
Colour: ff00ff
EndChar

StartChar: uni1E39
Encoding: 7737 7737 186
Width: 304
VWidth: 999
Flags: HW
HStem: -219 142<66.5 175.5> -3 21<74 152 152 230> 678 20<206.465 222.167> 748 60<-27.163 280.084>
VStem: -31 315<748.849 807.524> 46 150<-198.5 -97.5> 86 132<2.67975 659.981>
LayerCount: 2
Fore
SplineSet
86 200 m 2
 86 474 l 2
 86 550 81.7 619.3 74 662 c 1
 76 665 l 1
 116.5 668 193.9 688 219 698 c 1
 225.3 698 230 695 230 688 c 0
 222.3 626.7 218 575 218 500 c 2
 218 200 l 2
 218 124.8 221.5 57 230 0 c 1
 228 -3 l 1
 228 -3 186.3 0 152 0 c 0
 117 0 75 -3 75 -3 c 1
 74 0 l 1
 82.5 53.5 86 125 86 200 c 2
46 -148 m 0
 46 -108 79 -77 121 -77 c 0
 163 -77 196 -108 196 -148 c 0
 196 -188 163 -219 121 -219 c 0
 79 -219 46 -188 46 -148 c 0
258 748 m 2
 -16 748 l 2
 -27 748 -31 762 -31 771 c 0
 -31 783 -19 808 -6 808 c 2
 270 808 l 2
 280 808 284 794 284 786 c 0
 284 773 272 748 258 748 c 2
EndSplineSet
LCarets2: 1 0 
Colour: ff00ff
EndChar

StartChar: uni1E3A
Encoding: 7738 7738 187
Width: 588
VWidth: 999
Flags: HW
HStem: -112 44<132 143 143 410> 0 81<251.435 501.657> 628 20<92 173 173 257>
VStem: 103 144<82.6682 642.32>
LayerCount: 2
Fore
SplineSet
388 -112 m 2
 143 -112 l 2
 135 -112 131 -104 131 -97 c 0
 131 -85 141 -68 153 -68 c 2
 398 -68 l 2
 407 -68 411 -75 411 -82 c 0
 411 -94 401 -112 388 -112 c 2
247 210 m 2
 247 193 248 105 255 81 c 1
 389 81 541 103 541 103 c 1
 543 99 l 1
 542 91 541 52 541 42 c 0
 541 32 542 14 543 0 c 1
 541 -3 l 1
 525 -1 502 0 481 0 c 2
 177 0 l 2
 143 0 94 -3 94 -3 c 1
 93 0 l 1
 101 54 103 125 103 200 c 2
 103 445 l 2
 103 520 100 588 92 645 c 1
 94 648 l 1
 94 648 139 645 173 645 c 0
 208 645 256 648 256 648 c 1
 257 645 l 1
 249 592 247 520 247 445 c 2
 247 210 l 2
EndSplineSet
LCarets2: 1 0 
Colour: ff00ff
EndChar

StartChar: uni1E3B
Encoding: 7739 7739 188
Width: 304
VWidth: 999
Flags: HW
HStem: -112 44<-19 -8 -8 259> -3 21<74 152 152 230> 678 20<206.465 222.167>
VStem: 86 132<2.67975 659.981>
LayerCount: 2
Fore
SplineSet
86 200 m 2
 86 474 l 2
 86 550 81.7 619.3 74 662 c 1
 76 665 l 1
 116.5 668 193.9 688 219 698 c 1
 225.3 698 230 695 230 688 c 0
 222.3 626.7 218 575 218 500 c 2
 218 200 l 2
 218 124.8 221.5 57 230 0 c 1
 228 -3 l 1
 228 -3 186.3 0 152 0 c 0
 117 0 75 -3 75 -3 c 1
 74 0 l 1
 82.5 53.5 86 125 86 200 c 2
237 -112 m 2
 -8 -112 l 2
 -16 -112 -20 -104 -20 -97 c 0
 -20 -85 -10 -68 2 -68 c 2
 247 -68 l 2
 256 -68 260 -75 260 -82 c 0
 260 -94 250 -112 237 -112 c 2
EndSplineSet
LCarets2: 1 0 
Colour: ff00ff
EndChar

StartChar: uni1E3C
Encoding: 7740 7740 189
Width: 588
VWidth: 999
Flags: HW
HStem: 0 81<251.435 501.657> 628 20<92 173 173 257>
VStem: 103 144<82.6682 642.32> 155 253<-186 -186>
LayerCount: 2
Fore
SplineSet
388 -232 m 1
 361 -256 l 1
 313 -233 281 -216 243 -179 c 1
 201 -218 170 -233 126 -256 c 1
 99 -232 l 1
 182 -146 190 -134 224 -86 c 1
 264 -86 l 1
 302 -140 314 -158 388 -232 c 1
247 210 m 2
 247 193 248 105 255 81 c 1
 389 81 541 103 541 103 c 1
 543 99 l 1
 542 91 541 52 541 42 c 0
 541 32 542 14 543 0 c 1
 541 -3 l 1
 525 -1 502 0 481 0 c 2
 177 0 l 2
 143 0 94 -3 94 -3 c 1
 93 0 l 1
 101 54 103 125 103 200 c 2
 103 445 l 2
 103 520 100 588 92 645 c 1
 94 648 l 1
 94 648 139 645 173 645 c 0
 208 645 256 648 256 648 c 1
 257 645 l 1
 249 592 247 520 247 445 c 2
 247 210 l 2
EndSplineSet
LCarets2: 1 0 
Colour: ff00ff
EndChar

StartChar: uni1E3D
Encoding: 7741 7741 190
Width: 304
VWidth: 999
Flags: HW
HStem: -3 21<74 152 152 230> 678 20<206.465 222.167>
VStem: -4 253<-186 -186> 86 132<2.67975 659.981>
LayerCount: 2
Fore
SplineSet
86 200 m 2
 86 474 l 2
 86 550 81.7 619.3 74 662 c 1
 76 665 l 1
 116.5 668 193.9 688 219 698 c 1
 225.3 698 230 695 230 688 c 0
 222.3 626.7 218 575 218 500 c 2
 218 200 l 2
 218 124.8 221.5 57 230 0 c 1
 228 -3 l 1
 228 -3 186.3 0 152 0 c 0
 117 0 75 -3 75 -3 c 1
 74 0 l 1
 82.5 53.5 86 125 86 200 c 2
229 -232 m 1
 202 -256 l 1
 154 -233 122 -216 84 -179 c 1
 42 -218 11 -233 -33 -256 c 1
 -60 -232 l 1
 23 -146 31 -134 65 -86 c 1
 105 -86 l 1
 143 -140 155 -158 229 -232 c 1
EndSplineSet
LCarets2: 1 0 
Colour: ff00ff
EndChar

StartChar: uni1E3E
Encoding: 7742 7742 191
Width: 931
Flags: HW
HStem: -3 21<46.5 59.5 132.5 138.487 372.88 499.552 743.173 757.5 874.5 882.5> 822 148
VStem: 275 214
LayerCount: 2
Fore
SplineSet
153 662 m 1
 234 662 l 1
 312.8 498.9 386.7 342.7 473.4 180.8 c 1
 733 662 l 1
 812 662 l 1
 840 419 859 214 890 -3 c 1
 875 0 824 0 809 0 c 0
 794 0 765 0 750 -3 c 1
 736.3 162.8 723.7 315.2 704.5 472.9 c 1
 620.6 318.1 536.1 166.7 463 0 c 1
 408 0 l 1
 341 142.2 263.3 290.2 187.6 438.7 c 1
 169 286.6 138.9 93.8 138 -3 c 1
 127 0 101 0 90 0 c 0
 78 0 52 0 41 -3 c 1
 78 198 120 448 153 662 c 1
432 970 m 1
 459.4 951.3 480 918 489 889 c 1
 482 875.1 l 1
 330 831 l 2
 307.8 824.6 299.1 822 291 822 c 0
 282.9 822 275 838 275 847 c 0
 275 854 276.8 861.8 290 871 c 2
 432 970 l 1
EndSplineSet
LCarets2: 1 0 
Colour: ff00ff
EndChar

StartChar: uni1E3F
Encoding: 7743 7743 192
Width: 892
VWidth: 999
Flags: HW
HStem: -3 21<68 146 146 222 365 446 446 521 660 741 741 816> 362 77<295.113 410.324 576.6 713.201> 470 171
VStem: 80 132<2.6647 303.408> 289 184 377 132<2.6647 297.443> 672 132<2.6647 347.031>
LayerCount: 2
Fore
SplineSet
380 639 m 1
 383 640 391 641 396 641 c 0
 426 641 455 627 463 617 c 1
 473 594 l 1
 353 486 l 2
 339 474 320 470 310 470 c 0
 302 470 289 478 289 484 c 0
 289 490 291 499 297 508 c 2
 380 639 l 1
216 349 m 1
 254 398 316 439 365 439 c 0
 454.6 439 482 409 502 359 c 1
 559 419 611 439 661 439 c 0
 769 439 804 380 804 280 c 2
 804 180 l 2
 804 104 808 57 816 0 c 1
 814 -3 l 1
 814 -3 775 0 741 0 c 0
 706 0 661 -3 661 -3 c 1
 660 0 l 1
 668 54 672 105 672 180 c 2
 672 273 l 2
 672 340 649 362 617 362 c 0
 578 362 556 351 508 298 c 1
 509 286 509 282 509 268 c 2
 509 180 l 2
 509 104 513 57 521 0 c 1
 519 -3 l 1
 519 -3 480 0 446 0 c 0
 411 0 366 -3 366 -3 c 1
 365 0 l 1
 373 54 377 105 377 180 c 2
 377 281 l 2
 377 348 356 362 318 362 c 0
 290 362 254 332 212 281 c 1
 212 180 l 2
 212 104 214 57 222 0 c 1
 220 -3 l 1
 220 -3 180 0 146 0 c 0
 111 0 69 -3 69 -3 c 1
 68 0 l 1
 76 54 80 105 80 180 c 2
 80 235 l 2
 80 309.7 76.7 386.3 69 429 c 1
 71 432 l 1
 106 430.3 172 430.3 201 435 c 1
 207.3 435 208.8 431.9 210 425 c 0
 211.5 416.5 211.8 374.8 211.8 352 c 1
 216 349 l 1
EndSplineSet
LCarets2: 1 0 
Colour: ff00ff
EndChar

